<svg width="66" height="60" viewBox="0 0 66 60" fill="none" xmlns="http://www.w3.org/2000/svg">
<mask id="path-1-inside-1_2583_12645" fill="white">
<path d="M1.14062 14.8688V28.9915H6.96358C11.3352 28.9915 12.7603 28.965 12.7166 28.8852C12.6816 28.832 12.6904 28.8142 12.7341 28.8408C12.7865 28.8674 12.769 29.4171 12.6991 30.2505C12.6379 30.9952 12.5767 31.9349 12.5679 32.3338C12.5592 32.7239 12.5155 33.0076 12.4805 32.9544C12.4368 32.8924 12.4193 33.0165 12.4368 33.2204C12.4543 33.4332 12.4455 33.6016 12.4193 33.6016C12.3319 33.6016 12.1658 35.0644 12.2182 35.2861C12.2532 35.4102 12.2357 35.4722 12.192 35.4368C12.122 35.4013 11.8423 36.6868 11.7636 37.4049C11.7548 37.4847 11.7199 37.6088 11.6936 37.6798C11.6149 37.9103 11.4226 38.6816 11.4139 38.8234C11.4139 38.9032 11.3789 39.0096 11.3526 39.0539C11.3089 39.1337 11.169 39.6568 11.1428 39.8518C11.1428 39.8961 11.1078 40.0114 11.0729 40.0912C11.0379 40.171 11.0379 40.2862 11.0729 40.3483C11.1078 40.4103 11.0991 40.4281 11.0379 40.3926C10.9854 40.366 10.9155 40.4547 10.8805 40.6231C10.7931 41.0043 10.8018 40.9689 10.6969 41.226C10.4871 41.7136 10.216 42.4317 10.1986 42.5115C10.1898 42.5558 10.1286 42.6888 10.0761 42.804C10.0149 42.9104 9.98871 43.0523 10.0237 43.1054C10.0587 43.1586 10.0499 43.1764 9.99746 43.1498C9.89254 43.0877 9.6827 43.5044 9.75265 43.6285C9.78762 43.6728 9.77013 43.7083 9.71768 43.7083C9.58653 43.7083 9.25429 44.3998 9.32423 44.5239C9.35921 44.5771 9.35046 44.5949 9.298 44.5683C9.24554 44.5328 9.13188 44.6569 9.04445 44.8431C8.95702 45.0204 8.8521 45.18 8.81713 45.1977C8.77341 45.2154 8.74718 45.313 8.74718 45.4105C8.74718 45.5169 8.72095 45.5701 8.69472 45.5435C8.64227 45.4903 8.1439 46.0754 8.13516 46.1995C8.13516 46.2261 7.97778 46.4211 7.78543 46.6339C7.59308 46.8378 7.46194 47.0506 7.48817 47.0949C7.5144 47.1393 7.48817 47.157 7.41822 47.1481C7.35702 47.1304 7.3133 47.1747 7.32205 47.2279C7.33953 47.29 7.29582 47.3343 7.23461 47.3166C7.18216 47.3077 7.13844 47.352 7.15593 47.4141C7.16467 47.485 7.13844 47.5116 7.10347 47.485C6.99855 47.423 6.71877 47.7332 6.79746 47.8219C6.84117 47.8574 6.8062 47.8751 6.73625 47.8574C6.66631 47.8396 6.61385 47.884 6.63134 47.946C6.64008 48.0169 6.62259 48.0435 6.57888 48.0169C6.46522 47.946 6.11549 48.2297 6.17669 48.3361C6.21166 48.3893 6.20292 48.407 6.15046 48.3804C6.0368 48.3095 5.58216 48.6198 5.66084 48.7173C5.70456 48.7528 5.68707 48.7616 5.62587 48.7262C5.56467 48.6907 5.44227 48.7439 5.33735 48.8503C5.24117 48.9478 5.16248 49.001 5.16248 48.9567C5.16248 48.9212 5.11877 48.9656 5.06631 49.0542C5.01385 49.134 4.9439 49.1872 4.89145 49.1606C4.84773 49.1251 4.81276 49.1429 4.81276 49.1872C4.81276 49.2315 4.7603 49.267 4.70784 49.267C4.64664 49.267 4.34063 49.3911 4.02587 49.5329C3.71112 49.6837 3.32642 49.8344 3.17778 49.8698C3.02041 49.8964 2.88926 49.9674 2.88926 50.0117C2.88926 50.0649 2.85429 50.0826 2.81931 50.056C2.7756 50.0294 2.60948 50.0471 2.44336 50.0915C2.27724 50.1358 1.91877 50.2156 1.64773 50.2688L1.14062 50.3663V55.065V59.7549H1.38543C2.16358 59.7549 5.9144 59.2318 6.2991 59.0722C6.36904 59.0456 6.56139 59.0102 6.71002 58.9836C6.8674 58.9659 7.32205 58.8506 7.71549 58.7265C8.64227 58.4428 8.66849 58.4428 8.87833 58.4339C9.02697 58.4251 9.03571 58.4073 8.92205 58.3275C8.81713 58.2566 8.82587 58.2477 8.97451 58.2921C9.20183 58.3541 9.46412 58.2566 9.39418 58.1414C9.35921 58.0882 9.41166 58.0793 9.53407 58.1148C9.67396 58.1591 9.70893 58.1502 9.66522 58.0704C9.6215 57.9906 9.64773 57.9818 9.78762 58.0261C9.8838 58.0527 9.97123 58.0438 9.97123 57.9995C9.97123 57.9552 10.0587 57.9109 10.1723 57.9109C10.3909 57.9109 11.3002 57.5474 11.3789 57.4233C11.4051 57.3789 11.4576 57.3523 11.4925 57.3523C11.6849 57.3789 11.816 57.3435 11.9297 57.2193C12.0084 57.1484 12.0696 57.1041 12.0696 57.1307C12.0696 57.2105 13.3286 56.5544 13.3986 56.4392C13.4335 56.386 13.4685 56.3771 13.4685 56.4126C13.4685 56.448 13.5472 56.4392 13.6434 56.386C13.7395 56.3328 13.8007 56.2441 13.7658 56.1909C13.7308 56.1378 13.757 56.1112 13.827 56.1378C13.9843 56.1998 14.4302 55.9693 14.4302 55.8363C14.4302 55.7831 14.4565 55.7654 14.4827 55.792C14.5789 55.8895 14.8761 55.6767 14.8499 55.526C14.8324 55.4462 14.8849 55.3665 14.9548 55.3487C15.0598 55.3133 15.0598 55.3221 14.9636 55.393C14.9024 55.4374 14.8849 55.4994 14.9286 55.526C15.0073 55.5792 15.322 55.3753 15.2608 55.3044C15.2346 55.2867 15.2696 55.2601 15.3308 55.2601C15.5144 55.2601 15.9166 54.9498 15.8554 54.8523C15.8292 54.7991 15.8466 54.7902 15.9078 54.8257C15.969 54.87 16.1177 54.7636 16.2838 54.5774C16.4324 54.4001 16.6248 54.2583 16.7035 54.2583C16.7822 54.2583 17.0445 54.0721 17.2805 53.8416C17.5166 53.6111 17.7526 53.416 17.7964 53.416C17.8488 53.4072 17.8751 53.354 17.8576 53.2919C17.8488 53.2299 17.8751 53.2033 17.9188 53.2299C17.9625 53.2653 18.0849 53.1767 18.1898 53.0437C18.2947 52.9018 18.4608 52.7511 18.5658 52.6891C18.6707 52.627 18.7057 52.5827 18.6445 52.5738C18.557 52.5738 18.557 52.5472 18.6445 52.4497C18.7231 52.361 18.7756 52.3522 18.8193 52.432C18.863 52.494 18.8893 52.4852 18.8893 52.3876C18.8893 52.3079 18.9767 52.1749 19.0816 52.0773C19.1865 51.9887 19.239 51.9621 19.204 52.0153C19.169 52.0773 19.169 52.1305 19.1953 52.1305C19.2215 52.1305 19.2914 52.0153 19.3352 51.8646C19.3876 51.7227 19.4576 51.6163 19.4838 51.6252C19.6062 51.6607 20.1133 51.1199 20.1133 50.9603C20.1133 50.8716 20.1658 50.8096 20.227 50.8273C20.2794 50.8362 20.3231 50.7918 20.3057 50.7298C20.2969 50.6589 20.3231 50.6323 20.3756 50.6677C20.4368 50.7032 20.498 50.65 20.5242 50.5436C20.5505 50.4372 20.6029 50.3574 20.6466 50.3574C20.6816 50.3574 20.9002 50.1092 21.1275 49.8078C21.3636 49.5063 21.486 49.2936 21.4248 49.3379C21.3548 49.3822 21.4423 49.267 21.6259 49.0897C21.8095 48.9035 21.9319 48.7173 21.9057 48.673C21.8794 48.6287 21.9144 48.5666 21.9843 48.5223C22.1242 48.4336 22.7712 47.4318 22.6751 47.4318C22.6401 47.4318 22.6925 47.3698 22.7887 47.29C22.8761 47.219 22.8936 47.1747 22.8237 47.2102C22.745 47.2456 22.7625 47.2102 22.8587 47.1304C22.9461 47.0595 22.9898 46.9531 22.9548 46.8999C22.9286 46.8467 22.9461 46.8201 23.0073 46.829C23.1384 46.8644 24.4936 44.2491 24.4412 44.0807C24.4149 44.0186 24.4324 43.9831 24.4761 44.0097C24.5723 44.0718 24.6598 43.859 24.6598 43.5665C24.6598 43.4423 24.6947 43.3625 24.7384 43.3891C24.8084 43.4335 25.1057 42.8129 25.1494 42.5292C25.1581 42.4937 25.1756 42.4405 25.1843 42.3962C25.1931 42.3607 25.2018 42.3076 25.1931 42.2632C25.1931 42.2278 25.2193 42.2012 25.263 42.2012C25.3242 42.2012 25.4554 41.882 25.4816 41.6515C25.4904 41.6249 25.5166 41.5628 25.5516 41.5274C25.6652 41.421 25.6302 41.2082 25.5166 41.2792C25.4554 41.3146 25.4466 41.3057 25.4816 41.2348C25.5166 41.1816 25.5778 41.155 25.6215 41.1816C25.7177 41.2437 25.8838 40.7206 25.8226 40.5433C25.7876 40.4547 25.8051 40.4192 25.8576 40.4547C25.9275 40.499 26.1723 39.8873 26.2772 39.4085C26.286 39.3642 26.321 39.2489 26.3559 39.1692C26.3909 39.0894 26.3996 38.9741 26.3647 38.9209C26.3384 38.8766 26.3472 38.8323 26.3909 38.8323C26.6007 38.8323 27.7636 33.9562 27.6587 33.5307C27.6324 33.3977 27.6412 33.3268 27.6936 33.3622C27.8073 33.4332 27.9996 32.3516 27.9297 32.0324C27.9035 31.8728 27.9122 31.8285 27.9559 31.8994C28.0783 32.0679 28.533 28.6901 28.769 25.8443C29.0051 22.9275 29.0488 20.9239 29.0925 11.1719L29.1363 0.754883H15.1384H1.14062V14.8688Z"/>
</mask>
<path d="M1.14062 14.8688V28.9915H6.96358C11.3352 28.9915 12.7603 28.965 12.7166 28.8852C12.6816 28.832 12.6904 28.8142 12.7341 28.8408C12.7865 28.8674 12.769 29.4171 12.6991 30.2505C12.6379 30.9952 12.5767 31.9349 12.5679 32.3338C12.5592 32.7239 12.5155 33.0076 12.4805 32.9544C12.4368 32.8924 12.4193 33.0165 12.4368 33.2204C12.4543 33.4332 12.4455 33.6016 12.4193 33.6016C12.3319 33.6016 12.1658 35.0644 12.2182 35.2861C12.2532 35.4102 12.2357 35.4722 12.192 35.4368C12.122 35.4013 11.8423 36.6868 11.7636 37.4049C11.7548 37.4847 11.7199 37.6088 11.6936 37.6798C11.6149 37.9103 11.4226 38.6816 11.4139 38.8234C11.4139 38.9032 11.3789 39.0096 11.3526 39.0539C11.3089 39.1337 11.169 39.6568 11.1428 39.8518C11.1428 39.8961 11.1078 40.0114 11.0729 40.0912C11.0379 40.171 11.0379 40.2862 11.0729 40.3483C11.1078 40.4103 11.0991 40.4281 11.0379 40.3926C10.9854 40.366 10.9155 40.4547 10.8805 40.6231C10.7931 41.0043 10.8018 40.9689 10.6969 41.226C10.4871 41.7136 10.216 42.4317 10.1986 42.5115C10.1898 42.5558 10.1286 42.6888 10.0761 42.804C10.0149 42.9104 9.98871 43.0523 10.0237 43.1054C10.0587 43.1586 10.0499 43.1764 9.99746 43.1498C9.89254 43.0877 9.6827 43.5044 9.75265 43.6285C9.78762 43.6728 9.77013 43.7083 9.71768 43.7083C9.58653 43.7083 9.25429 44.3998 9.32423 44.5239C9.35921 44.5771 9.35046 44.5949 9.298 44.5683C9.24554 44.5328 9.13188 44.6569 9.04445 44.8431C8.95702 45.0204 8.8521 45.18 8.81713 45.1977C8.77341 45.2154 8.74718 45.313 8.74718 45.4105C8.74718 45.5169 8.72095 45.5701 8.69472 45.5435C8.64227 45.4903 8.1439 46.0754 8.13516 46.1995C8.13516 46.2261 7.97778 46.4211 7.78543 46.6339C7.59308 46.8378 7.46194 47.0506 7.48817 47.0949C7.5144 47.1393 7.48817 47.157 7.41822 47.1481C7.35702 47.1304 7.3133 47.1747 7.32205 47.2279C7.33953 47.29 7.29582 47.3343 7.23461 47.3166C7.18216 47.3077 7.13844 47.352 7.15593 47.4141C7.16467 47.485 7.13844 47.5116 7.10347 47.485C6.99855 47.423 6.71877 47.7332 6.79746 47.8219C6.84117 47.8574 6.8062 47.8751 6.73625 47.8574C6.66631 47.8396 6.61385 47.884 6.63134 47.946C6.64008 48.0169 6.62259 48.0435 6.57888 48.0169C6.46522 47.946 6.11549 48.2297 6.17669 48.3361C6.21166 48.3893 6.20292 48.407 6.15046 48.3804C6.0368 48.3095 5.58216 48.6198 5.66084 48.7173C5.70456 48.7528 5.68707 48.7616 5.62587 48.7262C5.56467 48.6907 5.44227 48.7439 5.33735 48.8503C5.24117 48.9478 5.16248 49.001 5.16248 48.9567C5.16248 48.9212 5.11877 48.9656 5.06631 49.0542C5.01385 49.134 4.9439 49.1872 4.89145 49.1606C4.84773 49.1251 4.81276 49.1429 4.81276 49.1872C4.81276 49.2315 4.7603 49.267 4.70784 49.267C4.64664 49.267 4.34063 49.3911 4.02587 49.5329C3.71112 49.6837 3.32642 49.8344 3.17778 49.8698C3.02041 49.8964 2.88926 49.9674 2.88926 50.0117C2.88926 50.0649 2.85429 50.0826 2.81931 50.056C2.7756 50.0294 2.60948 50.0471 2.44336 50.0915C2.27724 50.1358 1.91877 50.2156 1.64773 50.2688L1.14062 50.3663V55.065V59.7549H1.38543C2.16358 59.7549 5.9144 59.2318 6.2991 59.0722C6.36904 59.0456 6.56139 59.0102 6.71002 58.9836C6.8674 58.9659 7.32205 58.8506 7.71549 58.7265C8.64227 58.4428 8.66849 58.4428 8.87833 58.4339C9.02697 58.4251 9.03571 58.4073 8.92205 58.3275C8.81713 58.2566 8.82587 58.2477 8.97451 58.2921C9.20183 58.3541 9.46412 58.2566 9.39418 58.1414C9.35921 58.0882 9.41166 58.0793 9.53407 58.1148C9.67396 58.1591 9.70893 58.1502 9.66522 58.0704C9.6215 57.9906 9.64773 57.9818 9.78762 58.0261C9.8838 58.0527 9.97123 58.0438 9.97123 57.9995C9.97123 57.9552 10.0587 57.9109 10.1723 57.9109C10.3909 57.9109 11.3002 57.5474 11.3789 57.4233C11.4051 57.3789 11.4576 57.3523 11.4925 57.3523C11.6849 57.3789 11.816 57.3435 11.9297 57.2193C12.0084 57.1484 12.0696 57.1041 12.0696 57.1307C12.0696 57.2105 13.3286 56.5544 13.3986 56.4392C13.4335 56.386 13.4685 56.3771 13.4685 56.4126C13.4685 56.448 13.5472 56.4392 13.6434 56.386C13.7395 56.3328 13.8007 56.2441 13.7658 56.1909C13.7308 56.1378 13.757 56.1112 13.827 56.1378C13.9843 56.1998 14.4302 55.9693 14.4302 55.8363C14.4302 55.7831 14.4565 55.7654 14.4827 55.792C14.5789 55.8895 14.8761 55.6767 14.8499 55.526C14.8324 55.4462 14.8849 55.3665 14.9548 55.3487C15.0598 55.3133 15.0598 55.3221 14.9636 55.393C14.9024 55.4374 14.8849 55.4994 14.9286 55.526C15.0073 55.5792 15.322 55.3753 15.2608 55.3044C15.2346 55.2867 15.2696 55.2601 15.3308 55.2601C15.5144 55.2601 15.9166 54.9498 15.8554 54.8523C15.8292 54.7991 15.8466 54.7902 15.9078 54.8257C15.969 54.87 16.1177 54.7636 16.2838 54.5774C16.4324 54.4001 16.6248 54.2583 16.7035 54.2583C16.7822 54.2583 17.0445 54.0721 17.2805 53.8416C17.5166 53.6111 17.7526 53.416 17.7964 53.416C17.8488 53.4072 17.8751 53.354 17.8576 53.2919C17.8488 53.2299 17.8751 53.2033 17.9188 53.2299C17.9625 53.2653 18.0849 53.1767 18.1898 53.0437C18.2947 52.9018 18.4608 52.7511 18.5658 52.6891C18.6707 52.627 18.7057 52.5827 18.6445 52.5738C18.557 52.5738 18.557 52.5472 18.6445 52.4497C18.7231 52.361 18.7756 52.3522 18.8193 52.432C18.863 52.494 18.8893 52.4852 18.8893 52.3876C18.8893 52.3079 18.9767 52.1749 19.0816 52.0773C19.1865 51.9887 19.239 51.9621 19.204 52.0153C19.169 52.0773 19.169 52.1305 19.1953 52.1305C19.2215 52.1305 19.2914 52.0153 19.3352 51.8646C19.3876 51.7227 19.4576 51.6163 19.4838 51.6252C19.6062 51.6607 20.1133 51.1199 20.1133 50.9603C20.1133 50.8716 20.1658 50.8096 20.227 50.8273C20.2794 50.8362 20.3231 50.7918 20.3057 50.7298C20.2969 50.6589 20.3231 50.6323 20.3756 50.6677C20.4368 50.7032 20.498 50.65 20.5242 50.5436C20.5505 50.4372 20.6029 50.3574 20.6466 50.3574C20.6816 50.3574 20.9002 50.1092 21.1275 49.8078C21.3636 49.5063 21.486 49.2936 21.4248 49.3379C21.3548 49.3822 21.4423 49.267 21.6259 49.0897C21.8095 48.9035 21.9319 48.7173 21.9057 48.673C21.8794 48.6287 21.9144 48.5666 21.9843 48.5223C22.1242 48.4336 22.7712 47.4318 22.6751 47.4318C22.6401 47.4318 22.6925 47.3698 22.7887 47.29C22.8761 47.219 22.8936 47.1747 22.8237 47.2102C22.745 47.2456 22.7625 47.2102 22.8587 47.1304C22.9461 47.0595 22.9898 46.9531 22.9548 46.8999C22.9286 46.8467 22.9461 46.8201 23.0073 46.829C23.1384 46.8644 24.4936 44.2491 24.4412 44.0807C24.4149 44.0186 24.4324 43.9831 24.4761 44.0097C24.5723 44.0718 24.6598 43.859 24.6598 43.5665C24.6598 43.4423 24.6947 43.3625 24.7384 43.3891C24.8084 43.4335 25.1057 42.8129 25.1494 42.5292C25.1581 42.4937 25.1756 42.4405 25.1843 42.3962C25.1931 42.3607 25.2018 42.3076 25.1931 42.2632C25.1931 42.2278 25.2193 42.2012 25.263 42.2012C25.3242 42.2012 25.4554 41.882 25.4816 41.6515C25.4904 41.6249 25.5166 41.5628 25.5516 41.5274C25.6652 41.421 25.6302 41.2082 25.5166 41.2792C25.4554 41.3146 25.4466 41.3057 25.4816 41.2348C25.5166 41.1816 25.5778 41.155 25.6215 41.1816C25.7177 41.2437 25.8838 40.7206 25.8226 40.5433C25.7876 40.4547 25.8051 40.4192 25.8576 40.4547C25.9275 40.499 26.1723 39.8873 26.2772 39.4085C26.286 39.3642 26.321 39.2489 26.3559 39.1692C26.3909 39.0894 26.3996 38.9741 26.3647 38.9209C26.3384 38.8766 26.3472 38.8323 26.3909 38.8323C26.6007 38.8323 27.7636 33.9562 27.6587 33.5307C27.6324 33.3977 27.6412 33.3268 27.6936 33.3622C27.8073 33.4332 27.9996 32.3516 27.9297 32.0324C27.9035 31.8728 27.9122 31.8285 27.9559 31.8994C28.0783 32.0679 28.533 28.6901 28.769 25.8443C29.0051 22.9275 29.0488 20.9239 29.0925 11.1719L29.1363 0.754883H15.1384H1.14062V14.8688Z" fill="#0A2A48" stroke="url(#paint0_linear_2583_12645)" stroke-opacity="0.5" mask="url(#path-1-inside-1_2583_12645)"/>
<mask id="path-2-inside-2_2583_12645" fill="white">
<path d="M37.1641 14.8776V29.0004L42.9608 28.9915L48.7488 28.9827L48.775 29.4526C48.7925 29.7097 48.7488 30.543 48.6701 31.2966C48.6001 32.0501 48.5389 32.7328 48.5302 32.8037C48.434 34.0981 47.9094 37.006 47.4373 38.8145C47.3149 39.2755 47.2362 39.6834 47.2712 39.7277C47.2974 39.772 47.2712 39.8075 47.2274 39.8075C47.175 39.8075 47.14 39.8341 47.1488 39.8695C47.1488 39.9139 47.14 40.0025 47.1138 40.0734C46.7641 41.0309 46.7029 41.2526 46.7466 41.3235C46.7728 41.3678 46.7553 41.4033 46.7203 41.4033C46.6242 41.4033 46.4231 41.9352 46.4843 42.0327C46.5105 42.077 46.4843 42.1125 46.4318 42.1125C46.3706 42.1125 46.3444 42.1746 46.3794 42.2455C46.4056 42.3164 46.3968 42.3785 46.3619 42.3785C46.2832 42.3785 45.5925 43.8945 45.6274 43.992C45.6362 44.0363 45.61 44.0629 45.5662 44.0629C45.4526 44.0629 45.0329 44.914 45.1029 44.9938C45.1378 45.0381 45.1203 45.0381 45.0679 45.0115C44.9805 44.9583 44.7531 45.313 44.7356 45.508C44.7269 45.5523 44.657 45.6321 44.5783 45.6942C44.4908 45.7562 44.4471 45.836 44.4821 45.8626C44.5083 45.8981 44.4908 45.9247 44.4296 45.9247C44.3684 45.9247 44.3509 45.969 44.3859 46.0311C44.4209 46.0931 44.4121 46.102 44.3509 46.0665C44.2285 45.9956 44.0362 46.3325 44.1236 46.4743C44.1673 46.5364 44.1499 46.5453 44.0799 46.5098C43.9488 46.4211 43.328 47.1393 43.3367 47.3609C43.3455 47.4495 43.3105 47.4939 43.2755 47.4673C43.2318 47.4407 43.2231 47.3698 43.2581 47.3166C43.2843 47.2545 43.2318 47.29 43.1269 47.3786C42.9695 47.5205 42.952 47.5737 43.0482 47.6889C43.1356 47.813 43.1356 47.813 43.0132 47.7244C42.8996 47.6269 42.8471 47.6357 42.7247 47.7687C42.646 47.8574 42.6111 47.9637 42.646 48.0081C42.6897 48.0435 42.6635 48.0524 42.6111 48.0169C42.5499 47.9815 42.4974 47.9992 42.4974 48.0435C42.4974 48.0967 42.4537 48.1411 42.3925 48.1411C42.3313 48.1411 42.1914 48.2474 42.0777 48.3893C41.9641 48.5223 41.8941 48.5666 41.9291 48.4957C41.9641 48.4248 41.8766 48.4779 41.7542 48.6287C41.6231 48.7705 41.5444 48.8326 41.5794 48.7616C41.6143 48.6819 41.5794 48.6996 41.5094 48.7882C41.4307 48.8769 41.352 48.9478 41.3258 48.9478C41.2296 48.9301 40.3553 49.4088 40.2941 49.5063C40.2591 49.5595 40.163 49.6039 40.0668 49.6127C39.8132 49.6305 39.2624 49.8344 39.2624 49.9142C39.2624 49.9496 39.21 49.9762 39.1575 49.9674C38.9564 49.9496 37.8635 50.2067 37.8635 50.2776C37.8635 50.3131 37.7848 50.322 37.6974 50.2954C37.61 50.2688 37.4526 50.2954 37.3477 50.3486C37.1641 50.455 37.1641 50.4727 37.1641 55.1005L37.1728 59.7549H37.4264C37.9247 59.7549 40.2679 59.4712 40.2941 59.4091C40.3029 59.3737 40.4515 59.3559 40.6176 59.3648C40.7837 59.3825 40.9411 59.3559 40.9673 59.3116C40.9936 59.2673 41.0635 59.2495 41.1335 59.2761C41.3433 59.3559 44.893 58.5048 45.0329 58.3453C45.0591 58.3187 45.1291 58.2921 45.1903 58.2832C45.5225 58.2566 45.5662 58.2389 45.5138 58.168C45.4876 58.1236 45.5138 58.0527 45.5662 58.0172C45.6362 57.9818 45.6449 57.9906 45.61 58.0527C45.54 58.168 45.7499 58.2034 45.8548 58.097C45.881 58.0616 45.9772 58.0261 46.0471 58.0172C46.3094 57.9729 47.5684 57.4321 47.5684 57.3523C47.5684 57.308 47.6296 57.308 47.7171 57.3346C47.822 57.3789 47.8395 57.3612 47.787 57.2725C47.7346 57.1839 47.752 57.1662 47.857 57.2105C47.9444 57.2371 48.0056 57.2282 48.0056 57.175C48.0056 57.1218 48.0406 57.1041 48.0755 57.1307C48.1542 57.175 49.1597 56.6785 49.2384 56.5456C49.2646 56.5012 49.3171 56.4658 49.352 56.4658C49.5269 56.4924 49.5794 56.4658 49.5269 56.3683C49.4919 56.3062 49.5007 56.2973 49.5619 56.3328C49.6843 56.4037 50.1214 56.1909 50.375 55.9161C50.4799 55.8097 50.5324 55.7743 50.4974 55.8452C50.4187 55.987 51.4154 55.3665 51.5553 55.1803C51.6078 55.1094 51.6952 55.0562 51.7477 55.0562C51.7914 55.0562 51.8526 54.9941 51.8876 54.9232C51.9138 54.8523 51.9837 54.7991 52.0449 54.8079C52.1061 54.8257 52.1499 54.7813 52.1411 54.7193C52.1236 54.6661 52.1586 54.604 52.2023 54.604C52.2548 54.5952 52.3335 54.5863 52.3859 54.5774C52.4384 54.5774 52.5346 54.4888 52.6045 54.4001C52.6744 54.3026 52.7269 54.2583 52.7269 54.3026C52.7269 54.4267 52.9455 54.1785 52.9455 54.0544C52.9455 53.9923 53.0154 53.9568 53.0941 53.9746C53.1728 53.9834 53.3127 53.8948 53.4089 53.7795C53.505 53.6554 53.6012 53.5756 53.6187 53.6022C53.6449 53.6288 53.7673 53.5224 53.8897 53.3717C54.0121 53.2299 54.1608 53.1057 54.2132 53.1057C54.2657 53.1057 54.2919 53.0792 54.2744 53.0348C54.2307 52.9639 54.4318 52.7423 54.493 52.7955C54.5105 52.8221 54.6854 52.6713 54.8777 52.4674C55.0613 52.2635 55.14 52.1483 55.0438 52.2192C54.8777 52.3433 54.8777 52.3433 54.9914 52.1926C55.0613 52.1128 55.1313 52.0596 55.1575 52.0862C55.21 52.1394 55.6996 51.6873 55.6996 51.5809C55.6996 51.5454 55.8657 51.3504 56.0755 51.1465C56.2766 50.9514 56.3815 50.8096 56.3116 50.845C56.2417 50.8805 56.3029 50.8007 56.4515 50.6589C56.8274 50.2865 57.1947 49.8344 56.9673 50.0028C56.8712 50.0737 57.0023 49.923 57.2559 49.6571C57.5094 49.3911 57.7018 49.134 57.693 49.0719C57.6755 49.0187 57.7979 48.8414 57.9553 48.6819C58.104 48.5223 58.2176 48.3538 58.1826 48.3095C58.1564 48.2652 58.1739 48.2297 58.2176 48.2297C58.305 48.2297 58.5673 47.8751 58.6023 47.6889C58.6198 47.6357 58.716 47.485 58.8209 47.3609C58.9346 47.2456 58.9958 47.1127 58.9783 47.0772C58.952 47.0329 58.9608 46.9885 59.0045 46.9708C59.1444 46.9088 59.4679 46.2793 59.4067 46.1818C59.3717 46.1197 59.3805 46.102 59.4329 46.1286C59.5203 46.1818 59.7652 45.774 59.7389 45.6321C59.7302 45.5967 59.7652 45.5701 59.8176 45.5701C59.8613 45.5701 59.8876 45.5346 59.8613 45.4903C59.8264 45.4459 59.8438 45.3927 59.8876 45.375C60.0187 45.3307 60.858 43.4335 60.7968 43.3271C60.7706 43.2828 60.7794 43.265 60.8318 43.2916C60.9105 43.3448 61.1466 42.7863 61.1203 42.609C61.1116 42.5646 61.1378 42.5026 61.1815 42.476C61.304 42.3873 61.4788 41.9263 61.4264 41.8377C61.3914 41.7934 61.4089 41.7579 61.4613 41.7579C61.5662 41.7579 62.0034 40.4281 61.9335 40.3128C61.9072 40.2685 61.9247 40.2507 61.9684 40.2773C62.0821 40.3483 62.2045 39.9316 62.1171 39.7897C62.0821 39.7277 62.0908 39.7188 62.152 39.7543C62.2132 39.7897 62.257 39.7897 62.257 39.7631C62.257 39.7277 62.4318 39.0805 62.6504 38.3269C63.1488 36.607 63.6733 34.3197 63.6209 34.1069C63.6034 34.0272 63.6209 33.974 63.6559 34.0006C63.6908 34.0272 63.752 33.8321 63.7958 33.5839C63.8744 32.981 63.8919 32.8835 64.0493 32.0945C64.128 31.731 64.1717 31.3498 64.1455 31.2611C64.1193 31.1636 64.1455 31.0306 64.1979 30.9686C64.2504 30.9065 64.2679 30.7558 64.2504 30.6317C64.2242 30.5164 64.2329 30.4012 64.2766 30.3923C64.3553 30.3657 64.469 29.3728 64.4777 28.699C64.4865 28.4685 64.5127 28.2823 64.5389 28.2823C64.5826 28.2823 64.7662 26.5092 64.7837 25.9329C64.7837 25.8354 64.8274 25.339 64.8712 24.8248C65.0723 22.6793 65.1422 18.681 65.1422 9.97502V0.754883H51.1531H37.1641V14.8776Z"/>
</mask>
<path d="M37.1641 14.8776V29.0004L42.9608 28.9915L48.7488 28.9827L48.775 29.4526C48.7925 29.7097 48.7488 30.543 48.6701 31.2966C48.6001 32.0501 48.5389 32.7328 48.5302 32.8037C48.434 34.0981 47.9094 37.006 47.4373 38.8145C47.3149 39.2755 47.2362 39.6834 47.2712 39.7277C47.2974 39.772 47.2712 39.8075 47.2274 39.8075C47.175 39.8075 47.14 39.8341 47.1488 39.8695C47.1488 39.9139 47.14 40.0025 47.1138 40.0734C46.7641 41.0309 46.7029 41.2526 46.7466 41.3235C46.7728 41.3678 46.7553 41.4033 46.7203 41.4033C46.6242 41.4033 46.4231 41.9352 46.4843 42.0327C46.5105 42.077 46.4843 42.1125 46.4318 42.1125C46.3706 42.1125 46.3444 42.1746 46.3794 42.2455C46.4056 42.3164 46.3968 42.3785 46.3619 42.3785C46.2832 42.3785 45.5925 43.8945 45.6274 43.992C45.6362 44.0363 45.61 44.0629 45.5662 44.0629C45.4526 44.0629 45.0329 44.914 45.1029 44.9938C45.1378 45.0381 45.1203 45.0381 45.0679 45.0115C44.9805 44.9583 44.7531 45.313 44.7356 45.508C44.7269 45.5523 44.657 45.6321 44.5783 45.6942C44.4908 45.7562 44.4471 45.836 44.4821 45.8626C44.5083 45.8981 44.4908 45.9247 44.4296 45.9247C44.3684 45.9247 44.3509 45.969 44.3859 46.0311C44.4209 46.0931 44.4121 46.102 44.3509 46.0665C44.2285 45.9956 44.0362 46.3325 44.1236 46.4743C44.1673 46.5364 44.1499 46.5453 44.0799 46.5098C43.9488 46.4211 43.328 47.1393 43.3367 47.3609C43.3455 47.4495 43.3105 47.4939 43.2755 47.4673C43.2318 47.4407 43.2231 47.3698 43.2581 47.3166C43.2843 47.2545 43.2318 47.29 43.1269 47.3786C42.9695 47.5205 42.952 47.5737 43.0482 47.6889C43.1356 47.813 43.1356 47.813 43.0132 47.7244C42.8996 47.6269 42.8471 47.6357 42.7247 47.7687C42.646 47.8574 42.6111 47.9637 42.646 48.0081C42.6897 48.0435 42.6635 48.0524 42.6111 48.0169C42.5499 47.9815 42.4974 47.9992 42.4974 48.0435C42.4974 48.0967 42.4537 48.1411 42.3925 48.1411C42.3313 48.1411 42.1914 48.2474 42.0777 48.3893C41.9641 48.5223 41.8941 48.5666 41.9291 48.4957C41.9641 48.4248 41.8766 48.4779 41.7542 48.6287C41.6231 48.7705 41.5444 48.8326 41.5794 48.7616C41.6143 48.6819 41.5794 48.6996 41.5094 48.7882C41.4307 48.8769 41.352 48.9478 41.3258 48.9478C41.2296 48.9301 40.3553 49.4088 40.2941 49.5063C40.2591 49.5595 40.163 49.6039 40.0668 49.6127C39.8132 49.6305 39.2624 49.8344 39.2624 49.9142C39.2624 49.9496 39.21 49.9762 39.1575 49.9674C38.9564 49.9496 37.8635 50.2067 37.8635 50.2776C37.8635 50.3131 37.7848 50.322 37.6974 50.2954C37.61 50.2688 37.4526 50.2954 37.3477 50.3486C37.1641 50.455 37.1641 50.4727 37.1641 55.1005L37.1728 59.7549H37.4264C37.9247 59.7549 40.2679 59.4712 40.2941 59.4091C40.3029 59.3737 40.4515 59.3559 40.6176 59.3648C40.7837 59.3825 40.9411 59.3559 40.9673 59.3116C40.9936 59.2673 41.0635 59.2495 41.1335 59.2761C41.3433 59.3559 44.893 58.5048 45.0329 58.3453C45.0591 58.3187 45.1291 58.2921 45.1903 58.2832C45.5225 58.2566 45.5662 58.2389 45.5138 58.168C45.4876 58.1236 45.5138 58.0527 45.5662 58.0172C45.6362 57.9818 45.6449 57.9906 45.61 58.0527C45.54 58.168 45.7499 58.2034 45.8548 58.097C45.881 58.0616 45.9772 58.0261 46.0471 58.0172C46.3094 57.9729 47.5684 57.4321 47.5684 57.3523C47.5684 57.308 47.6296 57.308 47.7171 57.3346C47.822 57.3789 47.8395 57.3612 47.787 57.2725C47.7346 57.1839 47.752 57.1662 47.857 57.2105C47.9444 57.2371 48.0056 57.2282 48.0056 57.175C48.0056 57.1218 48.0406 57.1041 48.0755 57.1307C48.1542 57.175 49.1597 56.6785 49.2384 56.5456C49.2646 56.5012 49.3171 56.4658 49.352 56.4658C49.5269 56.4924 49.5794 56.4658 49.5269 56.3683C49.4919 56.3062 49.5007 56.2973 49.5619 56.3328C49.6843 56.4037 50.1214 56.1909 50.375 55.9161C50.4799 55.8097 50.5324 55.7743 50.4974 55.8452C50.4187 55.987 51.4154 55.3665 51.5553 55.1803C51.6078 55.1094 51.6952 55.0562 51.7477 55.0562C51.7914 55.0562 51.8526 54.9941 51.8876 54.9232C51.9138 54.8523 51.9837 54.7991 52.0449 54.8079C52.1061 54.8257 52.1499 54.7813 52.1411 54.7193C52.1236 54.6661 52.1586 54.604 52.2023 54.604C52.2548 54.5952 52.3335 54.5863 52.3859 54.5774C52.4384 54.5774 52.5346 54.4888 52.6045 54.4001C52.6744 54.3026 52.7269 54.2583 52.7269 54.3026C52.7269 54.4267 52.9455 54.1785 52.9455 54.0544C52.9455 53.9923 53.0154 53.9568 53.0941 53.9746C53.1728 53.9834 53.3127 53.8948 53.4089 53.7795C53.505 53.6554 53.6012 53.5756 53.6187 53.6022C53.6449 53.6288 53.7673 53.5224 53.8897 53.3717C54.0121 53.2299 54.1608 53.1057 54.2132 53.1057C54.2657 53.1057 54.2919 53.0792 54.2744 53.0348C54.2307 52.9639 54.4318 52.7423 54.493 52.7955C54.5105 52.8221 54.6854 52.6713 54.8777 52.4674C55.0613 52.2635 55.14 52.1483 55.0438 52.2192C54.8777 52.3433 54.8777 52.3433 54.9914 52.1926C55.0613 52.1128 55.1313 52.0596 55.1575 52.0862C55.21 52.1394 55.6996 51.6873 55.6996 51.5809C55.6996 51.5454 55.8657 51.3504 56.0755 51.1465C56.2766 50.9514 56.3815 50.8096 56.3116 50.845C56.2417 50.8805 56.3029 50.8007 56.4515 50.6589C56.8274 50.2865 57.1947 49.8344 56.9673 50.0028C56.8712 50.0737 57.0023 49.923 57.2559 49.6571C57.5094 49.3911 57.7018 49.134 57.693 49.0719C57.6755 49.0187 57.7979 48.8414 57.9553 48.6819C58.104 48.5223 58.2176 48.3538 58.1826 48.3095C58.1564 48.2652 58.1739 48.2297 58.2176 48.2297C58.305 48.2297 58.5673 47.8751 58.6023 47.6889C58.6198 47.6357 58.716 47.485 58.8209 47.3609C58.9346 47.2456 58.9958 47.1127 58.9783 47.0772C58.952 47.0329 58.9608 46.9885 59.0045 46.9708C59.1444 46.9088 59.4679 46.2793 59.4067 46.1818C59.3717 46.1197 59.3805 46.102 59.4329 46.1286C59.5203 46.1818 59.7652 45.774 59.7389 45.6321C59.7302 45.5967 59.7652 45.5701 59.8176 45.5701C59.8613 45.5701 59.8876 45.5346 59.8613 45.4903C59.8264 45.4459 59.8438 45.3927 59.8876 45.375C60.0187 45.3307 60.858 43.4335 60.7968 43.3271C60.7706 43.2828 60.7794 43.265 60.8318 43.2916C60.9105 43.3448 61.1466 42.7863 61.1203 42.609C61.1116 42.5646 61.1378 42.5026 61.1815 42.476C61.304 42.3873 61.4788 41.9263 61.4264 41.8377C61.3914 41.7934 61.4089 41.7579 61.4613 41.7579C61.5662 41.7579 62.0034 40.4281 61.9335 40.3128C61.9072 40.2685 61.9247 40.2507 61.9684 40.2773C62.0821 40.3483 62.2045 39.9316 62.1171 39.7897C62.0821 39.7277 62.0908 39.7188 62.152 39.7543C62.2132 39.7897 62.257 39.7897 62.257 39.7631C62.257 39.7277 62.4318 39.0805 62.6504 38.3269C63.1488 36.607 63.6733 34.3197 63.6209 34.1069C63.6034 34.0272 63.6209 33.974 63.6559 34.0006C63.6908 34.0272 63.752 33.8321 63.7958 33.5839C63.8744 32.981 63.8919 32.8835 64.0493 32.0945C64.128 31.731 64.1717 31.3498 64.1455 31.2611C64.1193 31.1636 64.1455 31.0306 64.1979 30.9686C64.2504 30.9065 64.2679 30.7558 64.2504 30.6317C64.2242 30.5164 64.2329 30.4012 64.2766 30.3923C64.3553 30.3657 64.469 29.3728 64.4777 28.699C64.4865 28.4685 64.5127 28.2823 64.5389 28.2823C64.5826 28.2823 64.7662 26.5092 64.7837 25.9329C64.7837 25.8354 64.8274 25.339 64.8712 24.8248C65.0723 22.6793 65.1422 18.681 65.1422 9.97502V0.754883H51.1531H37.1641V14.8776Z" fill="#0A2A48" stroke="url(#paint1_linear_2583_12645)" stroke-opacity="0.5" mask="url(#path-2-inside-2_2583_12645)"/>
<defs>
<linearGradient id="paint0_linear_2583_12645" x1="15.1384" y1="59.7549" x2="15.1384" y2="0.754883" gradientUnits="userSpaceOnUse">
<stop stop-color="#FFC267"/>
<stop offset="1" stop-color="#99753E"/>
</linearGradient>
<linearGradient id="paint1_linear_2583_12645" x1="51.1531" y1="59.7549" x2="51.1531" y2="0.754883" gradientUnits="userSpaceOnUse">
<stop stop-color="#FFC267"/>
<stop offset="1" stop-color="#99753E"/>
</linearGradient>
</defs>
</svg>
