<svg width="60" height="55" viewBox="0 0 60 55" fill="none" xmlns="http://www.w3.org/2000/svg">
<path d="M0.636719 13.4222V26.3481H6.00476C10.0348 26.3481 11.3486 26.3238 11.3083 26.2507C11.2761 26.2021 11.2841 26.1858 11.3244 26.2102C11.3728 26.2345 11.3567 26.7376 11.2922 27.5003C11.2358 28.1819 11.1794 29.042 11.1713 29.4072C11.1632 29.7642 11.1229 30.0239 11.0907 29.9752C11.0504 29.9184 11.0343 30.032 11.0504 30.2186C11.0665 30.4133 11.0585 30.5675 11.0343 30.5675C10.9537 30.5675 10.8005 31.9063 10.8489 32.1092C10.8811 32.2228 10.865 32.2796 10.8247 32.2471C10.7602 32.2147 10.5023 33.3912 10.4298 34.0485C10.4217 34.1215 10.3895 34.2351 10.3653 34.3C10.2927 34.511 10.1154 35.2169 10.1074 35.3468C10.1074 35.4198 10.0751 35.5172 10.0509 35.5577C10.0106 35.6308 9.88168 36.1095 9.8575 36.288C9.8575 36.3286 9.82526 36.4341 9.79302 36.5071C9.76078 36.5801 9.76078 36.6856 9.79302 36.7424C9.82526 36.7992 9.8172 36.8154 9.76078 36.783C9.71242 36.7586 9.64794 36.8398 9.6157 36.9939C9.5351 37.3429 9.54316 37.3104 9.44644 37.5457C9.25299 37.992 9.00313 38.6492 8.98701 38.7223C8.97895 38.7628 8.92253 38.8846 8.87417 38.99C8.81775 39.0874 8.79357 39.2172 8.82581 39.2659C8.85805 39.3146 8.84999 39.3308 8.80163 39.3065C8.7049 39.2497 8.51146 39.6311 8.57594 39.7447C8.60818 39.7852 8.59206 39.8177 8.5437 39.8177C8.4228 39.8177 8.11652 40.4506 8.181 40.5642C8.21324 40.6129 8.20518 40.6291 8.15682 40.6048C8.10846 40.5723 8.00367 40.6859 7.92307 40.8563C7.84247 41.0186 7.74575 41.1646 7.71351 41.1809C7.67321 41.1971 7.64903 41.2864 7.64903 41.3756C7.64903 41.473 7.62485 41.5217 7.60067 41.4973C7.55231 41.4486 7.09288 41.9842 7.08482 42.0978C7.08482 42.1221 6.93974 42.3006 6.76241 42.4954C6.58509 42.682 6.46419 42.8767 6.48837 42.9173C6.51255 42.9579 6.48837 42.9741 6.42389 42.966C6.36747 42.9498 6.32717 42.9903 6.33523 43.039C6.35135 43.0958 6.31105 43.1364 6.25463 43.1202C6.20627 43.1121 6.16597 43.1526 6.18209 43.2094C6.19015 43.2743 6.16597 43.2987 6.13372 43.2743C6.037 43.2175 5.77908 43.5015 5.85162 43.5827C5.89192 43.6151 5.85968 43.6314 5.7952 43.6151C5.73072 43.5989 5.68236 43.6395 5.69848 43.6963C5.70654 43.7612 5.69042 43.7855 5.65012 43.7612C5.54534 43.6963 5.22293 43.9559 5.27935 44.0533C5.31159 44.102 5.30353 44.1182 5.25517 44.0939C5.15039 44.029 4.73126 44.313 4.8038 44.4022C4.8441 44.4347 4.82798 44.4428 4.77156 44.4103C4.71514 44.3779 4.6023 44.4266 4.50558 44.5239C4.41692 44.6132 4.34438 44.6619 4.34438 44.6213C4.34438 44.5888 4.30408 44.6294 4.25572 44.7106C4.20735 44.7836 4.14287 44.8323 4.09451 44.8079C4.05421 44.7755 4.02197 44.7917 4.02197 44.8323C4.02197 44.8728 3.97361 44.9053 3.92525 44.9053C3.86883 44.9053 3.58672 45.0189 3.29656 45.1487C3.0064 45.2867 2.65175 45.4246 2.51473 45.4571C2.36965 45.4814 2.24874 45.5463 2.24874 45.5869C2.24874 45.6356 2.2165 45.6518 2.18426 45.6275C2.14396 45.6031 1.99082 45.6193 1.83768 45.6599C1.68454 45.7005 1.35407 45.7735 1.10421 45.8222L0.636719 45.9115V50.212V54.5044H0.862402C1.57975 54.5044 5.03755 54.0257 5.39219 53.8796C5.45667 53.8553 5.634 53.8228 5.77102 53.7985C5.9161 53.7822 6.33523 53.6767 6.69793 53.5631C7.55231 53.3035 7.57649 53.3035 7.76993 53.2954C7.90695 53.2873 7.91501 53.271 7.81023 53.198C7.71351 53.1331 7.72157 53.125 7.85859 53.1656C8.06815 53.2224 8.30996 53.1331 8.24548 53.0276C8.21324 52.9789 8.2616 52.9708 8.37444 53.0033C8.5034 53.0438 8.53564 53.0357 8.49534 52.9627C8.45504 52.8897 8.47922 52.8816 8.60818 52.9221C8.69684 52.9465 8.77745 52.9384 8.77745 52.8978C8.77745 52.8572 8.85805 52.8166 8.96283 52.8166C9.16433 52.8166 10.0026 52.484 10.0751 52.3704C10.0993 52.3298 10.1477 52.3054 10.1799 52.3054C10.3572 52.3298 10.4781 52.2973 10.5829 52.1837C10.6555 52.1188 10.7119 52.0782 10.7119 52.1026C10.7119 52.1756 11.8725 51.5752 11.937 51.4697C11.9693 51.421 12.0015 51.4129 12.0015 51.4453C12.0015 51.4778 12.074 51.4697 12.1627 51.421C12.2514 51.3723 12.3078 51.2912 12.2755 51.2425C12.2433 51.1938 12.2675 51.1695 12.332 51.1938C12.477 51.2506 12.8881 51.0396 12.8881 50.9179C12.8881 50.8692 12.9123 50.853 12.9365 50.8773C13.0251 50.9666 13.2992 50.7719 13.275 50.6339C13.2589 50.5609 13.3072 50.4879 13.3717 50.4716C13.4684 50.4392 13.4684 50.4473 13.3798 50.5122C13.3234 50.5528 13.3072 50.6096 13.3475 50.6339C13.4201 50.6826 13.7102 50.496 13.6538 50.4311C13.6296 50.4148 13.6619 50.3905 13.7183 50.3905C13.8876 50.3905 14.2583 50.1065 14.2019 50.0172C14.1777 49.9686 14.1939 49.9604 14.2503 49.9929C14.3067 50.0335 14.4437 49.9361 14.5969 49.7657C14.7339 49.6034 14.9112 49.4736 14.9837 49.4736C15.0563 49.4736 15.2981 49.3032 15.5157 49.0922C15.7333 48.8813 15.951 48.7027 15.9913 48.7027C16.0396 48.6946 16.0638 48.6459 16.0477 48.5891C16.0396 48.5323 16.0638 48.508 16.1041 48.5323C16.1444 48.5648 16.2572 48.4837 16.354 48.3619C16.4507 48.2321 16.6038 48.0942 16.7006 48.0374C16.7973 47.9806 16.8295 47.94 16.7731 47.9319C16.6925 47.9319 16.6925 47.9075 16.7731 47.8183C16.8456 47.7372 16.894 47.729 16.9343 47.8021C16.9746 47.8589 16.9988 47.8508 16.9988 47.7615C16.9988 47.6885 17.0794 47.5668 17.1761 47.4775C17.2728 47.3964 17.3212 47.372 17.2889 47.4207C17.2567 47.4775 17.2567 47.5262 17.2809 47.5262C17.3051 47.5262 17.3695 47.4207 17.4098 47.2828C17.4582 47.1529 17.5227 47.0556 17.5469 47.0637C17.6597 47.0961 18.1272 46.6012 18.1272 46.4551C18.1272 46.374 18.1756 46.3172 18.232 46.3334C18.2803 46.3415 18.3206 46.3009 18.3045 46.2441C18.2965 46.1792 18.3206 46.1549 18.369 46.1873C18.4254 46.2198 18.4818 46.1711 18.506 46.0737C18.5302 45.9764 18.5786 45.9033 18.6189 45.9033C18.6511 45.9033 18.8526 45.6761 19.0622 45.4003C19.2798 45.1244 19.3926 44.9296 19.3362 44.9702C19.2717 45.0108 19.3523 44.9053 19.5216 44.743C19.6909 44.5726 19.8037 44.4022 19.7795 44.3616C19.7553 44.3211 19.7876 44.2643 19.8521 44.2237C19.981 44.1426 20.5775 43.2257 20.4888 43.2257C20.4566 43.2257 20.5049 43.1689 20.5936 43.0958C20.6742 43.0309 20.6903 42.9903 20.6258 43.0228C20.5533 43.0553 20.5694 43.0228 20.6581 42.9498C20.7387 42.8849 20.779 42.7875 20.7467 42.7388C20.7226 42.6901 20.7387 42.6658 20.7951 42.6739C20.916 42.7063 22.1653 40.3127 22.117 40.1585C22.0928 40.1017 22.1089 40.0692 22.1492 40.0936C22.2379 40.1504 22.3185 39.9556 22.3185 39.6879C22.3185 39.5743 22.3507 39.5012 22.391 39.5256C22.4555 39.5662 22.7295 38.9982 22.7698 38.7385C22.7779 38.706 22.794 38.6574 22.8021 38.6168C22.8101 38.5843 22.8182 38.5356 22.8101 38.4951C22.8101 38.4626 22.8343 38.4383 22.8746 38.4383C22.931 38.4383 23.0519 38.1462 23.0761 37.9352C23.0842 37.9109 23.1083 37.8541 23.1406 37.8216C23.2454 37.7242 23.2131 37.5295 23.1083 37.5944C23.0519 37.6269 23.0439 37.6187 23.0761 37.5538C23.1083 37.5051 23.1648 37.4808 23.2051 37.5051C23.2937 37.5619 23.4469 37.0832 23.3905 36.9209C23.3582 36.8398 23.3743 36.8073 23.4227 36.8398C23.4872 36.8804 23.7129 36.3205 23.8096 35.8823C23.8176 35.8417 23.8499 35.7362 23.8821 35.6632C23.9144 35.5902 23.9224 35.4847 23.8902 35.436C23.866 35.3955 23.8741 35.3549 23.9144 35.3549C24.1078 35.3549 25.1798 30.8921 25.0831 30.5026C25.0589 30.3809 25.067 30.316 25.1153 30.3484C25.2201 30.4133 25.3974 29.4234 25.3329 29.1313C25.3088 28.9852 25.3168 28.9447 25.3571 29.0096C25.47 29.1637 25.8891 26.0722 26.1067 23.4676C26.3243 20.798 26.3646 18.9642 26.4049 10.0386L26.4452 0.504395H13.541H0.636719V13.4222Z" fill="#F1F1F1"/>
<path d="M33.8444 13.4303V26.3562L39.1882 26.3481L44.524 26.34L44.5482 26.7701C44.5643 27.0054 44.524 27.7681 44.4515 28.4578C44.387 29.1475 44.3306 29.7723 44.3225 29.8372C44.2339 31.0219 43.7503 33.6834 43.315 35.3387C43.2022 35.7606 43.1296 36.1338 43.1619 36.1744C43.186 36.215 43.1619 36.2474 43.1216 36.2474C43.0732 36.2474 43.041 36.2718 43.049 36.3042C43.049 36.3448 43.041 36.426 43.0168 36.4909C42.6944 37.3672 42.638 37.5701 42.6783 37.635C42.7024 37.6755 42.6863 37.708 42.6541 37.708C42.5654 37.708 42.38 38.1949 42.4365 38.2841C42.4606 38.3247 42.4365 38.3571 42.3881 38.3571C42.3317 38.3571 42.3075 38.4139 42.3397 38.4788C42.3639 38.5438 42.3559 38.6006 42.3236 38.6006C42.2511 38.6006 41.6143 39.9881 41.6466 40.0773C41.6546 40.1179 41.6304 40.1423 41.5901 40.1423C41.4854 40.1423 41.0985 40.9212 41.163 40.9943C41.1952 41.0348 41.1791 41.0348 41.1307 41.0105C41.0501 40.9618 40.8405 41.2864 40.8244 41.4649C40.8164 41.5054 40.7519 41.5785 40.6793 41.6353C40.5987 41.6921 40.5584 41.7651 40.5907 41.7894C40.6149 41.8219 40.5987 41.8462 40.5423 41.8462C40.4859 41.8462 40.4698 41.8868 40.502 41.9436C40.5343 42.0004 40.5262 42.0085 40.4698 41.9761C40.3569 41.9112 40.1796 42.2195 40.2602 42.3493C40.3005 42.4061 40.2844 42.4142 40.2199 42.3818C40.099 42.3006 39.5267 42.9579 39.5348 43.1607C39.5429 43.2419 39.5106 43.2825 39.4784 43.2581C39.4381 43.2338 39.43 43.1689 39.4623 43.1202C39.4864 43.0634 39.4381 43.0958 39.3414 43.177C39.1963 43.3068 39.1802 43.3555 39.2688 43.461C39.3494 43.5746 39.3494 43.5746 39.2366 43.4934C39.1318 43.4042 39.0834 43.4123 38.9706 43.534C38.8981 43.6151 38.8658 43.7125 38.8981 43.7531C38.9384 43.7855 38.9142 43.7937 38.8658 43.7612C38.8094 43.7287 38.761 43.745 38.761 43.7855C38.761 43.8342 38.7207 43.8748 38.6643 43.8748C38.6079 43.8748 38.4789 43.9722 38.3741 44.102C38.2694 44.2237 38.2049 44.2643 38.2371 44.1994C38.2694 44.1344 38.1888 44.1831 38.0759 44.3211C37.955 44.4509 37.8825 44.5077 37.9147 44.4428C37.947 44.3698 37.9147 44.386 37.8502 44.4671C37.7777 44.5483 37.7052 44.6132 37.681 44.6132C37.5923 44.597 36.7863 45.0351 36.7299 45.1244C36.6976 45.1731 36.609 45.2136 36.5203 45.2217C36.2866 45.238 35.7788 45.4246 35.7788 45.4976C35.7788 45.5301 35.7304 45.5544 35.6821 45.5463C35.4967 45.5301 34.4892 45.7654 34.4892 45.8303C34.4892 45.8628 34.4166 45.8709 34.336 45.8465C34.2554 45.8222 34.1103 45.8465 34.0136 45.8952C33.8444 45.9926 33.8444 46.0088 33.8444 50.2444L33.8524 54.5044H34.0862C34.5456 54.5044 36.7057 54.2447 36.7299 54.1879C36.7379 54.1555 36.875 54.1393 37.0281 54.1474C37.1813 54.1636 37.3263 54.1393 37.3505 54.0987C37.3747 54.0581 37.4392 54.0419 37.5037 54.0662C37.6971 54.1393 40.9695 53.3603 41.0985 53.2142C41.1227 53.1899 41.1871 53.1656 41.2436 53.1574C41.5498 53.1331 41.5901 53.1169 41.5418 53.052C41.5176 53.0114 41.5418 52.9465 41.5901 52.914C41.6546 52.8816 41.6627 52.8897 41.6304 52.9465C41.566 53.052 41.7594 53.0844 41.8561 52.987C41.8803 52.9546 41.969 52.9221 42.0334 52.914C42.2752 52.8734 43.4359 52.3785 43.4359 52.3054C43.4359 52.2649 43.4923 52.2649 43.5729 52.2892C43.6697 52.3298 43.6858 52.3136 43.6374 52.2324C43.5891 52.1513 43.6052 52.135 43.7019 52.1756C43.7825 52.2 43.8389 52.1918 43.8389 52.1432C43.8389 52.0945 43.8712 52.0782 43.9034 52.1026C43.9759 52.1432 44.9029 51.6888 44.9754 51.5671C44.9996 51.5265 45.0479 51.494 45.0802 51.494C45.2414 51.5184 45.2897 51.494 45.2414 51.4048C45.2091 51.348 45.2172 51.3399 45.2736 51.3723C45.3865 51.4372 45.7895 51.2425 46.0232 50.9909C46.1199 50.8936 46.1683 50.8611 46.136 50.926C46.0635 51.0559 46.9824 50.4879 47.1113 50.3175C47.1597 50.2526 47.2403 50.2039 47.2886 50.2039C47.3289 50.2039 47.3854 50.1471 47.4176 50.0822C47.4418 50.0172 47.5063 49.9686 47.5627 49.9767C47.6191 49.9929 47.6594 49.9523 47.6514 49.8955C47.6352 49.8468 47.6675 49.79 47.7078 49.79C47.7561 49.7819 47.8287 49.7738 47.877 49.7657C47.9254 49.7657 48.0141 49.6846 48.0785 49.6034C48.143 49.5142 48.1914 49.4736 48.1914 49.5142C48.1914 49.6278 48.3929 49.4006 48.3929 49.287C48.3929 49.2302 48.4574 49.1977 48.5299 49.2139C48.6024 49.2221 48.7314 49.1409 48.8201 49.0354C48.9087 48.9218 48.9974 48.8488 49.0135 48.8731C49.0377 48.8975 49.1505 48.8001 49.2634 48.6622C49.3762 48.5323 49.5132 48.4187 49.5616 48.4187C49.61 48.4187 49.6341 48.3944 49.618 48.3538C49.5777 48.2889 49.7631 48.0861 49.8195 48.1347C49.8356 48.1591 49.9968 48.0211 50.1742 47.8345C50.3434 47.6479 50.416 47.5424 50.3273 47.6073C50.1742 47.7209 50.1742 47.7209 50.279 47.583C50.3434 47.51 50.4079 47.4613 50.4321 47.4856C50.4805 47.5343 50.9318 47.1205 50.9318 47.0231C50.9318 46.9906 51.085 46.8121 51.2784 46.6255C51.4638 46.447 51.5605 46.3172 51.496 46.3496C51.4316 46.3821 51.488 46.3091 51.625 46.1792C51.9716 45.8384 52.3101 45.4246 52.1005 45.5788C52.0119 45.6437 52.1328 45.5057 52.3665 45.2623C52.6003 45.0189 52.7776 44.7836 52.7695 44.7268C52.7534 44.6781 52.8663 44.5158 53.0113 44.3698C53.1484 44.2237 53.2531 44.0695 53.2209 44.029C53.1967 43.9884 53.2128 43.9559 53.2531 43.9559C53.3337 43.9559 53.5755 43.6314 53.6078 43.461C53.6239 43.4123 53.7126 43.2743 53.8093 43.1607C53.9141 43.0553 53.9705 42.9335 53.9544 42.9011C53.9302 42.8605 53.9382 42.8199 53.9785 42.8037C54.1075 42.7469 54.4057 42.1708 54.3493 42.0816C54.3171 42.0248 54.3251 42.0085 54.3735 42.0329C54.4541 42.0816 54.6798 41.7083 54.6556 41.5785C54.6475 41.546 54.6798 41.5217 54.7281 41.5217C54.7684 41.5217 54.7926 41.4892 54.7684 41.4486C54.7362 41.4081 54.7523 41.3594 54.7926 41.3432C54.9135 41.3026 55.6873 39.5662 55.6309 39.4688C55.6067 39.4282 55.6148 39.412 55.6631 39.4363C55.7357 39.485 55.9533 38.9738 55.9291 38.8115C55.921 38.771 55.9452 38.7142 55.9855 38.6898C56.0984 38.6087 56.2596 38.1867 56.2112 38.1056C56.179 38.065 56.1951 38.0326 56.2434 38.0326C56.3402 38.0326 56.7432 36.8154 56.6787 36.71C56.6545 36.6694 56.6706 36.6532 56.7109 36.6775C56.8157 36.7424 56.9286 36.361 56.848 36.2312C56.8157 36.1744 56.8238 36.1663 56.8802 36.1988C56.9366 36.2312 56.9769 36.2312 56.9769 36.2069C56.9769 36.1744 57.1381 35.5821 57.3396 34.8924C57.799 33.3182 58.2827 31.2248 58.2343 31.03C58.2182 30.957 58.2343 30.9083 58.2665 30.9326C58.2988 30.957 58.3552 30.7785 58.3955 30.5513C58.468 29.9995 58.4842 29.9103 58.6292 29.1881C58.7018 28.8554 58.7421 28.5065 58.7179 28.4254C58.6937 28.3361 58.7179 28.2144 58.7663 28.1576C58.8146 28.1008 58.8307 27.9628 58.8146 27.8492C58.7904 27.7438 58.7985 27.6383 58.8388 27.6302C58.9113 27.6058 59.0161 26.697 59.0242 26.0804C59.0322 25.8694 59.0564 25.699 59.0806 25.699C59.1209 25.699 59.2902 24.0761 59.3063 23.5487C59.3063 23.4595 59.3466 23.0051 59.3869 22.5344C59.5723 20.5708 59.6368 16.9113 59.6368 8.94316V0.504395H46.7406H33.8444V13.4303Z" fill="#F1F1F1"/>
</svg>
