<svg width="25" height="25" viewBox="0 0 25 25" fill="none" xmlns="http://www.w3.org/2000/svg">
<path d="M3.68519 3.08865C3.19209 3.14938 2.76943 3.34127 2.42937 3.66677C2.11845 3.95825 1.93141 4.2716 1.80996 4.69182L1.75409 4.88372V12.5109V20.1382L1.8221 20.3519C1.93627 20.7163 2.08444 20.9738 2.32249 21.2288C2.6917 21.6175 3.13622 21.8385 3.66818 21.8992C3.82121 21.9187 6.64134 21.9235 12.6119 21.9187C21.0092 21.9114 21.3395 21.9089 21.5023 21.8652C21.9079 21.7583 22.1824 21.6077 22.4666 21.343C22.7775 21.0515 22.9573 20.7649 23.086 20.3519L23.154 20.1382V12.4988V4.85943L23.086 4.64567C22.9573 4.23273 22.7848 3.95582 22.4812 3.66919C22.1071 3.31698 21.7233 3.14695 21.1695 3.08622C20.9922 3.06679 20.606 3.11294 20.3995 3.1761C19.5882 3.42629 18.9906 4.14772 18.8983 4.98331L18.8789 5.15092H12.4541H6.02922L6.00979 4.98331C5.95878 4.51936 5.75231 4.0797 5.42439 3.73478C5.18148 3.47973 4.76611 3.23925 4.41147 3.14938C4.22443 3.1008 3.84307 3.06922 3.68519 3.08865ZM4.28759 3.7445C4.67138 3.84409 5.05274 4.15015 5.23735 4.50236C5.44139 4.89586 5.42196 4.15743 5.42924 11.6171C5.43167 15.2679 5.42924 18.2556 5.41953 18.2556C5.41224 18.2556 5.35637 18.2119 5.29565 18.1585C5.05031 17.9447 4.76125 17.7893 4.42119 17.6921C4.16614 17.6192 3.66332 17.6144 3.3937 17.6824C3.06578 17.7626 2.66984 17.9739 2.43908 18.1925C2.40265 18.2265 2.36621 18.2556 2.35892 18.2556C2.35407 18.2556 2.34921 15.2898 2.34921 11.6656C2.34921 4.3299 2.33706 4.91044 2.52167 4.53151C2.5994 4.37362 2.66741 4.28374 2.8083 4.14286C3.20666 3.74692 3.74348 3.60361 4.28759 3.7445ZM21.4586 3.75664C21.8618 3.88052 22.2067 4.16715 22.3865 4.53394C22.5711 4.91044 22.5589 4.33232 22.5589 11.6656C22.5589 15.2898 22.5541 18.2556 22.5492 18.2556C22.5419 18.2556 22.5006 18.2216 22.4569 18.1803C22.265 18.0006 21.9419 17.816 21.6602 17.7261C20.9655 17.5002 20.1712 17.6678 19.6125 18.1585C19.5517 18.2119 19.4959 18.2556 19.4886 18.2556C19.4789 18.2556 19.4764 15.2679 19.4789 11.6171C19.4862 4.15257 19.4667 4.89829 19.6732 4.49993C20.0011 3.86838 20.7736 3.54774 21.4586 3.75664ZM18.8716 12.9166L18.8789 20.0653L18.9445 20.3009C19.0271 20.5997 19.1922 20.9227 19.3793 21.1438L19.5226 21.3163H12.4662C8.58458 21.3163 5.40981 21.3114 5.40981 21.3041C5.40981 21.2968 5.47054 21.2191 5.54341 21.1292C5.69644 20.9398 5.90048 20.5462 5.95635 20.3349C5.97578 20.2548 6.0025 20.1017 6.01707 19.9948C6.03165 19.8685 6.04137 17.3593 6.04137 12.7854V5.77032H12.4541H18.8668L18.8716 12.9166ZM4.20743 18.2678C5.00416 18.4354 5.54098 19.2297 5.4001 20.0289C5.23492 20.9616 4.27544 21.5276 3.38641 21.2215C3.15808 21.1414 2.98076 21.0272 2.79858 20.845C2.32977 20.3714 2.22047 19.6912 2.51438 19.0815C2.63098 18.841 2.94432 18.5204 3.17508 18.4062C3.50301 18.2435 3.86251 18.1949 4.20743 18.2678ZM21.376 18.2799C21.6869 18.3577 21.8642 18.4597 22.0974 18.6929C22.3306 18.9261 22.452 19.1398 22.5201 19.4386C22.6974 20.2232 22.231 21.0053 21.4416 21.2458C21.2108 21.3163 20.8489 21.3211 20.6278 21.258C20.0133 21.0758 19.5882 20.59 19.4983 19.9608C19.4303 19.4993 19.593 19.0329 19.9477 18.6783C20.3218 18.3042 20.8732 18.1512 21.376 18.2799Z" fill="white"/>
<path d="M3.26125 4.74794C3.22238 4.77466 3.17623 4.82081 3.15923 4.85239C3.13251 4.89611 3.12765 5.50094 3.12522 7.8304C3.12522 11.0392 3.1155 10.8521 3.27096 10.9323C3.43128 11.0149 3.61346 10.9566 3.69605 10.7987C3.75191 10.6918 3.75191 4.9787 3.69605 4.87182C3.61103 4.70664 3.40942 4.65078 3.26125 4.74794Z" fill="white"/>
<path d="M20.3862 4.75306C20.2429 4.86722 20.2502 4.68262 20.2502 7.82338C20.2502 10.952 20.2429 10.8063 20.3838 10.9156C20.4639 10.9787 20.6072 10.986 20.7117 10.9326C20.8671 10.8524 20.8574 11.0394 20.8574 7.83553C20.8574 4.63161 20.8671 4.81864 20.7117 4.73849C20.6097 4.68505 20.4639 4.69233 20.3862 4.75306Z" fill="white"/>
<path d="M12.4019 6.7575C12.2635 6.83037 12.261 6.85223 12.261 7.84085V8.74932L11.8432 9.08939C11.6125 9.27642 10.7793 9.95413 9.98988 10.593C9.20286 11.2318 8.24339 12.0091 7.86203 12.32C7.37865 12.7135 7.1576 12.9079 7.13574 12.9589C7.08716 13.0755 7.11874 13.2042 7.22076 13.2941L7.30577 13.3742H8.20452H9.10327V15.5604C9.10327 17.9481 9.09599 17.834 9.24173 17.9311C9.30731 17.9749 9.38261 17.9773 10.7866 17.9846L12.261 17.9919V18.859C12.261 19.8112 12.2586 19.7966 12.4068 19.8719C12.5671 19.9545 12.7809 19.8768 12.8367 19.7141C12.8586 19.6485 12.8659 18.1425 12.8659 13.3135C12.8683 7.16072 12.8659 6.99554 12.8222 6.89595C12.7468 6.73321 12.5598 6.67005 12.4019 6.7575ZM12.261 11.1662C12.261 12.405 12.2538 12.7475 12.2319 12.7548C12.2149 12.7621 11.321 12.7645 10.2449 12.7621L8.28954 12.7548L9.90486 11.4431C10.7939 10.7241 11.6781 10.0051 11.87 9.84725C12.0643 9.69179 12.2295 9.56791 12.2416 9.5752C12.2513 9.58248 12.261 10.2991 12.261 11.1662ZM12.2489 13.7993V14.2123L11.4886 14.2244L10.7259 14.2365L10.6433 14.3264L10.5607 14.4187V15.2543C10.5607 16.0729 10.5607 16.0899 10.6141 16.1555C10.7137 16.2818 10.7647 16.2891 11.542 16.2891H12.2586L12.2538 16.8283L12.2489 17.37L10.9809 17.3773L9.71054 17.3822V15.3782V13.3742L10.9809 13.3791L12.2489 13.3864V13.7993ZM12.2489 15.2567V15.6697L11.7096 15.677L11.168 15.6818V15.2567V14.8317L11.7096 14.8365L12.2489 14.8438V15.2567Z" fill="white"/>
<path d="M13.5468 9.52856C13.4084 9.57957 13.3282 9.76904 13.3865 9.90992C13.4254 10.0022 13.5128 10.0775 14.8707 11.1779C15.3662 11.5787 16.005 12.0961 16.2917 12.3293L16.8139 12.7543L16.2042 12.7665C15.6698 12.7762 15.5897 12.7835 15.5289 12.8224C15.3881 12.9147 15.3929 12.8394 15.3929 15.2077V17.3817H14.4432H13.4934L13.4108 17.4643C13.3379 17.5371 13.3282 17.5614 13.3282 17.6683C13.3282 17.8165 13.406 17.9258 13.542 17.9647C13.6027 17.9841 13.9889 17.9889 14.7128 17.9841C15.7281 17.9768 15.7986 17.9744 15.8617 17.9306C16.0075 17.8335 16.0002 17.9477 16.0002 15.5623V13.3762L16.9111 13.3689L17.822 13.3616L17.8973 13.2863C17.9896 13.194 18.0163 13.0507 17.958 12.9438C17.9386 12.9025 17.8147 12.7811 17.6835 12.6766C16.7532 11.9236 16.4471 11.6758 15.8933 11.224C15.5484 10.9423 14.9581 10.4637 14.5816 10.1577C14.2075 9.85162 13.8675 9.582 13.8262 9.55771C13.7557 9.51398 13.6246 9.49941 13.5468 9.52856Z" fill="white"/>
</svg>
