<svg width="1067" height="115" viewBox="0 0 1067 115" fill="none" xmlns="http://www.w3.org/2000/svg">
<mask id="path-1-outside-1_2583_10429" maskUnits="userSpaceOnUse" x="-0.156006" y="-0.481934" width="1067" height="116" fill="black">
<rect fill="white" x="-0.156006" y="-0.481934" width="1067" height="116"/>
<path d="M0.99999 7.40015H17.877V92.3574H57.6381V107.518H0.99999V7.40015ZM80.2999 107.518V92.6434H130.788V107.518H80.2999ZM80.2999 22.2748V7.40015H130.788V22.2748H80.2999ZM80.2999 61.1778V46.5892H127.927V61.1778H80.2999ZM69.859 7.40015H86.45V107.518H69.859V7.40015ZM141.556 22.9899V7.40015H211.353V22.9899H184.893V107.518H167.873V22.9899H141.556ZM227.93 7.40015H244.95L230.505 41.7263H219.635L227.93 7.40015ZM272.679 75.3373C274.872 79.1513 277.208 82.5363 279.688 85.4921C282.262 88.3526 285.075 90.5934 288.126 92.2143C291.177 93.7399 294.61 94.5027 298.424 94.5027C303.001 94.5027 306.719 93.2632 309.58 90.7841C312.44 88.305 313.871 85.1107 313.871 81.2014C313.871 77.4827 312.965 74.5268 311.153 72.3338C309.342 70.0454 306.815 68.1384 303.573 66.6127C300.426 64.9918 296.755 63.4185 292.56 61.8929C290.081 61.0347 287.316 59.8905 284.264 58.4603C281.213 56.9347 278.305 55.0753 275.54 52.8823C272.775 50.5939 270.486 47.8287 268.675 44.5868C266.863 41.2495 265.957 37.2448 265.957 32.5727C265.957 27.233 267.34 22.5609 270.105 18.5561C272.87 14.4561 276.589 11.3095 281.261 9.11646C286.028 6.82805 291.416 5.68385 297.423 5.68385C303.334 5.68385 308.483 6.7327 312.87 8.8304C317.256 10.9281 320.927 13.5979 323.882 16.8398C326.934 20.0818 329.317 23.4667 331.034 26.9947L317.303 34.718C316.064 32.2389 314.49 29.9505 312.583 27.8528C310.676 25.6597 308.436 23.9434 305.861 22.7039C303.382 21.369 300.474 20.7015 297.137 20.7015C292.465 20.7015 289.032 21.7981 286.839 23.9911C284.646 26.0888 283.549 28.5679 283.549 31.4285C283.549 34.0029 284.312 36.339 285.838 38.4367C287.459 40.4391 289.938 42.3461 293.275 44.1577C296.612 45.9694 300.951 47.8287 306.29 49.7357C309.246 50.7846 312.202 52.1195 315.158 53.7404C318.209 55.3614 320.974 57.4114 323.453 59.8905C325.933 62.2743 327.887 65.0871 329.317 68.3291C330.843 71.571 331.606 75.385 331.606 79.7711C331.606 84.4433 330.7 88.6387 328.888 92.3574C327.077 96.076 324.598 99.2226 321.451 101.797C318.304 104.276 314.729 106.183 310.724 107.518C306.815 108.948 302.715 109.663 298.424 109.663C292.512 109.663 287.03 108.519 281.976 106.231C277.018 103.847 272.679 100.701 268.961 96.7911C265.242 92.8818 262.286 88.6387 260.093 84.0619L272.679 75.3373ZM404.249 57.4591C404.249 64.515 405.823 70.7128 408.969 76.0524C412.211 81.3921 416.407 85.5398 421.556 88.4957C426.8 91.3562 432.473 92.7864 438.576 92.7864C443.343 92.7864 447.634 92.1667 451.448 90.9271C455.262 89.6875 458.695 88.0189 461.746 85.9212C464.892 83.7281 467.61 81.2967 469.898 78.6269V98.6505C465.703 102.083 461.174 104.705 456.311 106.517C451.448 108.329 445.345 109.234 438.004 109.234C430.662 109.234 423.796 107.995 417.408 105.516C411.115 103.037 405.632 99.461 400.96 94.7888C396.288 90.1166 392.617 84.634 389.947 78.3408C387.372 71.9524 386.085 64.9918 386.085 57.4591C386.085 49.9264 387.372 43.0135 389.947 36.7204C392.617 30.3319 396.288 24.8016 400.96 20.1294C405.632 15.4573 411.115 11.8816 417.408 9.40251C423.796 6.9234 430.662 5.68385 438.004 5.68385C445.345 5.68385 451.448 6.58967 456.311 8.40133C461.174 10.213 465.703 12.8351 469.898 16.2677V36.2913C467.61 33.6215 464.892 31.2377 461.746 29.14C458.695 26.947 455.262 25.2307 451.448 23.9911C447.634 22.7516 443.343 22.1318 438.576 22.1318C432.473 22.1318 426.8 23.6097 421.556 26.5656C416.407 29.4261 412.211 33.5262 408.969 38.8658C405.823 44.1101 404.249 50.3078 404.249 57.4591ZM502.852 57.4591C502.852 64.3243 504.282 70.4744 507.143 75.9094C510.099 81.249 514.151 85.4444 519.3 88.4957C524.449 91.5469 530.313 93.0725 536.892 93.0725C543.567 93.0725 549.431 91.5469 554.484 88.4957C559.633 85.4444 563.638 81.249 566.499 75.9094C569.454 70.4744 570.932 64.3243 570.932 57.4591C570.932 50.5939 569.502 44.4915 566.642 39.1518C563.781 33.7169 559.776 29.4738 554.627 26.4226C549.574 23.3713 543.662 21.8457 536.892 21.8457C530.313 21.8457 524.449 23.3713 519.3 26.4226C514.151 29.4738 510.099 33.7169 507.143 39.1518C504.282 44.4915 502.852 50.5939 502.852 57.4591ZM484.974 57.4591C484.974 49.9264 486.261 43.0135 488.836 36.7204C491.41 30.4273 495.033 24.9923 499.706 20.4155C504.473 15.7433 510.003 12.12 516.297 9.54553C522.685 6.97107 529.55 5.68385 536.892 5.68385C544.425 5.68385 551.338 6.97107 557.631 9.54553C563.924 12.12 569.407 15.7433 574.079 20.4155C578.846 24.9923 582.517 30.4273 585.092 36.7204C587.666 43.0135 588.954 49.9264 588.954 57.4591C588.954 64.8964 587.666 71.8093 585.092 78.1978C582.517 84.5863 578.894 90.1166 574.222 94.7888C569.55 99.461 564.019 103.132 557.631 105.802C551.338 108.376 544.425 109.663 536.892 109.663C529.455 109.663 522.542 108.376 516.154 105.802C509.765 103.132 504.235 99.461 499.563 94.7888C494.986 90.1166 491.41 84.5863 488.836 78.1978C486.261 71.8093 484.974 64.8964 484.974 57.4591ZM678.453 7.40015H695.044V112.524L621.958 40.296V107.518H605.367V2.39426L678.453 74.6222V7.40015ZM790.331 7.40015H806.922V112.524L733.836 40.296V107.518H717.245V2.39426L790.331 74.6222V7.40015ZM839.565 107.518V92.6434H890.053V107.518H839.565ZM839.565 22.2748V7.40015H890.053V22.2748H839.565ZM839.565 61.1778V46.5892H887.192V61.1778H839.565ZM829.124 7.40015H845.715V107.518H829.124V7.40015ZM923.276 57.4591C923.276 64.515 924.849 70.7128 927.996 76.0524C931.238 81.3921 935.433 85.5398 940.582 88.4957C945.826 91.3562 951.5 92.7864 957.602 92.7864C962.37 92.7864 966.66 92.1667 970.474 90.9271C974.288 89.6875 977.721 88.0189 980.772 85.9212C983.919 83.7281 986.636 81.2967 988.925 78.6269V98.6505C984.729 102.083 980.2 104.705 975.337 106.517C970.474 108.329 964.372 109.234 957.03 109.234C949.688 109.234 942.823 107.995 936.434 105.516C930.141 103.037 924.659 99.461 919.986 94.7888C915.314 90.1166 911.643 84.634 908.973 78.3408C906.399 71.9524 905.112 64.9918 905.112 57.4591C905.112 49.9264 906.399 43.0135 908.973 36.7204C911.643 30.3319 915.314 24.8016 919.986 20.1294C924.659 15.4573 930.141 11.8816 936.434 9.40251C942.823 6.9234 949.688 5.68385 957.03 5.68385C964.372 5.68385 970.474 6.58967 975.337 8.40133C980.2 10.213 984.729 12.8351 988.925 16.2677V36.2913C986.636 33.6215 983.919 31.2377 980.772 29.14C977.721 26.947 974.288 25.2307 970.474 23.9911C966.66 22.7516 962.37 22.1318 957.602 22.1318C951.5 22.1318 945.826 23.6097 940.582 26.5656C935.433 29.4261 931.238 33.5262 927.996 38.8658C924.849 44.1101 923.276 50.3078 923.276 57.4591ZM995.38 22.9899V7.40015H1065.18V22.9899H1038.72V107.518H1021.7V22.9899H995.38Z"/>
</mask>
<path d="M0.99999 7.40015V6.40015H-9.68804e-06V7.40015H0.99999ZM17.877 7.40015H18.877V6.40015H17.877V7.40015ZM17.877 92.3574H16.877V93.3574H17.877V92.3574ZM57.6381 92.3574H58.6381V91.3574H57.6381V92.3574ZM57.6381 107.518V108.518H58.6381V107.518H57.6381ZM0.99999 107.518H-9.68804e-06V108.518H0.99999V107.518ZM0.99999 7.40015V8.40015H17.877V7.40015V6.40015H0.99999V7.40015ZM17.877 7.40015H16.877V92.3574H17.877H18.877V7.40015H17.877ZM17.877 92.3574V93.3574H57.6381V92.3574V91.3574H17.877V92.3574ZM57.6381 92.3574H56.6381V107.518H57.6381H58.6381V92.3574H57.6381ZM57.6381 107.518V106.518H0.99999V107.518V108.518H57.6381V107.518ZM0.99999 107.518H1.99999V7.40015H0.99999H-9.68804e-06V107.518H0.99999ZM80.2999 107.518H79.2999V108.518H80.2999V107.518ZM80.2999 92.6434V91.6434H79.2999V92.6434H80.2999ZM130.788 92.6434H131.788V91.6434H130.788V92.6434ZM130.788 107.518V108.518H131.788V107.518H130.788ZM80.2999 22.2748H79.2999V23.2748H80.2999V22.2748ZM80.2999 7.40015V6.40015H79.2999V7.40015H80.2999ZM130.788 7.40015H131.788V6.40015H130.788V7.40015ZM130.788 22.2748V23.2748H131.788V22.2748H130.788ZM80.2999 61.1778H79.2999V62.1778H80.2999V61.1778ZM80.2999 46.5892V45.5892H79.2999V46.5892H80.2999ZM127.927 46.5892H128.927V45.5892H127.927V46.5892ZM127.927 61.1778V62.1778H128.927V61.1778H127.927ZM69.859 7.40015V6.40015H68.859V7.40015H69.859ZM86.45 7.40015H87.45V6.40015H86.45V7.40015ZM86.45 107.518V108.518H87.45V107.518H86.45ZM69.859 107.518H68.859V108.518H69.859V107.518ZM80.2999 107.518H81.2999V92.6434H80.2999H79.2999V107.518H80.2999ZM80.2999 92.6434V93.6434H130.788V92.6434V91.6434H80.2999V92.6434ZM130.788 92.6434H129.788V107.518H130.788H131.788V92.6434H130.788ZM130.788 107.518V106.518H80.2999V107.518V108.518H130.788V107.518ZM80.2999 22.2748H81.2999V7.40015H80.2999H79.2999V22.2748H80.2999ZM80.2999 7.40015V8.40015H130.788V7.40015V6.40015H80.2999V7.40015ZM130.788 7.40015H129.788V22.2748H130.788H131.788V7.40015H130.788ZM130.788 22.2748V21.2748H80.2999V22.2748V23.2748H130.788V22.2748ZM80.2999 61.1778H81.2999V46.5892H80.2999H79.2999V61.1778H80.2999ZM80.2999 46.5892V47.5892H127.927V46.5892V45.5892H80.2999V46.5892ZM127.927 46.5892H126.927V61.1778H127.927H128.927V46.5892H127.927ZM127.927 61.1778V60.1778H80.2999V61.1778V62.1778H127.927V61.1778ZM69.859 7.40015V8.40015H86.45V7.40015V6.40015H69.859V7.40015ZM86.45 7.40015H85.45V107.518H86.45H87.45V7.40015H86.45ZM86.45 107.518V106.518H69.859V107.518V108.518H86.45V107.518ZM69.859 107.518H70.859V7.40015H69.859H68.859V107.518H69.859ZM141.556 22.9899H140.556V23.9899H141.556V22.9899ZM141.556 7.40015V6.40015H140.556V7.40015H141.556ZM211.353 7.40015H212.353V6.40015H211.353V7.40015ZM211.353 22.9899V23.9899H212.353V22.9899H211.353ZM184.893 22.9899V21.9899H183.893V22.9899H184.893ZM184.893 107.518V108.518H185.893V107.518H184.893ZM167.873 107.518H166.873V108.518H167.873V107.518ZM167.873 22.9899H168.873V21.9899H167.873V22.9899ZM141.556 22.9899H142.556V7.40015H141.556H140.556V22.9899H141.556ZM141.556 7.40015V8.40015H211.353V7.40015V6.40015H141.556V7.40015ZM211.353 7.40015H210.353V22.9899H211.353H212.353V7.40015H211.353ZM211.353 22.9899V21.9899H184.893V22.9899V23.9899H211.353V22.9899ZM184.893 22.9899H183.893V107.518H184.893H185.893V22.9899H184.893ZM184.893 107.518V106.518H167.873V107.518V108.518H184.893V107.518ZM167.873 107.518H168.873V22.9899H167.873H166.873V107.518H167.873ZM167.873 22.9899V21.9899H141.556V22.9899V23.9899H167.873V22.9899ZM227.93 7.40015V6.40015H227.143L226.958 7.16524L227.93 7.40015ZM244.95 7.40015L245.872 7.78803L246.456 6.40015H244.95V7.40015ZM230.505 41.7263V42.7263H231.169L231.426 42.1142L230.505 41.7263ZM219.635 41.7263L218.663 41.4914L218.364 42.7263H219.635V41.7263ZM227.93 7.40015V8.40015H244.95V7.40015V6.40015H227.93V7.40015ZM244.95 7.40015L244.029 7.01226L229.583 41.3384L230.505 41.7263L231.426 42.1142L245.872 7.78803L244.95 7.40015ZM230.505 41.7263V40.7263H219.635V41.7263V42.7263H230.505V41.7263ZM219.635 41.7263L220.607 41.9612L228.902 7.63505L227.93 7.40015L226.958 7.16524L218.663 41.4914L219.635 41.7263ZM272.679 75.3373L273.546 74.8388L273.004 73.8956L272.11 74.5155L272.679 75.3373ZM279.688 85.4921L278.921 86.1347L278.933 86.1481L278.944 86.1611L279.688 85.4921ZM288.126 92.2143L287.657 93.0974L287.668 93.1032L287.679 93.1088L288.126 92.2143ZM311.153 72.3338L310.369 72.9545L310.376 72.9626L310.382 72.9707L311.153 72.3338ZM303.573 66.6127L303.115 67.5017L303.131 67.5099L303.147 67.5176L303.573 66.6127ZM292.56 61.8929L292.902 60.9531L292.894 60.9505L292.887 60.9479L292.56 61.8929ZM284.264 58.4603L283.817 59.3547L283.829 59.3604L283.84 59.3657L284.264 58.4603ZM275.54 52.8823L274.902 53.6527L274.91 53.6593L274.918 53.6658L275.54 52.8823ZM268.675 44.5868L267.796 45.0639L267.802 45.0746L268.675 44.5868ZM270.105 18.5561L270.928 19.1244L270.934 19.1153L270.105 18.5561ZM281.261 9.11646L281.686 10.0217L281.694 10.018L281.261 9.11646ZM312.87 8.8304L313.301 7.92827L313.301 7.92827L312.87 8.8304ZM323.882 16.8398L323.144 17.5136L323.149 17.5194L323.154 17.5252L323.882 16.8398ZM331.034 26.9947L331.524 27.8662L332.345 27.4044L331.933 26.5572L331.034 26.9947ZM317.303 34.718L316.409 35.1653L316.878 36.1044L317.794 35.5896L317.303 34.718ZM312.583 27.8528L311.829 28.509L311.836 28.5173L311.844 28.5255L312.583 27.8528ZM305.861 22.7039L305.387 23.5844L305.407 23.5951L305.427 23.6049L305.861 22.7039ZM286.839 23.9911L287.53 24.7138L287.538 24.7061L287.546 24.6982L286.839 23.9911ZM285.838 38.4367L285.029 39.0249L285.044 39.0458L285.06 39.0659L285.838 38.4367ZM293.275 44.1577L293.752 43.2789L293.275 44.1577ZM306.29 49.7357L305.954 50.6775L305.956 50.6782L306.29 49.7357ZM315.158 53.7404L314.677 54.6173L314.689 54.6236L315.158 53.7404ZM323.453 59.8905L322.746 60.5977L322.753 60.6046L322.76 60.6114L323.453 59.8905ZM329.317 68.3291L328.403 68.7327L328.407 68.7438L328.413 68.7548L329.317 68.3291ZM328.888 92.3574L327.989 91.9194L328.888 92.3574ZM321.451 101.797L322.07 102.583L322.077 102.577L322.084 102.571L321.451 101.797ZM310.724 107.518L310.408 106.569L310.394 106.574L310.381 106.579L310.724 107.518ZM281.976 106.231L281.543 107.132L281.553 107.137L281.563 107.142L281.976 106.231ZM268.961 96.7911L268.236 97.4804L268.236 97.4804L268.961 96.7911ZM260.093 84.0619L259.523 83.24L258.823 83.7255L259.191 84.494L260.093 84.0619ZM272.679 75.3373L271.812 75.8358C274.031 79.6938 276.4 83.1281 278.921 86.1347L279.688 85.4921L280.454 84.8495C278.017 81.9444 275.714 78.6089 273.546 74.8388L272.679 75.3373ZM279.688 85.4921L278.944 86.1611C281.588 89.0986 284.491 91.4158 287.657 93.0974L288.126 92.2143L288.595 91.3312C285.658 89.771 282.936 87.6067 280.431 84.8232L279.688 85.4921ZM288.126 92.2143L287.679 93.1088C290.885 94.7116 294.473 95.5027 298.424 95.5027V94.5027V93.5027C294.747 93.5027 291.47 92.7682 288.573 91.3199L288.126 92.2143ZM298.424 94.5027V95.5027C303.189 95.5027 307.156 94.2078 310.235 91.5398L309.58 90.7841L308.925 90.0284C306.282 92.3186 302.813 93.5027 298.424 93.5027V94.5027ZM309.58 90.7841L310.235 91.5398C313.323 88.8637 314.871 85.3899 314.871 81.2014H313.871H312.871C312.871 84.8316 311.558 87.7462 308.925 90.0284L309.58 90.7841ZM313.871 81.2014H314.871C314.871 77.3225 313.924 74.1179 311.924 71.6969L311.153 72.3338L310.382 72.9707C312.006 74.9357 312.871 77.6429 312.871 81.2014H313.871ZM311.153 72.3338L311.937 71.7131C310.01 69.2791 307.349 67.2846 303.999 65.7079L303.573 66.6127L303.147 67.5176C306.28 68.9921 308.673 70.8116 310.369 72.9545L311.153 72.3338ZM303.573 66.6127L304.031 65.7238C300.838 64.0792 297.127 62.4896 292.902 60.9531L292.56 61.8929L292.218 62.8327C296.384 64.3474 300.014 65.9044 303.115 67.5017L303.573 66.6127ZM292.56 61.8929L292.887 60.9479C290.449 60.1039 287.717 58.9742 284.689 57.5548L284.264 58.4603L283.84 59.3657C286.914 60.8069 289.713 61.9656 292.233 62.8379L292.56 61.8929ZM284.264 58.4603L284.712 57.5659C281.724 56.0722 278.874 54.2504 276.161 52.0988L275.54 52.8823L274.918 53.6658C277.736 55.9003 280.702 57.7972 283.817 59.3547L284.264 58.4603ZM275.54 52.8823L276.177 52.1119C273.511 49.905 271.301 47.2368 269.548 44.099L268.675 44.5868L267.802 45.0746C269.672 48.4207 272.039 51.2827 274.902 53.6527L275.54 52.8823ZM268.675 44.5868L269.553 44.1097C267.838 40.949 266.957 37.1161 266.957 32.5727H265.957H264.957C264.957 37.3735 265.888 41.5501 267.796 45.0639L268.675 44.5868ZM265.957 32.5727H266.957C266.957 27.4154 268.289 22.9458 270.928 19.1243L270.105 18.5561L269.282 17.988C266.39 22.1759 264.957 27.0507 264.957 32.5727H265.957ZM270.105 18.5561L270.934 19.1153C273.594 15.1717 277.17 12.1415 281.686 10.0217L281.261 9.11646L280.836 8.21122C276.008 10.4775 272.146 13.7405 269.276 17.997L270.105 18.5561ZM281.261 9.11646L281.694 10.018C286.309 7.80269 291.545 6.68385 297.423 6.68385V5.68385V4.68385C291.286 4.68385 285.748 5.85341 280.828 8.21493L281.261 9.11646ZM297.423 5.68385V6.68385C303.217 6.68385 308.213 7.71166 312.438 9.73254L312.87 8.8304L313.301 7.92827C308.754 5.75374 303.452 4.68385 297.423 4.68385V5.68385ZM312.87 8.8304L312.438 9.73254C316.721 11.7807 320.283 14.3767 323.144 17.5136L323.882 16.8398L324.621 16.1661C321.57 12.8191 317.791 10.0756 313.301 7.92827L312.87 8.8304ZM323.882 16.8398L323.154 17.5252C326.145 20.7033 328.468 24.0062 330.135 27.4321L331.034 26.9947L331.933 26.5572C330.167 22.9271 327.722 19.4602 324.611 16.1545L323.882 16.8398ZM331.034 26.9947L330.544 26.1231L316.813 33.8465L317.303 34.718L317.794 35.5896L331.524 27.8662L331.034 26.9947ZM317.303 34.718L318.198 34.2708C316.916 31.708 315.291 29.344 313.323 27.1801L312.583 27.8528L311.844 28.5255C313.69 30.557 315.211 32.7699 316.409 35.1653L317.303 34.718ZM312.583 27.8528L313.338 27.1966C311.343 24.9028 308.994 23.1024 306.295 21.8029L305.861 22.7039L305.427 23.6049C307.877 24.7845 310.009 26.4167 311.829 28.509L312.583 27.8528ZM305.861 22.7039L306.335 21.8234C303.686 20.3967 300.609 19.7015 297.137 19.7015V20.7015V21.7015C300.339 21.7015 303.079 22.3412 305.387 23.5844L305.861 22.7039ZM297.137 20.7015V19.7015C292.332 19.7015 288.589 20.8269 286.132 23.284L286.839 23.9911L287.546 24.6982C289.475 22.7692 292.597 21.7015 297.137 21.7015V20.7015ZM286.839 23.9911L286.148 23.2685C283.771 25.542 282.549 28.277 282.549 31.4285H283.549H284.549C284.549 28.8589 285.521 26.6357 287.53 24.7138L286.839 23.9911ZM283.549 31.4285H282.549C282.549 34.216 283.38 36.7576 285.029 39.0249L285.838 38.4367L286.646 37.8485C285.244 35.9204 284.549 33.7899 284.549 31.4285H283.549ZM285.838 38.4367L285.06 39.0659C286.794 41.2068 289.395 43.1893 292.798 45.0366L293.275 44.1577L293.752 43.2789C290.48 41.5028 288.124 39.6713 286.615 37.8075L285.838 38.4367ZM293.275 44.1577L292.798 45.0366C296.197 46.8816 300.587 48.7607 305.954 50.6775L306.29 49.7357L306.627 48.794C301.314 46.8967 297.028 45.0572 293.752 43.2789L293.275 44.1577ZM306.29 49.7357L305.956 50.6782C308.858 51.7078 311.765 53.0202 314.677 54.6173L315.158 53.7404L315.639 52.8636C312.639 51.2188 309.635 49.8613 306.625 48.7933L306.29 49.7357ZM315.158 53.7404L314.689 54.6236C317.651 56.1973 320.336 58.1876 322.746 60.5977L323.453 59.8905L324.161 59.1834C321.612 56.6352 318.767 54.5255 315.627 52.8573L315.158 53.7404ZM323.453 59.8905L322.76 60.6114C325.143 62.9021 327.023 65.6063 328.403 68.7327L329.317 68.3291L330.232 67.9254C328.751 64.568 326.722 61.6465 324.147 59.1697L323.453 59.8905ZM329.317 68.3291L328.413 68.7548C329.863 71.8371 330.606 75.4999 330.606 79.7711H331.606H332.606C332.606 75.2701 331.823 71.3048 330.222 67.9033L329.317 68.3291ZM331.606 79.7711H330.606C330.606 84.3113 329.726 88.3539 327.989 91.9194L328.888 92.3574L329.787 92.7953C331.674 88.9235 332.606 84.5753 332.606 79.7711H331.606ZM328.888 92.3574L327.989 91.9194C326.24 95.5105 323.851 98.5417 320.818 101.023L321.451 101.797L322.084 102.571C325.345 99.9034 327.914 96.6415 329.787 92.7953L328.888 92.3574ZM321.451 101.797L320.832 101.012C317.781 103.415 314.309 105.269 310.408 106.569L310.724 107.518L311.04 108.467C315.149 107.097 318.828 105.137 322.07 102.583L321.451 101.797ZM310.724 107.518L310.381 106.579C306.585 107.968 302.601 108.663 298.424 108.663V109.663V110.663C302.828 110.663 307.045 109.929 311.068 108.457L310.724 107.518ZM298.424 109.663V108.663C292.645 108.663 287.304 107.546 282.388 105.32L281.976 106.231L281.563 107.142C286.755 109.493 292.379 110.663 298.424 110.663V109.663ZM281.976 106.231L282.409 105.33C277.558 102.997 273.319 99.9218 269.685 96.1019L268.961 96.7911L268.236 97.4804C272.04 101.479 276.478 104.697 281.543 107.132L281.976 106.231ZM268.961 96.7911L269.685 96.1019C266.034 92.2636 263.14 88.1063 260.995 83.6297L260.093 84.0619L259.191 84.494C261.432 89.1711 264.45 93.4999 268.236 97.4804L268.961 96.7911ZM260.093 84.0619L260.663 84.8837L273.249 76.1592L272.679 75.3373L272.11 74.5155L259.523 83.24L260.093 84.0619ZM408.969 76.0524L408.108 76.5602L408.115 76.5714L408.969 76.0524ZM421.556 88.4957L421.058 89.3629L421.067 89.3683L421.077 89.3736L421.556 88.4957ZM451.448 90.9271L451.757 91.8781L451.757 91.8781L451.448 90.9271ZM461.746 85.9212L462.312 86.7453L462.318 86.7416L461.746 85.9212ZM469.898 78.6269H470.898V75.9236L469.139 77.9761L469.898 78.6269ZM469.898 98.6505L470.531 99.4244L470.898 99.1244V98.6505H469.898ZM456.311 106.517L456.66 107.454L456.66 107.454L456.311 106.517ZM417.408 105.516L417.041 106.446L417.046 106.448L417.408 105.516ZM400.96 94.7888L400.253 95.4959L400.253 95.4959L400.96 94.7888ZM389.947 78.3408L389.019 78.7146L389.023 78.723L389.026 78.7314L389.947 78.3408ZM389.947 36.7204L389.024 36.3348L389.021 36.3418L389.947 36.7204ZM400.96 20.1294L401.667 20.8365L401.667 20.8365L400.96 20.1294ZM417.408 9.40251L417.046 8.47023L417.041 8.4721L417.408 9.40251ZM456.311 8.40133L456.66 7.46425L456.66 7.46425L456.311 8.40133ZM469.898 16.2677H470.898V15.7939L470.531 15.4938L469.898 16.2677ZM469.898 36.2913L469.139 36.9421L470.898 38.9946V36.2913H469.898ZM461.746 29.14L461.162 29.9521L461.176 29.9623L461.191 29.9721L461.746 29.14ZM451.448 23.9911L451.757 23.0401L451.757 23.0401L451.448 23.9911ZM421.556 26.5656L422.041 27.4398L422.047 27.4367L421.556 26.5656ZM408.969 38.8658L408.115 38.3468L408.112 38.3513L408.969 38.8658ZM404.249 57.4591H403.249C403.249 64.6684 404.859 71.0463 408.108 76.5601L408.969 76.0524L409.831 75.5447C406.787 70.3793 405.249 64.3617 405.249 57.4591H404.249ZM408.969 76.0524L408.115 76.5714C411.439 82.0476 415.755 86.3185 421.058 89.3629L421.556 88.4957L422.053 87.6284C417.059 84.7611 412.983 80.7365 409.824 75.5335L408.969 76.0524ZM421.556 88.4957L421.077 89.3736C426.471 92.316 432.31 93.7864 438.576 93.7864V92.7864V91.7864C432.637 91.7864 427.129 90.3964 422.034 87.6178L421.556 88.4957ZM438.576 92.7864V93.7864C443.429 93.7864 447.826 93.1556 451.757 91.8781L451.448 90.9271L451.139 89.9761C447.441 91.1777 443.257 91.7864 438.576 91.7864V92.7864ZM451.448 90.9271L451.757 91.8781C455.655 90.6113 459.176 88.9018 462.312 86.7452L461.746 85.9212L461.179 85.0972C458.214 87.136 454.869 88.7638 451.139 89.9761L451.448 90.9271ZM461.746 85.9212L462.318 86.7416C465.527 84.5045 468.309 82.0173 470.657 79.2777L469.898 78.6269L469.139 77.9761C466.91 80.5762 464.257 82.9518 461.174 85.1008L461.746 85.9212ZM469.898 78.6269H468.898V98.6505H469.898H470.898V78.6269H469.898ZM469.898 98.6505L469.265 97.8765C465.151 101.243 460.717 103.808 455.962 105.58L456.311 106.517L456.66 107.454C461.63 105.602 466.255 102.924 470.531 99.4244L469.898 98.6505ZM456.311 106.517L455.962 105.58C451.246 107.336 445.272 108.234 438.004 108.234V109.234V110.234C445.419 110.234 451.649 109.321 456.66 107.454L456.311 106.517ZM438.004 109.234V108.234C430.776 108.234 424.035 107.015 417.77 104.583L417.408 105.516L417.046 106.448C423.558 108.975 430.547 110.234 438.004 110.234V109.234ZM417.408 105.516L417.774 104.585C411.606 102.155 406.24 98.6545 401.667 94.0817L400.96 94.7888L400.253 95.4959C405.024 100.267 410.624 103.918 417.041 106.446L417.408 105.516ZM400.96 94.7888L401.667 94.0817C397.089 89.5035 393.489 84.1293 390.867 77.9503L389.947 78.3408L389.026 78.7314C391.745 85.1386 395.487 90.7297 400.253 95.4959L400.96 94.7888ZM389.947 78.3408L390.874 77.9671C388.352 71.7081 387.085 64.8757 387.085 57.4591H386.085H385.085C385.085 65.1078 386.393 72.1967 389.019 78.7146L389.947 78.3408ZM386.085 57.4591H387.085C387.085 50.0423 388.352 43.2596 390.872 37.099L389.947 36.7204L389.021 36.3418C386.393 42.7674 385.085 49.8106 385.085 57.4591H386.085ZM389.947 36.7204L390.87 37.106C393.492 30.8318 397.091 25.4122 401.667 20.8365L400.96 20.1294L400.253 19.4223C395.484 24.191 391.742 29.832 389.024 36.3348L389.947 36.7204ZM400.96 20.1294L401.667 20.8365C406.24 16.2637 411.606 12.763 417.774 10.3329L417.408 9.40251L417.041 8.4721C410.624 11.0003 405.024 14.6508 400.253 19.4223L400.96 20.1294ZM417.408 9.40251L417.77 10.3348C424.035 7.90354 430.776 6.68385 438.004 6.68385V5.68385V4.68385C430.547 4.68385 423.558 5.94325 417.046 8.47024L417.408 9.40251ZM438.004 5.68385V6.68385C445.272 6.68385 451.246 7.58174 455.962 9.33841L456.311 8.40133L456.66 7.46425C451.649 5.5976 445.419 4.68385 438.004 4.68385V5.68385ZM456.311 8.40133L455.962 9.33841C460.717 11.11 465.151 13.6756 469.265 17.0417L469.898 16.2677L470.531 15.4938C466.255 11.9947 461.63 9.31598 456.66 7.46425L456.311 8.40133ZM469.898 16.2677H468.898V36.2913H469.898H470.898V16.2677H469.898ZM469.898 36.2913L470.657 35.6405C468.305 32.8962 465.517 30.4527 462.3 28.308L461.746 29.14L461.191 29.9721C464.267 32.0228 466.914 34.3468 469.139 36.9421L469.898 36.2913ZM461.746 29.14L462.329 28.328C459.189 26.0708 455.663 24.3094 451.757 23.0401L451.448 23.9911L451.139 24.9421C454.861 26.152 458.2 27.8231 461.162 29.9521L461.746 29.14ZM451.448 23.9911L451.757 23.0401C447.826 21.7626 443.429 21.1318 438.576 21.1318V22.1318V23.1318C443.257 23.1318 447.441 23.7405 451.139 24.9421L451.448 23.9911ZM438.576 22.1318V21.1318C432.304 21.1318 426.461 22.6529 421.065 25.6944L421.556 26.5656L422.047 27.4367C427.139 24.5665 432.643 23.1318 438.576 23.1318V22.1318ZM421.556 26.5656L421.07 25.6914C415.76 28.6414 411.441 32.8681 408.115 38.3468L408.969 38.8658L409.824 39.3848C412.982 34.1843 417.053 30.2108 422.041 27.4397L421.556 26.5656ZM408.969 38.8658L408.112 38.3513C404.857 43.7756 403.249 50.1577 403.249 57.4591H404.249H405.249C405.249 50.458 406.788 44.4445 409.827 39.3803L408.969 38.8658ZM507.143 75.9094L506.258 76.3752L506.263 76.3845L506.268 76.3937L507.143 75.9094ZM519.3 88.4957L519.81 87.6354L519.81 87.6354L519.3 88.4957ZM554.484 88.4957L553.975 87.6353L553.968 87.6396L554.484 88.4957ZM566.499 75.9094L565.62 75.4316L565.617 75.4372L566.499 75.9094ZM566.642 39.1518L565.757 39.6176L565.76 39.6241L566.642 39.1518ZM554.627 26.4226L554.111 27.2786L554.118 27.2828L554.627 26.4226ZM519.3 26.4226L519.81 27.2828L519.81 27.2828L519.3 26.4226ZM507.143 39.1518L506.264 38.6741L506.261 38.6796L507.143 39.1518ZM488.836 36.7204L487.91 36.3418L488.836 36.7204ZM499.706 20.4155L500.405 21.1298L500.406 21.1297L499.706 20.4155ZM516.297 9.54553L515.923 8.618L515.918 8.61998L516.297 9.54553ZM557.631 9.54553L558.01 8.61998L558.01 8.61998L557.631 9.54553ZM574.079 20.4155L573.372 21.1226L573.379 21.1298L573.386 21.1369L574.079 20.4155ZM585.092 36.7204L586.017 36.3418L585.092 36.7204ZM574.222 94.7888L574.929 95.4959L574.929 95.4959L574.222 94.7888ZM557.631 105.802L558.01 106.727L558.017 106.724L557.631 105.802ZM516.154 105.802L515.768 106.725L515.78 106.729L516.154 105.802ZM499.563 94.7888L498.848 95.4886L498.856 95.4959L499.563 94.7888ZM488.836 78.1978L487.908 78.5716L488.836 78.1978ZM502.852 57.4591H501.852C501.852 64.4672 503.313 70.7803 506.258 76.3752L507.143 75.9094L508.028 75.4437C505.252 70.1685 503.852 64.1814 503.852 57.4591H502.852ZM507.143 75.9094L506.268 76.3937C509.308 81.8857 513.485 86.2122 518.79 89.356L519.3 88.4957L519.81 87.6354C514.817 84.6767 510.889 80.6124 508.018 75.4251L507.143 75.9094ZM519.3 88.4957L518.79 89.356C524.109 92.5075 530.152 94.0725 536.892 94.0725V93.0725V92.0725C530.474 92.0725 524.789 90.5862 519.81 87.6354L519.3 88.4957ZM536.892 93.0725V94.0725C543.725 94.0725 549.772 92.5089 555.001 89.3517L554.484 88.4957L553.968 87.6396C549.09 90.5848 543.409 92.0725 536.892 92.0725V93.0725ZM554.484 88.4957L554.994 89.356C560.302 86.2105 564.434 81.88 567.38 76.3816L566.499 75.9094L565.617 75.4372C562.842 80.618 558.965 84.6784 553.975 87.6354L554.484 88.4957ZM566.499 75.9094L567.377 76.3872C570.421 70.79 571.932 64.4726 571.932 57.4591H570.932H569.932C569.932 64.1761 568.488 70.1588 565.62 75.4316L566.499 75.9094ZM570.932 57.4591H571.932C571.932 50.4513 570.471 44.1829 567.523 38.6796L566.642 39.1518L565.76 39.6241C568.533 44.8 569.932 50.7364 569.932 57.4591H570.932ZM566.642 39.1518L567.527 38.6861C564.582 33.0919 560.45 28.7103 555.137 25.5623L554.627 26.4226L554.118 27.2828C559.103 30.2372 562.98 34.3418 565.757 39.6176L566.642 39.1518ZM554.627 26.4226L555.144 25.5665C549.913 22.408 543.817 20.8457 536.892 20.8457V21.8457V22.8457C543.507 22.8457 549.235 24.3347 554.111 27.2786L554.627 26.4226ZM536.892 21.8457V20.8457C530.152 20.8457 524.109 22.4107 518.79 25.5623L519.3 26.4226L519.81 27.2828C524.789 24.332 530.474 22.8457 536.892 22.8457V21.8457ZM519.3 26.4226L518.79 25.5623C513.481 28.7086 509.303 33.0863 506.264 38.6741L507.143 39.1518L508.021 39.6296C510.894 34.3475 514.822 30.2389 519.81 27.2828L519.3 26.4226ZM507.143 39.1518L506.261 38.6796C503.313 44.1829 501.852 50.4513 501.852 57.4591H502.852H503.852C503.852 50.7364 505.252 44.8 508.024 39.6241L507.143 39.1518ZM484.974 57.4591H485.974C485.974 50.0423 487.241 43.2596 489.761 37.099L488.836 36.7204L487.91 36.3418C485.281 42.7674 483.974 49.8106 483.974 57.4591H484.974ZM488.836 36.7204L489.761 37.099C492.286 30.9269 495.834 25.6075 500.405 21.1298L499.706 20.4155L499.006 19.7011C494.232 24.3771 490.534 29.9276 487.91 36.3418L488.836 36.7204ZM499.706 20.4155L500.406 21.1297C505.079 16.5498 510.5 12.9975 516.675 10.4711L516.297 9.54553L515.918 8.61998C509.507 11.2425 503.867 14.9368 499.006 19.7013L499.706 20.4155ZM516.297 9.54553L516.67 10.473C522.932 7.94956 529.67 6.68385 536.892 6.68385V5.68385V4.68385C529.431 4.68385 522.438 5.99259 515.923 8.61801L516.297 9.54553ZM536.892 5.68385V6.68385C544.309 6.68385 551.092 7.95083 557.252 10.4711L557.631 9.54553L558.01 8.61998C551.584 5.99132 544.541 4.68385 536.892 4.68385V5.68385ZM557.631 9.54553L557.252 10.4711C563.426 12.9968 568.796 16.5471 573.372 21.1226L574.079 20.4155L574.786 19.7084C570.017 14.9395 564.422 11.2432 558.01 8.61998L557.631 9.54553ZM574.079 20.4155L573.386 21.1369C578.05 25.6141 581.643 30.9313 584.166 37.099L585.092 36.7204L586.017 36.3418C583.392 29.9232 579.643 24.3705 574.771 19.6941L574.079 20.4155ZM585.092 36.7204L584.166 37.099C586.687 43.2596 587.954 50.0423 587.954 57.4591H588.954H589.954C589.954 49.8106 588.646 42.7674 586.017 36.3418L585.092 36.7204ZM588.954 57.4591H587.954C587.954 64.7787 586.687 71.5636 584.164 77.824L585.092 78.1978L586.019 78.5716C588.645 72.0551 589.954 65.0142 589.954 57.4591H588.954ZM585.092 78.1978L584.164 77.824C581.638 84.0931 578.088 89.5087 573.515 94.0817L574.222 94.7888L574.929 95.4959C579.7 90.7245 583.397 85.0795 586.019 78.5716L585.092 78.1978ZM574.222 94.7888L573.515 94.0817C568.939 98.6574 563.52 102.257 557.245 104.879L557.631 105.802L558.017 106.724C564.519 104.007 570.16 100.265 574.929 95.4959L574.222 94.7888ZM557.631 105.802L557.252 104.876C551.092 107.396 544.309 108.663 536.892 108.663V109.663V110.663C544.541 110.663 551.584 109.356 558.01 106.727L557.631 105.802ZM536.892 109.663V108.663C529.573 108.663 522.788 107.397 516.527 104.874L516.154 105.802L515.78 106.729C522.296 109.355 529.337 110.663 536.892 110.663V109.663ZM516.154 105.802L516.539 104.879C510.265 102.257 504.845 98.6574 500.27 94.0817L499.563 94.7888L498.856 95.4959C503.624 100.265 509.265 104.007 515.768 106.724L516.154 105.802ZM499.563 94.7888L500.277 94.089C495.797 89.5154 492.291 84.0975 489.763 77.824L488.836 78.1978L487.908 78.5716C490.529 85.0751 494.175 90.7178 498.848 95.4886L499.563 94.7888ZM488.836 78.1978L489.763 77.824C487.24 71.5636 485.974 64.7787 485.974 57.4591H484.974H483.974C483.974 65.0142 485.282 72.0551 487.908 78.5716L488.836 78.1978ZM678.453 7.40015V6.40015H677.453V7.40015H678.453ZM695.044 7.40015H696.044V6.40015H695.044V7.40015ZM695.044 112.524L694.341 113.235L696.044 114.918V112.524H695.044ZM621.958 40.296L622.661 39.5848L620.958 37.9018V40.296H621.958ZM621.958 107.518V108.518H622.958V107.518H621.958ZM605.367 107.518H604.367V108.518H605.367V107.518ZM605.367 2.39426L606.07 1.68299L604.367 6.27953e-05V2.39426H605.367ZM678.453 74.6222L677.75 75.3335L679.453 77.0164V74.6222H678.453ZM678.453 7.40015V8.40015H695.044V7.40015V6.40015H678.453V7.40015ZM695.044 7.40015H694.044V112.524H695.044H696.044V7.40015H695.044ZM695.044 112.524L695.747 111.813L622.661 39.5848L621.958 40.296L621.255 41.0073L694.341 113.235L695.044 112.524ZM621.958 40.296H620.958V107.518H621.958H622.958V40.296H621.958ZM621.958 107.518V106.518H605.367V107.518V108.518H621.958V107.518ZM605.367 107.518H606.367V2.39426H605.367H604.367V107.518H605.367ZM605.367 2.39426L604.664 3.10553L677.75 75.3335L678.453 74.6222L679.156 73.9109L606.07 1.68299L605.367 2.39426ZM678.453 74.6222H679.453V7.40015H678.453H677.453V74.6222H678.453ZM790.331 7.40015V6.40015H789.331V7.40015H790.331ZM806.922 7.40015H807.922V6.40015H806.922V7.40015ZM806.922 112.524L806.219 113.235L807.922 114.918V112.524H806.922ZM733.836 40.296L734.539 39.5848L732.836 37.9018V40.296H733.836ZM733.836 107.518V108.518H734.836V107.518H733.836ZM717.245 107.518H716.245V108.518H717.245V107.518ZM717.245 2.39426L717.948 1.68299L716.245 6.27953e-05V2.39426H717.245ZM790.331 74.6222L789.629 75.3335L791.331 77.0164V74.6222H790.331ZM790.331 7.40015V8.40015H806.922V7.40015V6.40015H790.331V7.40015ZM806.922 7.40015H805.922V112.524H806.922H807.922V7.40015H806.922ZM806.922 112.524L807.625 111.813L734.539 39.5848L733.836 40.296L733.133 41.0073L806.219 113.235L806.922 112.524ZM733.836 40.296H732.836V107.518H733.836H734.836V40.296H733.836ZM733.836 107.518V106.518H717.245V107.518V108.518H733.836V107.518ZM717.245 107.518H718.245V2.39426H717.245H716.245V107.518H717.245ZM717.245 2.39426L716.542 3.10553L789.629 75.3335L790.331 74.6222L791.034 73.9109L717.948 1.68299L717.245 2.39426ZM790.331 74.6222H791.331V7.40015H790.331H789.331V74.6222H790.331ZM839.565 107.518H838.565V108.518H839.565V107.518ZM839.565 92.6434V91.6434H838.565V92.6434H839.565ZM890.053 92.6434H891.053V91.6434H890.053V92.6434ZM890.053 107.518V108.518H891.053V107.518H890.053ZM839.565 22.2748H838.565V23.2748H839.565V22.2748ZM839.565 7.40015V6.40015H838.565V7.40015H839.565ZM890.053 7.40015H891.053V6.40015H890.053V7.40015ZM890.053 22.2748V23.2748H891.053V22.2748H890.053ZM839.565 61.1778H838.565V62.1778H839.565V61.1778ZM839.565 46.5892V45.5892H838.565V46.5892H839.565ZM887.192 46.5892H888.192V45.5892H887.192V46.5892ZM887.192 61.1778V62.1778H888.192V61.1778H887.192ZM829.124 7.40015V6.40015H828.124V7.40015H829.124ZM845.715 7.40015H846.715V6.40015H845.715V7.40015ZM845.715 107.518V108.518H846.715V107.518H845.715ZM829.124 107.518H828.124V108.518H829.124V107.518ZM839.565 107.518H840.565V92.6434H839.565H838.565V107.518H839.565ZM839.565 92.6434V93.6434H890.053V92.6434V91.6434H839.565V92.6434ZM890.053 92.6434H889.053V107.518H890.053H891.053V92.6434H890.053ZM890.053 107.518V106.518H839.565V107.518V108.518H890.053V107.518ZM839.565 22.2748H840.565V7.40015H839.565H838.565V22.2748H839.565ZM839.565 7.40015V8.40015H890.053V7.40015V6.40015H839.565V7.40015ZM890.053 7.40015H889.053V22.2748H890.053H891.053V7.40015H890.053ZM890.053 22.2748V21.2748H839.565V22.2748V23.2748H890.053V22.2748ZM839.565 61.1778H840.565V46.5892H839.565H838.565V61.1778H839.565ZM839.565 46.5892V47.5892H887.192V46.5892V45.5892H839.565V46.5892ZM887.192 46.5892H886.192V61.1778H887.192H888.192V46.5892H887.192ZM887.192 61.1778V60.1778H839.565V61.1778V62.1778H887.192V61.1778ZM829.124 7.40015V8.40015H845.715V7.40015V6.40015H829.124V7.40015ZM845.715 7.40015H844.715V107.518H845.715H846.715V7.40015H845.715ZM845.715 107.518V106.518H829.124V107.518V108.518H845.715V107.518ZM829.124 107.518H830.124V7.40015H829.124H828.124V107.518H829.124ZM927.996 76.0524L927.134 76.5602L927.141 76.5714L927.996 76.0524ZM940.582 88.4957L940.084 89.3629L940.094 89.3683L940.103 89.3736L940.582 88.4957ZM970.474 90.9271L970.783 91.8781L970.783 91.8781L970.474 90.9271ZM980.772 85.9212L981.339 86.7453L981.344 86.7416L980.772 85.9212ZM988.925 78.6269H989.925V75.9236L988.165 77.9761L988.925 78.6269ZM988.925 98.6505L989.558 99.4244L989.925 99.1244V98.6505H988.925ZM975.337 106.517L975.686 107.454L975.686 107.454L975.337 106.517ZM936.434 105.516L936.068 106.446L936.072 106.448L936.434 105.516ZM919.986 94.7888L919.279 95.4959L919.279 95.4959L919.986 94.7888ZM908.973 78.3408L908.046 78.7146L908.049 78.723L908.053 78.7314L908.973 78.3408ZM908.973 36.7204L908.051 36.3348L908.048 36.3418L908.973 36.7204ZM919.986 20.1294L920.693 20.8365L920.693 20.8365L919.986 20.1294ZM936.434 9.40251L936.072 8.47023L936.068 8.4721L936.434 9.40251ZM975.337 8.40133L975.686 7.46425L975.686 7.46425L975.337 8.40133ZM988.925 16.2677H989.925V15.7939L989.558 15.4938L988.925 16.2677ZM988.925 36.2913L988.165 36.9421L989.925 38.9946V36.2913H988.925ZM980.772 29.14L980.189 29.9521L980.203 29.9623L980.218 29.9721L980.772 29.14ZM970.474 23.9911L970.783 23.0401L970.783 23.0401L970.474 23.9911ZM940.582 26.5656L941.068 27.4398L941.073 27.4367L940.582 26.5656ZM927.996 38.8658L927.141 38.3468L927.138 38.3513L927.996 38.8658ZM923.276 57.4591H922.276C922.276 64.6684 923.885 71.0463 927.134 76.5601L927.996 76.0524L928.857 75.5447C925.813 70.3793 924.276 64.3617 924.276 57.4591H923.276ZM927.996 76.0524L927.141 76.5714C930.466 82.0476 934.781 86.3185 940.084 89.3629L940.582 88.4957L941.08 87.6284C936.085 84.7611 932.01 80.7365 928.851 75.5335L927.996 76.0524ZM940.582 88.4957L940.103 89.3736C945.498 92.316 951.336 93.7864 957.602 93.7864V92.7864V91.7864C951.663 91.7864 946.155 90.3964 941.061 87.6178L940.582 88.4957ZM957.602 92.7864V93.7864C962.455 93.7864 966.853 93.1556 970.783 91.8781L970.474 90.9271L970.165 89.9761C966.468 91.1777 962.284 91.7864 957.602 91.7864V92.7864ZM970.474 90.9271L970.783 91.8781C974.681 90.6113 978.202 88.9018 981.339 86.7452L980.772 85.9212L980.206 85.0972C977.24 87.136 973.895 88.7638 970.165 89.9761L970.474 90.9271ZM980.772 85.9212L981.344 86.7416C984.554 84.5045 987.336 82.0173 989.684 79.2777L988.925 78.6269L988.165 77.9761C985.937 80.5762 983.284 82.9518 980.2 85.1008L980.772 85.9212ZM988.925 78.6269H987.925V98.6505H988.925H989.925V78.6269H988.925ZM988.925 98.6505L988.291 97.8765C984.177 101.243 979.743 103.808 974.988 105.58L975.337 106.517L975.686 107.454C980.657 105.602 985.281 102.924 989.558 99.4244L988.925 98.6505ZM975.337 106.517L974.988 105.58C970.273 107.336 964.298 108.234 957.03 108.234V109.234V110.234C964.446 110.234 970.676 109.321 975.686 107.454L975.337 106.517ZM957.03 109.234V108.234C949.803 108.234 943.061 107.015 936.796 104.583L936.434 105.516L936.072 106.448C942.584 108.975 949.573 110.234 957.03 110.234V109.234ZM936.434 105.516L936.801 104.585C930.632 102.155 925.266 98.6545 920.693 94.0817L919.986 94.7888L919.279 95.4959C924.051 100.267 929.65 103.918 936.068 106.446L936.434 105.516ZM919.986 94.7888L920.693 94.0817C916.115 89.5035 912.515 84.1293 909.894 77.9503L908.973 78.3408L908.053 78.7314C910.771 85.1386 914.513 90.7297 919.279 95.4959L919.986 94.7888ZM908.973 78.3408L909.901 77.9671C907.379 71.7081 906.112 64.8757 906.112 57.4591H905.112H904.112C904.112 65.1078 905.419 72.1967 908.046 78.7146L908.973 78.3408ZM905.112 57.4591H906.112C906.112 50.0423 907.379 43.2596 909.899 37.099L908.973 36.7204L908.048 36.3418C905.419 42.7674 904.112 49.8106 904.112 57.4591H905.112ZM908.973 36.7204L909.896 37.106C912.518 30.8318 916.118 25.4122 920.693 20.8365L919.986 20.1294L919.279 19.4223C914.511 24.191 910.768 29.832 908.051 36.3348L908.973 36.7204ZM919.986 20.1294L920.693 20.8365C925.266 16.2637 930.632 12.763 936.801 10.3329L936.434 9.40251L936.068 8.4721C929.65 11.0003 924.051 14.6508 919.279 19.4223L919.986 20.1294ZM936.434 9.40251L936.796 10.3348C943.061 7.90354 949.803 6.68385 957.03 6.68385V5.68385V4.68385C949.573 4.68385 942.584 5.94325 936.072 8.47024L936.434 9.40251ZM957.03 5.68385V6.68385C964.298 6.68385 970.273 7.58174 974.988 9.33841L975.337 8.40133L975.686 7.46425C970.676 5.5976 964.446 4.68385 957.03 4.68385V5.68385ZM975.337 8.40133L974.988 9.33841C979.743 11.11 984.177 13.6756 988.291 17.0417L988.925 16.2677L989.558 15.4938C985.281 11.9947 980.657 9.31598 975.686 7.46425L975.337 8.40133ZM988.925 16.2677H987.925V36.2913H988.925H989.925V16.2677H988.925ZM988.925 36.2913L989.684 35.6405C987.332 32.8962 984.544 30.4527 981.327 28.308L980.772 29.14L980.218 29.9721C983.294 32.0228 985.941 34.3468 988.165 36.9421L988.925 36.2913ZM980.772 29.14L981.356 28.328C978.215 26.0708 974.689 24.3094 970.783 23.0401L970.474 23.9911L970.165 24.9421C973.888 26.152 977.227 27.8231 980.189 29.9521L980.772 29.14ZM970.474 23.9911L970.783 23.0401C966.853 21.7626 962.455 21.1318 957.602 21.1318V22.1318V23.1318C962.284 23.1318 966.468 23.7405 970.165 24.9421L970.474 23.9911ZM957.602 22.1318V21.1318C951.33 21.1318 945.487 22.6529 940.091 25.6944L940.582 26.5656L941.073 27.4367C946.165 24.5665 951.669 23.1318 957.602 23.1318V22.1318ZM940.582 26.5656L940.096 25.6914C934.786 28.6414 930.467 32.8681 927.141 38.3468L927.996 38.8658L928.851 39.3848C932.008 34.1843 936.08 30.2108 941.068 27.4397L940.582 26.5656ZM927.996 38.8658L927.138 38.3513C923.884 43.7756 922.276 50.1577 922.276 57.4591H923.276H924.276C924.276 50.458 925.815 44.4445 928.853 39.3803L927.996 38.8658ZM995.38 22.9899H994.38V23.9899H995.38V22.9899ZM995.38 7.40015V6.40015H994.38V7.40015H995.38ZM1065.18 7.40015H1066.18V6.40015H1065.18V7.40015ZM1065.18 22.9899V23.9899H1066.18V22.9899H1065.18ZM1038.72 22.9899V21.9899H1037.72V22.9899H1038.72ZM1038.72 107.518V108.518H1039.72V107.518H1038.72ZM1021.7 107.518H1020.7V108.518H1021.7V107.518ZM1021.7 22.9899H1022.7V21.9899H1021.7V22.9899ZM995.38 22.9899H996.38V7.40015H995.38H994.38V22.9899H995.38ZM995.38 7.40015V8.40015H1065.18V7.40015V6.40015H995.38V7.40015ZM1065.18 7.40015H1064.18V22.9899H1065.18H1066.18V7.40015H1065.18ZM1065.18 22.9899V21.9899H1038.72V22.9899V23.9899H1065.18V22.9899ZM1038.72 22.9899H1037.72V107.518H1038.72H1039.72V22.9899H1038.72ZM1038.72 107.518V106.518H1021.7V107.518V108.518H1038.72V107.518ZM1021.7 107.518H1022.7V22.9899H1021.7H1020.7V107.518H1021.7ZM1021.7 22.9899V21.9899H995.38V22.9899V23.9899H1021.7V22.9899Z" fill="#DADADA" fill-opacity="0.1" mask="url(#path-1-outside-1_2583_10429)"/>
</svg>
