<svg width="353" height="42" viewBox="0 0 353 42" fill="none" xmlns="http://www.w3.org/2000/svg">
<mask id="path-1-outside-1_2583_17382" maskUnits="userSpaceOnUse" x="-0.675781" y="-0.968262" width="354" height="43" fill="black">
<rect fill="white" x="-0.675781" y="-0.968262" width="354" height="43"/>
<path d="M1.00002 4.04374H6.56086V32.0364H19.6618V37.0317H1.00002V4.04374ZM27.1287 37.0317V32.1307H43.764V37.0317H27.1287ZM27.1287 8.94481V4.04374H43.764V8.94481H27.1287ZM27.1287 21.763V16.9562H42.8215V21.763H27.1287ZM23.6885 4.04374H29.1551V37.0317H23.6885V4.04374ZM47.3121 9.18044V4.04374H70.3094V9.18044H61.5912V37.0317H55.9832V9.18044H47.3121ZM75.7716 4.04374H81.3796L76.6199 15.3539H73.0383L75.7716 4.04374ZM90.5161 26.4285C91.2386 27.6851 92.0084 28.8004 92.8252 29.7744C93.6735 30.7169 94.6003 31.4552 95.6056 31.9893C96.611 32.492 97.742 32.7433 98.9987 32.7433C100.507 32.7433 101.732 32.3349 102.674 31.518C103.617 30.7012 104.088 29.6487 104.088 28.3606C104.088 27.1353 103.79 26.1614 103.193 25.4388C102.596 24.6848 101.763 24.0565 100.695 23.5538C99.6584 23.0197 98.4489 22.5013 97.0665 21.9986C96.2497 21.7159 95.3386 21.3389 94.3332 20.8676C93.3279 20.3649 92.3697 19.7523 91.4586 19.0297C90.5475 18.2757 89.7935 17.3646 89.1965 16.2964C88.5996 15.1968 88.3011 13.8773 88.3011 12.3379C88.3011 10.5785 88.7567 9.03906 89.6678 7.71954C90.5789 6.36861 91.8042 5.33184 93.3436 4.60925C94.9145 3.85524 96.6895 3.47823 98.6688 3.47823C100.617 3.47823 102.313 3.82382 103.758 4.51499C105.204 5.20617 106.413 6.08585 107.387 7.15404C108.392 8.22222 109.178 9.33753 109.743 10.5L105.219 13.0448C104.811 12.2279 104.292 11.4739 103.664 10.7827C103.036 10.0601 102.297 9.49461 101.449 9.08619C100.632 8.64635 99.6741 8.42643 98.5745 8.42643C97.0351 8.42643 95.9041 8.78772 95.1815 9.51032C94.4589 10.2015 94.0976 11.0183 94.0976 11.9609C94.0976 12.8091 94.3489 13.5788 94.8516 14.27C95.3857 14.9298 96.2026 15.5581 97.3022 16.155C98.4018 16.752 99.8312 17.3646 101.591 17.9929C102.565 18.3385 103.538 18.7784 104.512 19.3125C105.518 19.8466 106.429 20.522 107.246 21.3389C108.063 22.1243 108.707 23.0511 109.178 24.1193C109.681 25.1875 109.932 26.4442 109.932 27.8893C109.932 29.4288 109.633 30.8111 109.036 32.0364C108.44 33.2617 107.623 34.2984 106.586 35.1467C105.549 35.9636 104.371 36.5919 103.051 37.0317C101.763 37.503 100.412 37.7386 98.9987 37.7386C97.0508 37.7386 95.2443 37.3616 93.5792 36.6076C91.9455 35.8222 90.5161 34.7854 89.2908 33.4973C88.0655 32.2092 87.0916 30.8111 86.369 29.3031L90.5161 26.4285ZM133.867 20.5377C133.867 22.8626 134.386 24.9047 135.422 26.6641C136.491 28.4234 137.873 29.7901 139.57 30.764C141.297 31.7065 143.167 32.1778 145.177 32.1778C146.748 32.1778 148.162 31.9736 149.419 31.5652C150.675 31.1567 151.806 30.6069 152.812 29.9158C153.849 29.1932 154.744 28.392 155.498 27.5123V34.1099C154.116 35.241 152.623 36.1049 151.021 36.7019C149.419 37.2988 147.408 37.5972 144.989 37.5972C142.57 37.5972 140.308 37.1888 138.203 36.372C136.129 35.5551 134.323 34.377 132.783 32.8375C131.244 31.2981 130.034 29.4916 129.155 27.4181C128.306 25.3131 127.882 23.0197 127.882 20.5377C127.882 18.0558 128.306 15.778 129.155 13.7045C130.034 11.5996 131.244 9.77737 132.783 8.23793C134.323 6.69849 136.129 5.52034 138.203 4.7035C140.308 3.88665 142.57 3.47823 144.989 3.47823C147.408 3.47823 149.419 3.77669 151.021 4.37362C152.623 4.97054 154.116 5.83452 155.498 6.96553V13.5631C154.744 12.6835 153.849 11.898 152.812 11.2068C151.806 10.4843 150.675 9.91874 149.419 9.51032C148.162 9.1019 146.748 8.89769 145.177 8.89769C143.167 8.89769 141.297 9.38465 139.57 10.3586C137.873 11.3011 136.491 12.652 135.422 14.4114C134.386 16.1393 133.867 18.1815 133.867 20.5377ZM166.356 20.5377C166.356 22.7998 166.827 24.8262 167.77 26.617C168.744 28.3763 170.079 29.7587 171.776 30.764C173.472 31.7694 175.404 32.272 177.572 32.272C179.771 32.272 181.703 31.7694 183.368 30.764C185.065 29.7587 186.384 28.3763 187.327 26.617C188.301 24.8262 188.788 22.7998 188.788 20.5377C188.788 18.2757 188.317 16.265 187.374 14.5056C186.432 12.7149 185.112 11.3168 183.416 10.3115C181.75 9.30611 179.803 8.80343 177.572 8.80343C175.404 8.80343 173.472 9.30611 171.776 10.3115C170.079 11.3168 168.744 12.7149 167.77 14.5056C166.827 16.265 166.356 18.2757 166.356 20.5377ZM160.465 20.5377C160.465 18.0558 160.889 15.778 161.738 13.7045C162.586 11.631 163.78 9.8402 165.319 8.33218C166.89 6.79274 168.712 5.59888 170.786 4.75062C172.891 3.90236 175.153 3.47823 177.572 3.47823C180.054 3.47823 182.332 3.90236 184.405 4.75062C186.479 5.59888 188.285 6.79274 189.825 8.33218C191.396 9.8402 192.605 11.631 193.453 13.7045C194.302 15.778 194.726 18.0558 194.726 20.5377C194.726 22.9883 194.302 25.266 193.453 27.371C192.605 29.4759 191.411 31.2981 189.872 32.8375C188.332 34.377 186.51 35.5865 184.405 36.4662C182.332 37.3145 180.054 37.7386 177.572 37.7386C175.121 37.7386 172.844 37.3145 170.739 36.4662C168.634 35.5865 166.812 34.377 165.272 32.8375C163.764 31.2981 162.586 29.4759 161.738 27.371C160.889 25.266 160.465 22.9883 160.465 20.5377ZM224.215 4.04374H229.682V38.6811L205.6 14.8827V37.0317H200.134V2.39434L224.215 26.1928V4.04374ZM261.078 4.04374H266.545V38.6811L242.463 14.8827V37.0317H236.997V2.39434L261.078 26.1928V4.04374ZM277.3 37.0317V32.1307H293.935V37.0317H277.3ZM277.3 8.94481V4.04374H293.935V8.94481H277.3ZM277.3 21.763V16.9562H292.993V21.763H277.3ZM273.86 4.04374H279.326V37.0317H273.86V4.04374ZM304.882 20.5377C304.882 22.8626 305.4 24.9047 306.437 26.6641C307.505 28.4234 308.888 29.7901 310.584 30.764C312.312 31.7065 314.182 32.1778 316.192 32.1778C317.763 32.1778 319.177 31.9736 320.434 31.5652C321.69 31.1567 322.821 30.6069 323.827 29.9158C324.863 29.1932 325.759 28.392 326.513 27.5123V34.1099C325.13 35.241 323.638 36.1049 322.036 36.7019C320.434 37.2988 318.423 37.5972 316.004 37.5972C313.585 37.5972 311.323 37.1888 309.218 36.372C307.144 35.5551 305.338 34.377 303.798 32.8375C302.259 31.2981 301.049 29.4916 300.17 27.4181C299.321 25.3131 298.897 23.0197 298.897 20.5377C298.897 18.0558 299.321 15.778 300.17 13.7045C301.049 11.5996 302.259 9.77737 303.798 8.23793C305.338 6.69849 307.144 5.52034 309.218 4.7035C311.323 3.88665 313.585 3.47823 316.004 3.47823C318.423 3.47823 320.434 3.77669 322.036 4.37362C323.638 4.97054 325.13 5.83452 326.513 6.96553V13.5631C325.759 12.6835 324.863 11.898 323.827 11.2068C322.821 10.4843 321.69 9.91874 320.434 9.51032C319.177 9.1019 317.763 8.89769 316.192 8.89769C314.182 8.89769 312.312 9.38465 310.584 10.3586C308.888 11.3011 307.505 12.652 306.437 14.4114C305.4 16.1393 304.882 18.1815 304.882 20.5377ZM328.64 9.18044V4.04374H351.637V9.18044H342.919V37.0317H337.311V9.18044H328.64Z"/>
</mask>
<path d="M1.00002 4.04374V3.04374H2.4467e-05V4.04374H1.00002ZM6.56086 4.04374H7.56086V3.04374H6.56086V4.04374ZM6.56086 32.0364H5.56086V33.0364H6.56086V32.0364ZM19.6618 32.0364H20.6618V31.0364H19.6618V32.0364ZM19.6618 37.0317V38.0317H20.6618V37.0317H19.6618ZM1.00002 37.0317H2.4467e-05V38.0317H1.00002V37.0317ZM1.00002 4.04374V5.04374H6.56086V4.04374V3.04374H1.00002V4.04374ZM6.56086 4.04374H5.56086V32.0364H6.56086H7.56086V4.04374H6.56086ZM6.56086 32.0364V33.0364H19.6618V32.0364V31.0364H6.56086V32.0364ZM19.6618 32.0364H18.6618V37.0317H19.6618H20.6618V32.0364H19.6618ZM19.6618 37.0317V36.0317H1.00002V37.0317V38.0317H19.6618V37.0317ZM1.00002 37.0317H2.00002V4.04374H1.00002H2.4467e-05V37.0317H1.00002ZM27.1287 37.0317H26.1287V38.0317H27.1287V37.0317ZM27.1287 32.1307V31.1307H26.1287V32.1307H27.1287ZM43.764 32.1307H44.764V31.1307H43.764V32.1307ZM43.764 37.0317V38.0317H44.764V37.0317H43.764ZM27.1287 8.94481H26.1287V9.94481H27.1287V8.94481ZM27.1287 4.04374V3.04374H26.1287V4.04374H27.1287ZM43.764 4.04374H44.764V3.04374H43.764V4.04374ZM43.764 8.94481V9.94481H44.764V8.94481H43.764ZM27.1287 21.763H26.1287V22.763H27.1287V21.763ZM27.1287 16.9562V15.9562H26.1287V16.9562H27.1287ZM42.8215 16.9562H43.8215V15.9562H42.8215V16.9562ZM42.8215 21.763V22.763H43.8215V21.763H42.8215ZM23.6885 4.04374V3.04374H22.6885V4.04374H23.6885ZM29.1551 4.04374H30.1551V3.04374H29.1551V4.04374ZM29.1551 37.0317V38.0317H30.1551V37.0317H29.1551ZM23.6885 37.0317H22.6885V38.0317H23.6885V37.0317ZM27.1287 37.0317H28.1287V32.1307H27.1287H26.1287V37.0317H27.1287ZM27.1287 32.1307V33.1307H43.764V32.1307V31.1307H27.1287V32.1307ZM43.764 32.1307H42.764V37.0317H43.764H44.764V32.1307H43.764ZM43.764 37.0317V36.0317H27.1287V37.0317V38.0317H43.764V37.0317ZM27.1287 8.94481H28.1287V4.04374H27.1287H26.1287V8.94481H27.1287ZM27.1287 4.04374V5.04374H43.764V4.04374V3.04374H27.1287V4.04374ZM43.764 4.04374H42.764V8.94481H43.764H44.764V4.04374H43.764ZM43.764 8.94481V7.94481H27.1287V8.94481V9.94481H43.764V8.94481ZM27.1287 21.763H28.1287V16.9562H27.1287H26.1287V21.763H27.1287ZM27.1287 16.9562V17.9562H42.8215V16.9562V15.9562H27.1287V16.9562ZM42.8215 16.9562H41.8215V21.763H42.8215H43.8215V16.9562H42.8215ZM42.8215 21.763V20.763H27.1287V21.763V22.763H42.8215V21.763ZM23.6885 4.04374V5.04374H29.1551V4.04374V3.04374H23.6885V4.04374ZM29.1551 4.04374H28.1551V37.0317H29.1551H30.1551V4.04374H29.1551ZM29.1551 37.0317V36.0317H23.6885V37.0317V38.0317H29.1551V37.0317ZM23.6885 37.0317H24.6885V4.04374H23.6885H22.6885V37.0317H23.6885ZM47.3121 9.18044H46.3121V10.1804H47.3121V9.18044ZM47.3121 4.04374V3.04374H46.3121V4.04374H47.3121ZM70.3094 4.04374H71.3094V3.04374H70.3094V4.04374ZM70.3094 9.18044V10.1804H71.3094V9.18044H70.3094ZM61.5912 9.18044V8.18044H60.5912V9.18044H61.5912ZM61.5912 37.0317V38.0317H62.5912V37.0317H61.5912ZM55.9832 37.0317H54.9832V38.0317H55.9832V37.0317ZM55.9832 9.18044H56.9832V8.18044H55.9832V9.18044ZM47.3121 9.18044H48.3121V4.04374H47.3121H46.3121V9.18044H47.3121ZM47.3121 4.04374V5.04374H70.3094V4.04374V3.04374H47.3121V4.04374ZM70.3094 4.04374H69.3094V9.18044H70.3094H71.3094V4.04374H70.3094ZM70.3094 9.18044V8.18044H61.5912V9.18044V10.1804H70.3094V9.18044ZM61.5912 9.18044H60.5912V37.0317H61.5912H62.5912V9.18044H61.5912ZM61.5912 37.0317V36.0317H55.9832V37.0317V38.0317H61.5912V37.0317ZM55.9832 37.0317H56.9832V9.18044H55.9832H54.9832V37.0317H55.9832ZM55.9832 9.18044V8.18044H47.3121V9.18044V10.1804H55.9832V9.18044ZM75.7716 4.04374V3.04374H74.9845L74.7996 3.80883L75.7716 4.04374ZM81.3796 4.04374L82.3013 4.43162L82.8853 3.04374H81.3796V4.04374ZM76.6199 15.3539V16.3539H77.284L77.5416 15.7418L76.6199 15.3539ZM73.0383 15.3539L72.0663 15.119L71.7679 16.3539H73.0383V15.3539ZM75.7716 4.04374V5.04374H81.3796V4.04374V3.04374H75.7716V4.04374ZM81.3796 4.04374L80.4579 3.65585L75.6982 14.966L76.6199 15.3539L77.5416 15.7418L82.3013 4.43162L81.3796 4.04374ZM76.6199 15.3539V14.3539H73.0383V15.3539V16.3539H76.6199V15.3539ZM73.0383 15.3539L74.0103 15.5888L76.7436 4.27864L75.7716 4.04374L74.7996 3.80883L72.0663 15.119L73.0383 15.3539ZM90.5161 26.4285L91.383 25.93L90.8406 24.9867L89.9464 25.6066L90.5161 26.4285ZM92.8252 29.7744L92.059 30.417L92.0702 30.4304L92.0819 30.4433L92.8252 29.7744ZM95.6056 31.9893L95.1365 32.8724L95.1474 32.8782L95.1584 32.8837L95.6056 31.9893ZM103.193 25.4388L102.409 26.0595L102.415 26.0677L102.422 26.0757L103.193 25.4388ZM100.695 23.5538L100.237 24.4428L100.253 24.451L100.269 24.4586L100.695 23.5538ZM97.0665 21.9986L97.4083 21.0588L97.401 21.0562L97.3936 21.0536L97.0665 21.9986ZM94.3332 20.8676L93.886 21.762L93.8973 21.7677L93.9088 21.7731L94.3332 20.8676ZM91.4586 19.0297L90.821 19.8001L90.829 19.8067L90.8372 19.8132L91.4586 19.0297ZM89.1965 16.2964L88.3176 16.7736L88.3236 16.7842L89.1965 16.2964ZM89.6678 7.71954L90.4907 8.28777L90.4969 8.27868L89.6678 7.71954ZM93.3436 4.60925L93.7685 5.51452L93.7763 5.51077L93.3436 4.60925ZM103.758 4.51499L104.19 3.61286L104.19 3.61286L103.758 4.51499ZM107.387 7.15404L106.648 7.82779L106.653 7.83364L106.659 7.8394L107.387 7.15404ZM109.743 10.5L110.234 11.3715L111.055 10.9097L110.643 10.0625L109.743 10.5ZM105.219 13.0448L104.325 13.492L104.794 14.4311L105.71 13.9163L105.219 13.0448ZM103.664 10.7827L102.91 11.4389L102.917 11.4472L102.924 11.4554L103.664 10.7827ZM101.449 9.08619L100.975 9.96666L100.995 9.97738L101.015 9.98719L101.449 9.08619ZM95.1815 9.51032L95.8727 10.233L95.8807 10.2253L95.8886 10.2174L95.1815 9.51032ZM94.8516 14.27L94.0429 14.8582L94.0581 14.8791L94.0744 14.8992L94.8516 14.27ZM101.591 17.9929L101.254 18.9347L101.256 18.9354L101.591 17.9929ZM104.512 19.3125L104.032 20.1894L104.043 20.1956L104.512 19.3125ZM107.246 21.3389L106.539 22.046L106.546 22.0529L106.553 22.0597L107.246 21.3389ZM109.178 24.1193L108.263 24.5229L108.268 24.5341L108.273 24.5451L109.178 24.1193ZM109.036 32.0364L108.137 31.5984L109.036 32.0364ZM106.586 35.1467L107.205 35.9322L107.212 35.9265L107.219 35.9207L106.586 35.1467ZM103.051 37.0317L102.735 36.0831L102.722 36.0876L102.708 36.0926L103.051 37.0317ZM93.5792 36.6076L93.1459 37.5089L93.1563 37.5138L93.1667 37.5186L93.5792 36.6076ZM89.2908 33.4973L88.5662 34.1865L88.5662 34.1865L89.2908 33.4973ZM86.369 29.3031L85.7993 28.4813L85.0989 28.9667L85.4672 29.7352L86.369 29.3031ZM90.5161 26.4285L89.6491 26.9269C90.397 28.2276 91.1996 29.3923 92.059 30.417L92.8252 29.7744L93.5914 29.1318C92.8171 28.2086 92.0803 27.1427 91.383 25.93L90.5161 26.4285ZM92.8252 29.7744L92.0819 30.4433C92.9995 31.4629 94.0169 32.2776 95.1365 32.8724L95.6056 31.9893L96.0748 31.1062C95.1837 30.6328 94.3475 29.9709 93.5685 29.1054L92.8252 29.7744ZM95.6056 31.9893L95.1584 32.8837C96.3183 33.4637 97.6053 33.7433 98.9987 33.7433V32.7433V31.7433C97.8787 31.7433 96.9037 31.5203 96.0528 31.0949L95.6056 31.9893ZM98.9987 32.7433V33.7433C100.695 33.7433 102.169 33.2795 103.329 32.2737L102.674 31.518L102.02 30.7623C101.295 31.3903 100.319 31.7433 98.9987 31.7433V32.7433ZM102.674 31.518L103.329 32.2737C104.499 31.2599 105.088 29.9278 105.088 28.3606H104.088H103.088C103.088 29.3696 102.735 30.1424 102.02 30.7623L102.674 31.518ZM104.088 28.3606H105.088C105.088 26.9752 104.749 25.7525 103.964 24.8019L103.193 25.4388L102.422 26.0757C102.83 26.5703 103.088 27.2955 103.088 28.3606H104.088ZM103.193 25.4388L103.977 24.8181C103.265 23.9186 102.298 23.2027 101.121 22.649L100.695 23.5538L100.269 24.4586C101.229 24.9102 101.927 25.451 102.409 26.0595L103.193 25.4388ZM100.695 23.5538L101.153 22.6648C100.071 22.1071 98.8206 21.5724 97.4083 21.0588L97.0665 21.9986L96.7248 22.9384C98.0771 23.4302 99.2463 23.9323 100.237 24.4428L100.695 23.5538ZM97.0665 21.9986L97.3936 21.0536C96.6177 20.785 95.7397 20.4225 94.7577 19.9622L94.3332 20.8676L93.9088 21.7731C94.9375 22.2553 95.8817 22.6467 96.7394 22.9436L97.0665 21.9986ZM94.3332 20.8676L94.7804 19.9732C93.8389 19.5024 92.9388 18.9274 92.08 18.2462L91.4586 19.0297L90.8372 19.8132C91.8005 20.5772 92.8168 21.2275 93.886 21.762L94.3332 20.8676ZM91.4586 19.0297L92.0961 18.2593C91.2836 17.5869 90.6082 16.7727 90.0695 15.8086L89.1965 16.2964L88.3236 16.7842C88.9787 17.9566 89.8113 18.9645 90.821 19.8001L91.4586 19.0297ZM89.1965 16.2964L90.0754 15.8193C89.5743 14.8962 89.3011 13.7486 89.3011 12.3379H88.3011H87.3011C87.3011 14.006 87.6249 15.4974 88.3177 16.7735L89.1965 16.2964ZM88.3011 12.3379H89.3011C89.3011 10.7608 89.7061 9.424 90.4907 8.28773L89.6678 7.71954L88.8449 7.15135C87.8073 8.65412 87.3011 10.3962 87.3011 12.3379H88.3011ZM89.6678 7.71954L90.4969 8.27868C91.3025 7.08419 92.3851 6.16383 93.7685 5.51448L93.3436 4.60925L92.9187 3.70401C91.2232 4.49985 89.8553 5.65303 88.8387 7.1604L89.6678 7.71954ZM93.3436 4.60925L93.7763 5.51077C95.1949 4.82988 96.8189 4.47823 98.6688 4.47823V3.47823V2.47823C96.5602 2.47823 94.6341 2.88059 92.9109 3.70772L93.3436 4.60925ZM98.6688 3.47823V4.47823C100.499 4.47823 102.042 4.80278 103.327 5.41713L103.758 4.51499L104.19 3.61286C102.584 2.84486 100.734 2.47823 98.6688 2.47823V3.47823ZM103.758 4.51499L103.327 5.41713C104.668 6.05872 105.77 6.86463 106.648 7.82779L107.387 7.15404L108.126 6.48028C107.056 5.30707 105.739 4.35362 104.19 3.61286L103.758 4.51499ZM107.387 7.15404L106.659 7.8394C107.604 8.8438 108.328 9.87708 108.844 10.9374L109.743 10.5L110.643 10.0625C110.027 8.79797 109.181 7.60064 108.115 6.46867L107.387 7.15404ZM109.743 10.5L109.253 9.62839L104.729 12.1732L105.219 13.0448L105.71 13.9163L110.234 11.3715L109.743 10.5ZM105.219 13.0448L106.114 12.5975C105.663 11.697 105.093 10.8674 104.404 10.11L103.664 10.7827L102.924 11.4554C103.492 12.0804 103.958 12.7588 104.325 13.492L105.219 13.0448ZM103.664 10.7827L104.419 10.1265C103.703 9.30318 102.856 8.6536 101.883 8.18519L101.449 9.08619L101.015 9.98719C101.739 10.3356 102.369 10.8171 102.91 11.4389L103.664 10.7827ZM101.449 9.08619L101.923 8.20572C100.936 7.67408 99.809 7.42643 98.5745 7.42643V8.42643V9.42643C99.5393 9.42643 100.329 9.61862 100.975 9.96666L101.449 9.08619ZM98.5745 8.42643V7.42643C96.9024 7.42643 95.461 7.81655 94.4744 8.80321L95.1815 9.51032L95.8886 10.2174C96.3471 9.7589 97.1678 9.42643 98.5745 9.42643V8.42643ZM95.1815 9.51032L94.4903 8.78768C93.5839 9.65466 93.0976 10.7274 93.0976 11.9609H94.0976H95.0976C95.0976 11.3093 95.3339 10.7483 95.8727 10.233L95.1815 9.51032ZM94.0976 11.9609H93.0976C93.0976 13.0222 93.4169 13.9975 94.0429 14.8582L94.8516 14.27L95.6604 13.6818C95.281 13.1602 95.0976 12.5961 95.0976 11.9609H94.0976ZM94.8516 14.27L94.0744 14.8992C94.7206 15.6975 95.6599 16.4014 96.8251 17.0339L97.3022 16.155L97.7792 15.2762C96.7452 14.7149 96.0508 14.162 95.6289 13.6408L94.8516 14.27ZM97.3022 16.155L96.8251 17.0339C97.9861 17.6642 99.4676 18.2966 101.254 18.9347L101.591 17.9929L101.927 17.0512C100.195 16.4326 98.8174 15.8398 97.7792 15.2762L97.3022 16.155ZM101.591 17.9929L101.256 18.9354C102.176 19.2618 103.101 19.679 104.032 20.1893L104.512 19.3125L104.993 18.4357C103.976 17.8777 102.953 17.4153 101.925 17.0505L101.591 17.9929ZM104.512 19.3125L104.043 20.1956C104.96 20.6824 105.791 21.2982 106.539 22.046L107.246 21.3389L107.953 20.6318C107.067 19.7458 106.076 19.0107 104.982 18.4294L104.512 19.3125ZM107.246 21.3389L106.553 22.0597C107.273 22.7521 107.843 23.5702 108.263 24.5229L109.178 24.1193L110.093 23.7157C109.571 22.532 108.852 21.4965 107.939 20.618L107.246 21.3389ZM109.178 24.1193L108.273 24.5451C108.701 25.4536 108.932 26.559 108.932 27.8893H109.932H110.932C110.932 26.3293 110.66 24.9213 110.083 23.6935L109.178 24.1193ZM109.932 27.8893H108.932C108.932 29.2968 108.66 30.5263 108.137 31.5984L109.036 32.0364L109.935 32.4744C110.607 31.096 110.932 29.5608 110.932 27.8893H109.932ZM109.036 32.0364L108.137 31.5984C107.603 32.6962 106.876 33.6176 105.953 34.3728L106.586 35.1467L107.219 35.9207C108.37 34.9793 109.276 33.8272 109.935 32.4744L109.036 32.0364ZM106.586 35.1467L105.967 34.3612C105.026 35.1028 103.951 35.6777 102.735 36.0831L103.051 37.0317L103.368 37.9804C104.791 37.506 106.073 36.8243 107.205 35.9322L106.586 35.1467ZM103.051 37.0317L102.708 36.0926C101.533 36.5224 100.299 36.7386 98.9987 36.7386V37.7386V38.7386C100.526 38.7386 101.994 38.4836 103.395 37.9709L103.051 37.0317ZM98.9987 37.7386V36.7386C97.1836 36.7386 95.5188 36.3882 93.9917 35.6967L93.5792 36.6076L93.1667 37.5186C94.9698 38.3351 96.9181 38.7386 98.9987 38.7386V37.7386ZM93.5792 36.6076L94.0125 35.7064C92.4858 34.9723 91.1555 34.0067 90.0153 32.8081L89.2908 33.4973L88.5662 34.1865C89.8766 35.5641 91.4053 36.672 93.1459 37.5089L93.5792 36.6076ZM89.2908 33.4973L90.0153 32.8081C88.8577 31.5911 87.9454 30.2788 87.2708 28.871L86.369 29.3031L85.4672 29.7352C86.2378 31.3435 87.2733 32.8273 88.5662 34.1865L89.2908 33.4973ZM86.369 29.3031L86.9387 30.125L91.0857 27.2503L90.5161 26.4285L89.9464 25.6066L85.7993 28.4813L86.369 29.3031ZM135.422 26.6641L134.561 27.1718L134.568 27.1831L135.422 26.6641ZM139.57 30.764L139.072 31.6313L139.081 31.6367L139.091 31.6419L139.57 30.764ZM149.419 31.5652L149.728 32.5162L149.728 32.5162L149.419 31.5652ZM152.812 29.9158L153.378 30.7398L153.384 30.7362L152.812 29.9158ZM155.498 27.5123H156.498V24.8091L154.739 26.8616L155.498 27.5123ZM155.498 34.1099L156.131 34.8839L156.498 34.5838V34.1099H155.498ZM151.021 36.7019L151.37 37.6389L151.37 37.6389L151.021 36.7019ZM138.203 36.372L137.836 37.3024L137.841 37.3042L138.203 36.372ZM132.783 32.8375L132.076 33.5447L132.076 33.5447L132.783 32.8375ZM129.155 27.4181L128.227 27.7919L128.231 27.8003L128.234 27.8086L129.155 27.4181ZM129.155 13.7045L128.232 13.3189L128.229 13.3259L129.155 13.7045ZM132.783 8.23793L133.491 8.94503L133.491 8.94503L132.783 8.23793ZM138.203 4.7035L137.841 3.77122L137.836 3.77309L138.203 4.7035ZM151.021 4.37362L151.37 3.43654L151.37 3.43654L151.021 4.37362ZM155.498 6.96553H156.498V6.49165L156.131 6.19158L155.498 6.96553ZM155.498 13.5631L154.739 14.2139L156.498 16.2664V13.5631H155.498ZM152.812 11.2068L152.228 12.0189L152.242 12.0291L152.257 12.0389L152.812 11.2068ZM149.419 9.51032L149.728 8.55929L149.728 8.55928L149.419 9.51032ZM139.57 10.3586L140.055 11.2328L140.061 11.2297L139.57 10.3586ZM135.422 14.4114L134.568 13.8924L134.565 13.8969L135.422 14.4114ZM133.867 20.5377H132.867C132.867 23.016 133.422 25.2382 134.561 27.1718L135.422 26.6641L136.284 26.1564C135.35 24.5712 134.867 22.7092 134.867 20.5377H133.867ZM135.422 26.6641L134.568 27.1831C135.719 29.079 137.221 30.5688 139.072 31.6313L139.57 30.764L140.067 29.8968C138.525 29.0114 137.262 27.7679 136.277 26.1451L135.422 26.6641ZM139.57 30.764L139.091 31.6419C140.969 32.6663 143.003 33.1778 145.177 33.1778V32.1778V31.1778C143.33 31.1778 141.626 30.7467 140.048 29.8861L139.57 30.764ZM145.177 32.1778V33.1778C146.834 33.1778 148.355 32.9625 149.728 32.5162L149.419 31.5652L149.11 30.6141C147.97 30.9846 146.663 31.1778 145.177 31.1778V32.1778ZM149.419 31.5652L149.728 32.5162C151.068 32.0805 152.287 31.4898 153.378 30.7398L152.812 29.9158L152.245 29.0917C151.326 29.7241 150.282 30.233 149.11 30.6141L149.419 31.5652ZM152.812 29.9158L153.384 30.7362C154.484 29.9695 155.443 29.1126 156.257 28.1631L155.498 27.5123L154.739 26.8616C154.045 27.6715 153.214 28.4168 152.24 29.0954L152.812 29.9158ZM155.498 27.5123H154.498V34.1099H155.498H156.498V27.5123H155.498ZM155.498 34.1099L154.865 33.336C153.564 34.4005 152.167 35.2079 150.672 35.7648L151.021 36.7019L151.37 37.6389C153.08 37.0019 154.668 36.0814 156.131 34.8839L155.498 34.1099ZM151.021 36.7019L150.672 35.7648C149.217 36.3067 147.334 36.5972 144.989 36.5972V37.5972V38.5972C147.482 38.5972 149.62 38.2909 151.37 37.6389L151.021 36.7019ZM144.989 37.5972V36.5972C142.685 36.5972 140.546 36.2087 138.565 35.4397L138.203 36.372L137.841 37.3042C140.069 38.169 142.455 38.5972 144.989 38.5972V37.5972ZM138.203 36.372L138.569 35.4416C136.62 34.6738 134.931 33.5705 133.491 32.1304L132.783 32.8375L132.076 33.5447C133.715 35.1834 135.638 36.4365 137.836 37.3024L138.203 36.372ZM132.783 32.8375L133.491 32.1304C132.045 30.685 130.907 28.987 130.075 27.0275L129.155 27.4181L128.234 27.8086C129.162 29.9963 130.443 31.9112 132.076 33.5447L132.783 32.8375ZM129.155 27.4181L130.082 27.0443C129.286 25.0688 128.882 22.9037 128.882 20.5377H127.882H126.882C126.882 23.1357 127.327 25.5574 128.227 27.7919L129.155 27.4181ZM127.882 20.5377H128.882C128.882 18.1716 129.286 16.0242 130.08 14.0831L129.155 13.7045L128.229 13.3259C127.327 15.5319 126.882 17.94 126.882 20.5377H127.882ZM129.155 13.7045L130.077 14.0901C130.909 12.0995 132.048 10.388 133.491 8.94503L132.783 8.23793L132.076 7.53082C130.44 9.16675 129.16 11.0996 128.232 13.3189L129.155 13.7045ZM132.783 8.23793L133.491 8.94503C134.931 7.50493 136.62 6.40169 138.569 5.6339L138.203 4.7035L137.836 3.77309C135.638 4.639 133.715 5.89204 132.076 7.53082L132.783 8.23793ZM138.203 4.7035L138.565 5.63576C140.546 4.8668 142.685 4.47823 144.989 4.47823V3.47823V2.47823C142.455 2.47823 140.069 2.90651 137.841 3.77123L138.203 4.7035ZM144.989 3.47823V4.47823C147.334 4.47823 149.217 4.76876 150.672 5.3107L151.021 4.37362L151.37 3.43654C149.62 2.78462 147.482 2.47823 144.989 2.47823V3.47823ZM151.021 4.37362L150.672 5.3107C152.167 5.86755 153.564 6.67496 154.865 7.73949L155.498 6.96553L156.131 6.19158C154.668 4.99407 153.08 4.07354 151.37 3.43654L151.021 4.37362ZM155.498 6.96553H154.498V13.5631H155.498H156.498V6.96553H155.498ZM155.498 13.5631L156.257 12.9123C155.439 11.9581 154.474 11.1129 153.367 10.3748L152.812 11.2068L152.257 12.0389C153.223 12.6831 154.049 13.4088 154.739 14.2139L155.498 13.5631ZM152.812 11.2068L153.395 10.3948C152.301 9.60808 151.076 8.99746 149.728 8.55929L149.419 9.51032L149.11 10.4614C150.275 10.84 151.312 11.3604 152.228 12.0189L152.812 11.2068ZM149.419 9.51032L149.728 8.55928C148.355 8.11297 146.834 7.89769 145.177 7.89769V8.89769V9.89769C146.663 9.89769 147.97 10.0908 149.11 10.4614L149.419 9.51032ZM145.177 8.89769V7.89769C142.997 7.89769 140.958 8.42783 139.078 9.48743L139.57 10.3586L140.061 11.2297C141.636 10.3415 143.336 9.89769 145.177 9.89769V8.89769ZM139.57 10.3586L139.084 9.48443C137.226 10.5164 135.72 11.9939 134.568 13.8924L135.422 14.4114L136.277 14.9304C137.261 13.3101 138.52 12.0858 140.055 11.2327L139.57 10.3586ZM135.422 14.4114L134.565 13.8969C133.42 15.8049 132.867 18.0313 132.867 20.5377H133.867H134.867C134.867 18.3316 135.351 16.4738 136.28 14.9259L135.422 14.4114ZM167.77 26.617L166.885 27.0827L166.89 27.092L166.895 27.1013L167.77 26.617ZM171.776 30.764L172.285 29.9037L172.285 29.9037L171.776 30.764ZM183.368 30.764L182.859 29.9037L182.852 29.908L183.368 30.764ZM187.327 26.617L186.448 26.1392L186.446 26.1447L187.327 26.617ZM187.374 14.5056L186.489 14.9714L186.493 14.9779L187.374 14.5056ZM183.416 10.3115L182.899 11.1676L182.906 11.1717L183.416 10.3115ZM171.776 10.3115L172.285 11.1717L172.285 11.1717L171.776 10.3115ZM167.77 14.5056L166.891 14.0279L166.888 14.0334L167.77 14.5056ZM161.738 13.7045L160.812 13.3259L161.738 13.7045ZM165.319 8.33218L166.019 9.04654L166.019 9.04639L165.319 8.33218ZM170.786 4.75062L170.412 3.82309L170.407 3.82507L170.786 4.75062ZM184.405 4.75062L184.784 3.82507L184.784 3.82507L184.405 4.75062ZM189.825 8.33218L189.118 9.03928L189.125 9.0465L189.132 9.05357L189.825 8.33218ZM189.872 32.8375L190.579 33.5447L190.579 33.5447L189.872 32.8375ZM184.405 36.4662L184.784 37.3918L184.791 37.3889L184.405 36.4662ZM170.739 36.4662L170.353 37.389L170.365 37.3937L170.739 36.4662ZM165.272 32.8375L164.558 33.5374L164.565 33.5447L165.272 32.8375ZM161.738 27.371L160.81 27.7447L161.738 27.371ZM166.356 20.5377H165.356C165.356 22.9427 165.858 25.1321 166.885 27.0827L167.77 26.617L168.655 26.1512C167.796 24.5203 167.356 22.6569 167.356 20.5377H166.356ZM167.77 26.617L166.895 27.1013C167.953 29.013 169.413 30.5265 171.266 31.6243L171.776 30.764L172.285 29.9037C170.745 28.9909 169.534 27.7397 168.645 26.1326L167.77 26.617ZM171.776 30.764L171.266 31.6243C173.132 32.73 175.243 33.272 177.572 33.272V32.272V31.272C175.565 31.272 173.812 30.8087 172.285 29.9037L171.776 30.764ZM177.572 32.272V33.272C179.929 33.272 182.045 32.7314 183.885 31.6201L183.368 30.764L182.852 29.908C181.362 30.8073 179.613 31.272 177.572 31.272V32.272ZM183.368 30.764L183.878 31.6243C185.734 30.5248 187.181 29.0073 188.208 27.0892L187.327 26.617L186.446 26.1447C185.588 27.7453 184.396 28.9926 182.859 29.9037L183.368 30.764ZM187.327 26.617L188.205 27.0947C189.268 25.1418 189.788 22.948 189.788 20.5377H188.788H187.788C187.788 22.6515 187.334 24.5106 186.449 26.1392L187.327 26.617ZM188.788 20.5377H189.788C189.788 18.1332 189.286 15.9564 188.256 14.0334L187.374 14.5056L186.493 14.9779C187.347 16.5736 187.788 18.4182 187.788 20.5377H188.788ZM187.374 14.5056L188.259 14.0399C187.233 12.09 185.785 10.5534 183.925 9.45117L183.416 10.3115L182.906 11.1717C184.439 12.0802 185.63 13.3398 186.489 14.9714L187.374 14.5056ZM183.416 10.3115L183.932 9.45539C182.09 8.34272 179.958 7.80343 177.572 7.80343V8.80343V9.80343C179.648 9.80343 181.411 10.2695 182.899 11.1675L183.416 10.3115ZM177.572 8.80343V7.80343C175.243 7.80343 173.132 8.34545 171.266 9.45117L171.776 10.3115L172.285 11.1717C173.812 10.2668 175.565 9.80343 177.572 9.80343V8.80343ZM171.776 10.3115L171.266 9.45117C169.409 10.5516 167.948 12.0843 166.891 14.0279L167.77 14.5056L168.648 14.9834C169.539 13.3455 170.749 12.082 172.285 11.1717L171.776 10.3115ZM167.77 14.5056L166.888 14.0334C165.858 15.9564 165.356 18.1332 165.356 20.5377H166.356H167.356C167.356 18.4182 167.796 16.5736 168.651 14.9779L167.77 14.5056ZM160.465 20.5377H161.465C161.465 18.1716 161.869 16.0242 162.663 14.0831L161.738 13.7045L160.812 13.3259C159.91 15.5319 159.465 17.94 159.465 20.5377H160.465ZM161.738 13.7045L162.663 14.0831C163.462 12.1306 164.581 10.4554 166.019 9.04654L165.319 8.33218L164.62 7.61782C162.979 9.22498 161.71 11.1313 160.812 13.3259L161.738 13.7045ZM165.319 8.33218L166.019 9.04639C167.496 7.59923 169.208 6.47637 171.165 5.67617L170.786 4.75062L170.407 3.82507C168.216 4.7214 166.284 5.98625 164.619 7.61796L165.319 8.33218ZM170.786 4.75062L171.16 5.67814C173.138 4.88085 175.272 4.47823 177.572 4.47823V3.47823V2.47823C175.033 2.47823 172.644 2.92387 170.412 3.8231L170.786 4.75062ZM177.572 3.47823V4.47823C179.938 4.47823 182.086 4.88212 184.027 5.67617L184.405 4.75062L184.784 3.82507C182.578 2.9226 180.17 2.47823 177.572 2.47823V3.47823ZM184.405 4.75062L184.027 5.67617C185.981 6.47564 187.675 7.59649 189.118 9.03928L189.825 8.33218L190.532 7.62507C188.896 5.98898 186.977 4.72213 184.784 3.82507L184.405 4.75062ZM189.825 8.33218L189.132 9.05357C190.599 10.462 191.731 12.1351 192.528 14.0831L193.453 13.7045L194.379 13.3259C193.479 11.1269 192.192 9.21836 190.517 7.61079L189.825 8.33218ZM193.453 13.7045L192.528 14.0831C193.322 16.0242 193.726 18.1716 193.726 20.5377H194.726H195.726C195.726 17.94 195.281 15.5319 194.379 13.3259L193.453 13.7045ZM194.726 20.5377H193.726C193.726 22.8705 193.323 25.0202 192.526 26.9972L193.453 27.371L194.381 27.7447C195.281 25.5118 195.726 23.1061 195.726 20.5377H194.726ZM193.453 27.371L192.526 26.9972C191.726 28.9827 190.605 30.6902 189.165 32.1304L189.872 32.8375L190.579 33.5447C192.218 31.906 193.484 29.9691 194.381 27.7447L193.453 27.371ZM189.872 32.8375L189.165 32.1304C187.722 33.5734 186.01 34.7117 184.02 35.5436L184.405 36.4662L184.791 37.3889C187.01 36.4614 188.943 35.1806 190.579 33.5447L189.872 32.8375ZM184.405 36.4662L184.027 35.5407C182.086 36.3347 179.938 36.7386 177.572 36.7386V37.7386V38.7386C180.17 38.7386 182.578 38.2942 184.784 37.3918L184.405 36.4662ZM177.572 37.7386V36.7386C175.239 36.7386 173.089 36.3354 171.113 35.5387L170.739 36.4662L170.365 37.3937C172.598 38.2936 175.004 38.7386 177.572 38.7386V37.7386ZM170.739 36.4662L171.124 35.5436C169.134 34.7117 167.422 33.5734 165.979 32.1304L165.272 32.8375L164.565 33.5447C166.201 35.1806 168.134 36.4614 170.353 37.3889L170.739 36.4662ZM165.272 32.8375L165.987 32.1378C164.575 30.6969 163.467 28.9871 162.665 26.9972L161.738 27.371L160.81 27.7447C161.705 29.9647 162.953 31.8993 164.558 33.5373L165.272 32.8375ZM161.738 27.371L162.665 26.9972C161.869 25.0202 161.465 22.8705 161.465 20.5377H160.465H159.465C159.465 23.1061 159.91 25.5118 160.81 27.7447L161.738 27.371ZM224.215 4.04374V3.04374H223.215V4.04374H224.215ZM229.682 4.04374H230.682V3.04374H229.682V4.04374ZM229.682 38.6811L228.979 39.3924L230.682 41.0753V38.6811H229.682ZM205.6 14.8827L206.303 14.1714L204.6 12.4885V14.8827H205.6ZM205.6 37.0317V38.0317H206.6V37.0317H205.6ZM200.134 37.0317H199.134V38.0317H200.134V37.0317ZM200.134 2.39434L200.837 1.68307L199.134 0.000144638V2.39434H200.134ZM224.215 26.1928L223.512 26.9041L225.215 28.587V26.1928H224.215ZM224.215 4.04374V5.04374H229.682V4.04374V3.04374H224.215V4.04374ZM229.682 4.04374H228.682V38.6811H229.682H230.682V4.04374H229.682ZM229.682 38.6811L230.385 37.9699L206.303 14.1714L205.6 14.8827L204.897 15.5939L228.979 39.3924L229.682 38.6811ZM205.6 14.8827H204.6V37.0317H205.6H206.6V14.8827H205.6ZM205.6 37.0317V36.0317H200.134V37.0317V38.0317H205.6V37.0317ZM200.134 37.0317H201.134V2.39434H200.134H199.134V37.0317H200.134ZM200.134 2.39434L199.431 3.10561L223.512 26.9041L224.215 26.1928L224.918 25.4816L200.837 1.68307L200.134 2.39434ZM224.215 26.1928H225.215V4.04374H224.215H223.215V26.1928H224.215ZM261.078 4.04374V3.04374H260.078V4.04374H261.078ZM266.545 4.04374H267.545V3.04374H266.545V4.04374ZM266.545 38.6811L265.842 39.3924L267.545 41.0753V38.6811H266.545ZM242.463 14.8827L243.166 14.1714L241.463 12.4885V14.8827H242.463ZM242.463 37.0317V38.0317H243.463V37.0317H242.463ZM236.997 37.0317H235.997V38.0317H236.997V37.0317ZM236.997 2.39434L237.7 1.68307L235.997 0.000144638V2.39434H236.997ZM261.078 26.1928L260.375 26.9041L262.078 28.587V26.1928H261.078ZM261.078 4.04374V5.04374H266.545V4.04374V3.04374H261.078V4.04374ZM266.545 4.04374H265.545V38.6811H266.545H267.545V4.04374H266.545ZM266.545 38.6811L267.248 37.9699L243.166 14.1714L242.463 14.8827L241.76 15.5939L265.842 39.3924L266.545 38.6811ZM242.463 14.8827H241.463V37.0317H242.463H243.463V14.8827H242.463ZM242.463 37.0317V36.0317H236.997V37.0317V38.0317H242.463V37.0317ZM236.997 37.0317H237.997V2.39434H236.997H235.997V37.0317H236.997ZM236.997 2.39434L236.294 3.10561L260.375 26.9041L261.078 26.1928L261.781 25.4816L237.7 1.68307L236.997 2.39434ZM261.078 26.1928H262.078V4.04374H261.078H260.078V26.1928H261.078ZM277.3 37.0317H276.3V38.0317H277.3V37.0317ZM277.3 32.1307V31.1307H276.3V32.1307H277.3ZM293.935 32.1307H294.935V31.1307H293.935V32.1307ZM293.935 37.0317V38.0317H294.935V37.0317H293.935ZM277.3 8.94481H276.3V9.94481H277.3V8.94481ZM277.3 4.04374V3.04374H276.3V4.04374H277.3ZM293.935 4.04374H294.935V3.04374H293.935V4.04374ZM293.935 8.94481V9.94481H294.935V8.94481H293.935ZM277.3 21.763H276.3V22.763H277.3V21.763ZM277.3 16.9562V15.9562H276.3V16.9562H277.3ZM292.993 16.9562H293.993V15.9562H292.993V16.9562ZM292.993 21.763V22.763H293.993V21.763H292.993ZM273.86 4.04374V3.04374H272.86V4.04374H273.86ZM279.326 4.04374H280.326V3.04374H279.326V4.04374ZM279.326 37.0317V38.0317H280.326V37.0317H279.326ZM273.86 37.0317H272.86V38.0317H273.86V37.0317ZM277.3 37.0317H278.3V32.1307H277.3H276.3V37.0317H277.3ZM277.3 32.1307V33.1307H293.935V32.1307V31.1307H277.3V32.1307ZM293.935 32.1307H292.935V37.0317H293.935H294.935V32.1307H293.935ZM293.935 37.0317V36.0317H277.3V37.0317V38.0317H293.935V37.0317ZM277.3 8.94481H278.3V4.04374H277.3H276.3V8.94481H277.3ZM277.3 4.04374V5.04374H293.935V4.04374V3.04374H277.3V4.04374ZM293.935 4.04374H292.935V8.94481H293.935H294.935V4.04374H293.935ZM293.935 8.94481V7.94481H277.3V8.94481V9.94481H293.935V8.94481ZM277.3 21.763H278.3V16.9562H277.3H276.3V21.763H277.3ZM277.3 16.9562V17.9562H292.993V16.9562V15.9562H277.3V16.9562ZM292.993 16.9562H291.993V21.763H292.993H293.993V16.9562H292.993ZM292.993 21.763V20.763H277.3V21.763V22.763H292.993V21.763ZM273.86 4.04374V5.04374H279.326V4.04374V3.04374H273.86V4.04374ZM279.326 4.04374H278.326V37.0317H279.326H280.326V4.04374H279.326ZM279.326 37.0317V36.0317H273.86V37.0317V38.0317H279.326V37.0317ZM273.86 37.0317H274.86V4.04374H273.86H272.86V37.0317H273.86ZM306.437 26.6641L305.576 27.1718L305.582 27.1831L306.437 26.6641ZM310.584 30.764L310.086 31.6313L310.096 31.6367L310.105 31.6419L310.584 30.764ZM320.434 31.5652L320.743 32.5162L320.743 32.5162L320.434 31.5652ZM323.827 29.9158L324.393 30.7398L324.398 30.7362L323.827 29.9158ZM326.513 27.5123H327.513V24.8091L325.754 26.8616L326.513 27.5123ZM326.513 34.1099L327.146 34.8839L327.513 34.5838V34.1099H326.513ZM322.036 36.7019L322.385 37.6389L322.385 37.6389L322.036 36.7019ZM309.218 36.372L308.851 37.3024L308.856 37.3042L309.218 36.372ZM303.798 32.8375L303.091 33.5447L303.091 33.5447L303.798 32.8375ZM300.17 27.4181L299.242 27.7919L299.245 27.8003L299.249 27.8086L300.17 27.4181ZM300.17 13.7045L299.247 13.3189L299.244 13.3259L300.17 13.7045ZM303.798 8.23793L304.505 8.94503L304.505 8.94503L303.798 8.23793ZM309.218 4.7035L308.856 3.77122L308.851 3.77309L309.218 4.7035ZM322.036 4.37362L322.385 3.43654L322.385 3.43654L322.036 4.37362ZM326.513 6.96553H327.513V6.49165L327.146 6.19158L326.513 6.96553ZM326.513 13.5631L325.754 14.2139L327.513 16.2664V13.5631H326.513ZM323.827 11.2068L323.243 12.0189L323.257 12.0291L323.272 12.0389L323.827 11.2068ZM320.434 9.51032L320.743 8.55929L320.743 8.55928L320.434 9.51032ZM310.584 10.3586L311.07 11.2328L311.075 11.2297L310.584 10.3586ZM306.437 14.4114L305.582 13.8924L305.58 13.8969L306.437 14.4114ZM304.882 20.5377H303.882C303.882 23.016 304.436 25.2382 305.576 27.1718L306.437 26.6641L307.299 26.1564C306.365 24.5712 305.882 22.7092 305.882 20.5377H304.882ZM306.437 26.6641L305.582 27.1831C306.734 29.079 308.236 30.5688 310.086 31.6313L310.584 30.764L311.082 29.8968C309.54 29.0114 308.277 27.7679 307.292 26.1451L306.437 26.6641ZM310.584 30.764L310.105 31.6419C311.984 32.6663 314.018 33.1778 316.192 33.1778V32.1778V31.1778C314.345 31.1778 312.641 30.7467 311.063 29.8861L310.584 30.764ZM316.192 32.1778V33.1778C317.849 33.1778 319.369 32.9625 320.743 32.5162L320.434 31.5652L320.124 30.6141C318.984 30.9846 317.677 31.1778 316.192 31.1778V32.1778ZM320.434 31.5652L320.743 32.5162C322.083 32.0805 323.302 31.4898 324.393 30.7398L323.827 29.9158L323.26 29.0917C322.34 29.7241 321.297 30.233 320.124 30.6141L320.434 31.5652ZM323.827 29.9158L324.398 30.7362C325.498 29.9695 326.458 29.1126 327.272 28.1631L326.513 27.5123L325.754 26.8616C325.059 27.6715 324.228 28.4168 323.255 29.0954L323.827 29.9158ZM326.513 27.5123H325.513V34.1099H326.513H327.513V27.5123H326.513ZM326.513 34.1099L325.88 33.336C324.578 34.4005 323.181 35.2079 321.687 35.7648L322.036 36.7019L322.385 37.6389C324.095 37.0019 325.682 36.0814 327.146 34.8839L326.513 34.1099ZM322.036 36.7019L321.687 35.7648C320.232 36.3067 318.349 36.5972 316.004 36.5972V37.5972V38.5972C318.497 38.5972 320.635 38.2909 322.385 37.6389L322.036 36.7019ZM316.004 37.5972V36.5972C313.699 36.5972 311.561 36.2087 309.579 35.4397L309.218 36.372L308.856 37.3042C311.084 38.169 313.47 38.5972 316.004 38.5972V37.5972ZM309.218 36.372L309.584 35.4416C307.635 34.6738 305.945 33.5705 304.505 32.1304L303.798 32.8375L303.091 33.5447C304.73 35.1834 306.653 36.4365 308.851 37.3024L309.218 36.372ZM303.798 32.8375L304.505 32.1304C303.06 30.685 301.921 28.987 301.09 27.0275L300.17 27.4181L299.249 27.8086C300.177 29.9963 301.458 31.9112 303.091 33.5447L303.798 32.8375ZM300.17 27.4181L301.097 27.0443C300.301 25.0688 299.897 22.9037 299.897 20.5377H298.897H297.897C297.897 23.1357 298.342 25.5574 299.242 27.7919L300.17 27.4181ZM298.897 20.5377H299.897C299.897 18.1716 300.301 16.0242 301.095 14.0831L300.17 13.7045L299.244 13.3259C298.342 15.5319 297.897 17.94 297.897 20.5377H298.897ZM300.17 13.7045L301.092 14.0901C301.924 12.0995 303.062 10.388 304.505 8.94503L303.798 8.23793L303.091 7.53082C301.455 9.16675 300.174 11.0996 299.247 13.3189L300.17 13.7045ZM303.798 8.23793L304.505 8.94503C305.945 7.50493 307.635 6.40169 309.584 5.6339L309.218 4.7035L308.851 3.77309C306.653 4.639 304.73 5.89204 303.091 7.53082L303.798 8.23793ZM309.218 4.7035L309.579 5.63576C311.561 4.8668 313.699 4.47823 316.004 4.47823V3.47823V2.47823C313.47 2.47823 311.084 2.90651 308.856 3.77123L309.218 4.7035ZM316.004 3.47823V4.47823C318.349 4.47823 320.232 4.76876 321.687 5.3107L322.036 4.37362L322.385 3.43654C320.635 2.78462 318.497 2.47823 316.004 2.47823V3.47823ZM322.036 4.37362L321.687 5.3107C323.181 5.86755 324.578 6.67496 325.88 7.73949L326.513 6.96553L327.146 6.19158C325.682 4.99407 324.095 4.07354 322.385 3.43654L322.036 4.37362ZM326.513 6.96553H325.513V13.5631H326.513H327.513V6.96553H326.513ZM326.513 13.5631L327.272 12.9123C326.454 11.9581 325.489 11.1129 324.381 10.3748L323.827 11.2068L323.272 12.0389C324.238 12.6831 325.063 13.4088 325.754 14.2139L326.513 13.5631ZM323.827 11.2068L324.41 10.3948C323.316 9.60808 322.091 8.99746 320.743 8.55929L320.434 9.51032L320.124 10.4614C321.29 10.84 322.327 11.3604 323.243 12.0189L323.827 11.2068ZM320.434 9.51032L320.743 8.55928C319.369 8.11297 317.849 7.89769 316.192 7.89769V8.89769V9.89769C317.677 9.89769 318.984 10.0908 320.124 10.4614L320.434 9.51032ZM316.192 8.89769V7.89769C314.012 7.89769 311.973 8.42783 310.093 9.48743L310.584 10.3586L311.075 11.2297C312.651 10.3415 314.351 9.89769 316.192 9.89769V8.89769ZM310.584 10.3586L310.099 9.48443C308.241 10.5164 306.735 11.9939 305.582 13.8924L306.437 14.4114L307.292 14.9304C308.276 13.3101 309.534 12.0858 311.07 11.2327L310.584 10.3586ZM306.437 14.4114L305.58 13.8969C304.435 15.8049 303.882 18.0313 303.882 20.5377H304.882H305.882C305.882 18.3316 306.366 16.4738 307.295 14.9259L306.437 14.4114ZM328.64 9.18044H327.64V10.1804H328.64V9.18044ZM328.64 4.04374V3.04374H327.64V4.04374H328.64ZM351.637 4.04374H352.637V3.04374H351.637V4.04374ZM351.637 9.18044V10.1804H352.637V9.18044H351.637ZM342.919 9.18044V8.18044H341.919V9.18044H342.919ZM342.919 37.0317V38.0317H343.919V37.0317H342.919ZM337.311 37.0317H336.311V38.0317H337.311V37.0317ZM337.311 9.18044H338.311V8.18044H337.311V9.18044ZM328.64 9.18044H329.64V4.04374H328.64H327.64V9.18044H328.64ZM328.64 4.04374V5.04374H351.637V4.04374V3.04374H328.64V4.04374ZM351.637 4.04374H350.637V9.18044H351.637H352.637V4.04374H351.637ZM351.637 9.18044V8.18044H342.919V9.18044V10.1804H351.637V9.18044ZM342.919 9.18044H341.919V37.0317H342.919H343.919V9.18044H342.919ZM342.919 37.0317V36.0317H337.311V37.0317V38.0317H342.919V37.0317ZM337.311 37.0317H338.311V9.18044H337.311H336.311V37.0317H337.311ZM337.311 9.18044V8.18044H328.64V9.18044V10.1804H337.311V9.18044Z" fill="#F5F5F5" fill-opacity="0.05" mask="url(#path-1-outside-1_2583_17382)"/>
</svg>
