<svg width="20" height="20" viewBox="0 0 20 20" fill="none" xmlns="http://www.w3.org/2000/svg">
<path d="M7.51279 0.0267639C7.48592 0.0382786 7.43986 0.0958538 7.40915 0.153429C7.35925 0.24555 7.35158 0.514236 7.35158 1.76554V3.26251H3.85866H0.361908L0.269787 3.35847L0.173828 3.45059V11.4689V19.4873L0.262111 19.5679L0.350393 19.6523H6.38047C9.69682 19.6523 12.4413 19.6408 12.4758 19.6293C12.637 19.5641 12.6485 19.4643 12.6485 17.8867V16.3897H16.1414H19.6382L19.7303 16.2938L19.8263 16.2017V8.1833V0.164946L19.738 0.0843391L19.6497 -0.000104904L13.6043 0.00373268C10.2803 0.00373268 7.53966 0.0152493 7.51279 0.0267639ZM19.1354 8.19481V15.6988H15.8919H12.6485V9.62269C12.6485 4.84775 12.637 3.53119 12.5986 3.45443C12.5602 3.37766 11.071 2.28756 8.90612 0.748377C8.84087 0.702316 9.52026 0.694639 13.9843 0.694639L19.1354 0.690802V8.19481ZM11.1861 3.24715C11.1938 3.25483 10.4914 3.26251 9.62389 3.26251H8.04248V2.13019V1.00171L9.60854 2.11484C10.4683 2.73281 11.1784 3.23948 11.1861 3.24715ZM11.9576 11.4574V18.9614H6.41118H0.864735V11.4574V3.95341H6.41118H11.9576V11.4574Z" fill="#003253"/>
<path d="M13.7695 1.64919C13.5853 1.72595 13.5661 1.87181 13.5776 3.01181L13.5891 4.05968L13.6813 4.15948L13.7734 4.25928H15.8998C17.961 4.25928 18.0263 4.25544 18.0992 4.18251C18.1414 4.14029 18.1837 4.06736 18.1952 4.0213C18.2067 3.9714 18.2144 3.45322 18.2067 2.86979C18.1952 1.82191 18.1952 1.80272 18.1069 1.71828L18.0186 1.62999L15.9382 1.62232C14.7176 1.61848 13.8233 1.62999 13.7695 1.64919ZM17.5235 2.93504V3.56837H15.8922H14.2608V2.93504V2.30171H15.8922H17.5235V2.93504Z" fill="#003253"/>
<path d="M13.5701 5.25806V5.60352H13.9155H14.261V5.25806V4.91261H13.9155H13.5701V5.25806Z" fill="#003253"/>
<path d="M14.9133 5.25806V5.60352H16.5638H18.2143V5.25806V4.91261H16.5638H14.9133V5.25806Z" fill="#003253"/>
<path d="M13.5701 6.56275V6.9082H15.8923H18.2145V6.56275V6.2173H15.8923H13.5701V6.56275Z" fill="#003253"/>
<path d="M13.5701 7.86793V8.21338H15.8923H18.2145V7.86793V7.52247H15.8923H13.5701V7.86793Z" fill="#003253"/>
<path d="M13.6959 9.57255L13.5884 9.66467V10.8047V11.9447L13.6959 12.0368L13.8033 12.1289H15.9106H18.014L18.1138 12.0099L18.2136 11.8909V10.797V9.70306L18.1023 9.59174L17.991 9.48043H15.8952H13.8033L13.6959 9.57255ZM17.5227 10.8047V11.438H15.8914H14.2601V10.8047V10.1713H15.8914H17.5227V10.8047Z" fill="#003253"/>
<path d="M13.5701 13.0886V13.4341H13.9155H14.261V13.0886V12.7432H13.9155H13.5701V13.0886Z" fill="#003253"/>
<path d="M14.9133 13.0886V13.4341H16.5638H18.2143V13.0886V12.7432H16.5638H14.9133V13.0886Z" fill="#003253"/>
<path d="M13.5701 14.3928V14.7383H15.8923H18.2145V14.3928V14.0474H15.8923H13.5701V14.3928Z" fill="#003253"/>
<path d="M2.30437 5.26558C2.12396 5.36154 2.13164 5.23487 2.13164 8.85062V12.2744L2.25063 12.3742L2.36962 12.474H6.37688C10.791 12.474 10.5607 12.4856 10.649 12.2399C10.6797 12.1555 10.6912 11.1383 10.6912 8.8391C10.6912 5.33467 10.6912 5.36154 10.507 5.26174C10.3956 5.20033 2.41184 5.20417 2.30437 5.26558ZM10.0003 7.95244V9.99829L9.26333 9.26132C8.85646 8.85829 8.48414 8.51668 8.43808 8.50516C8.27687 8.45526 8.09647 8.59345 7.4094 9.28435L6.71849 9.9791L5.81647 9.07708C4.97203 8.23648 4.90294 8.17506 4.77244 8.17506C4.61123 8.17506 4.63809 8.15203 3.62093 9.03102L2.82255 9.71425V7.81042V5.91043H6.41142H10.0003V7.95244ZM5.95082 10.2094L7.14071 11.3993L7.39021 11.1498L7.63586 10.9003L7.42859 10.6892L7.21748 10.4781L7.78556 9.91001L8.3498 9.34577L9.17505 10.171L10.0003 10.9963V11.3878V11.7831H6.41142H2.82255V11.2112V10.6431L3.77062 9.8294C4.2888 9.38415 4.72638 9.0195 4.73789 9.0195C4.74941 9.0195 5.29446 9.55688 5.95082 10.2094Z" fill="#003253"/>
<path d="M3.74365 6.87086V7.21631H4.08911H4.43456V6.87086V6.5254H4.08911H3.74365V6.87086Z" fill="#003253"/>
<path d="M6.4456 6.56742C6.37651 6.58661 6.24216 6.65954 6.13853 6.72479C5.67408 7.03954 5.59348 7.75731 5.97348 8.19105C6.18843 8.43286 6.44943 8.5365 6.79489 8.51347C7.09428 8.49428 7.24398 8.42903 7.42438 8.24862C7.69307 7.97994 7.78903 7.60761 7.68155 7.23529C7.53185 6.72863 6.95994 6.41772 6.4456 6.56742ZM6.93691 7.32358C7.0559 7.44256 7.05974 7.57691 6.94842 7.70741C6.82559 7.85327 6.67974 7.86862 6.53004 7.74963C6.46095 7.6959 6.43024 7.63448 6.43024 7.5462C6.43024 7.266 6.74115 7.12782 6.93691 7.32358Z" fill="#003253"/>
<path d="M8.65723 7.52222V7.86768H9.00268H9.34813V7.52222V7.17677H9.00268H8.65723V7.52222Z" fill="#003253"/>
<path d="M1.90182 14.816C1.8596 14.8582 1.81738 14.9312 1.80586 14.9772C1.79435 15.0271 1.78667 15.6911 1.79435 16.455C1.80586 17.8445 1.80586 17.8445 1.89415 17.9328C1.98243 18.021 1.98243 18.021 3.37192 18.0326C4.13575 18.0402 4.79979 18.0326 4.84969 18.021C4.89575 18.0095 4.96868 17.9673 5.0109 17.9251C5.08383 17.8522 5.08767 17.7907 5.08767 16.3782V14.9043L4.99939 14.8237C4.91111 14.7392 4.89575 14.7392 3.44485 14.7392C2.03617 14.7392 1.97475 14.7431 1.90182 14.816ZM4.39676 16.3897V17.3493H3.43717H2.47758V16.3897V15.4301H3.43717H4.39676V16.3897Z" fill="#003253"/>
<path d="M5.7395 15.0842V15.4297H6.08496H6.43041V15.0842V14.7388H6.08496H5.7395V15.0842Z" fill="#003253"/>
<path d="M7.04443 15.0842V15.4297H9.02119H10.998V15.0842V14.7388H9.02119H7.04443V15.0842Z" fill="#003253"/>
<path d="M5.7395 16.3899V16.7354H8.36878H10.9981V16.3899V16.0444H8.36878H5.7395V16.3899Z" fill="#003253"/>
<path d="M5.7395 17.6941V18.0396H8.36878H10.9981V17.6941V17.3486H8.36878H5.7395V17.6941Z" fill="#003253"/>
</svg>
