<svg width="18" height="22" viewBox="0 0 18 22" fill="none" xmlns="http://www.w3.org/2000/svg">
<path d="M16.9365 21.3615H1.05176V0.887137C1.05176 0.879532 1.05378 0.872077 1.05759 0.865608C1.0614 0.85914 1.06685 0.853912 1.07333 0.850511C1.07982 0.84711 1.08707 0.84567 1.09429 0.846353C1.10151 0.847036 1.10841 0.849815 1.1142 0.854377L2.71829 2.43091C2.72585 2.43602 2.73466 2.43874 2.74366 2.43874C2.75265 2.43874 2.76146 2.43602 2.76903 2.43091L4.05698 0.837998C4.06342 0.831954 4.07175 0.828613 4.08039 0.828613C4.08903 0.828613 4.09737 0.831954 4.10381 0.837998L5.55568 2.435C5.56304 2.44066 5.57193 2.44371 5.58105 2.44371C5.59017 2.44371 5.59906 2.44066 5.60642 2.435L6.89047 0.842093C6.89375 0.838501 6.89768 0.835642 6.90204 0.833689C6.9064 0.831736 6.9111 0.830729 6.91584 0.830729C6.92058 0.830729 6.92527 0.831736 6.92963 0.833689C6.93399 0.835642 6.93793 0.838501 6.9412 0.842093L8.05743 2.42681C8.06512 2.43347 8.07478 2.43711 8.08475 2.43711C8.09472 2.43711 8.10438 2.43347 8.11207 2.42681L9.38441 0.842093C9.38769 0.838501 9.39163 0.835642 9.39599 0.833689C9.40035 0.831736 9.40504 0.830729 9.40978 0.830729C9.41452 0.830729 9.41921 0.831736 9.42357 0.833689C9.42793 0.835642 9.43187 0.838501 9.43515 0.842093L10.485 2.42272C10.4923 2.43022 10.5021 2.43442 10.5123 2.43442C10.5226 2.43442 10.5324 2.43022 10.5397 2.42272L11.6637 0.842093C11.671 0.83459 11.6808 0.830387 11.691 0.830387C11.7012 0.830387 11.711 0.83459 11.7183 0.842093L12.8307 2.42272C12.8379 2.43022 12.8478 2.43442 12.858 2.43442C12.8682 2.43442 12.878 2.43022 12.8853 2.42272L13.9508 0.850283C13.954 0.845215 13.9583 0.841057 13.9634 0.838181C13.9685 0.835305 13.9743 0.8338 13.98 0.8338C13.9858 0.8338 13.9916 0.835305 13.9967 0.838181C14.0018 0.841057 14.0061 0.845215 14.0093 0.850283L14.8875 2.42272C14.8948 2.42837 14.9037 2.43142 14.9128 2.43142C14.922 2.43142 14.9308 2.42837 14.9382 2.42272L16.8896 0.837998C16.8957 0.834339 16.9025 0.83244 16.9095 0.832499C16.9165 0.832558 16.9233 0.834573 16.9293 0.838333C16.9352 0.842094 16.9401 0.847464 16.9435 0.853886C16.9468 0.860307 16.9484 0.867547 16.9482 0.874852L16.9365 21.3615Z" stroke="white" stroke-width="0.662352" stroke-linecap="round"/>
<path d="M4.08301 15.6157H14.4647" stroke="white" stroke-width="0.662352" stroke-linecap="round"/>
<path d="M4.08301 18.1694H14.4647" stroke="white" stroke-width="0.662352" stroke-linecap="round"/>
<path d="M7.15332 5.66943H8.0705C8.96816 5.66943 9.95949 5.98064 9.95949 7.41385C9.95949 8.96991 8.70276 9.56367 7.36798 9.40397C7.35204 9.40246 7.33604 9.40613 7.32215 9.41448C7.30826 9.42283 7.29715 9.43546 7.29034 9.45066C7.28352 9.46586 7.28132 9.48289 7.28404 9.49944C7.28676 9.51599 7.29426 9.53126 7.30553 9.54319L10.139 12.7413" stroke="white" stroke-width="0.662352" stroke-linecap="round"/>
<path d="M11.0412 5.66943H7.87207" stroke="white" stroke-width="0.533658" stroke-linecap="round"/>
<path d="M7.2002 7.46338H11.064" stroke="white" stroke-width="0.662352" stroke-linecap="round"/>
</svg>
