<svg width="22" height="23" viewBox="0 0 22 23" fill="none" xmlns="http://www.w3.org/2000/svg">
<path d="M2.89651 3.14036C2.4408 3.19649 2.05018 3.37383 1.7359 3.67465C1.44855 3.94404 1.27569 4.23363 1.16345 4.622L1.11182 4.79934V11.8483V18.8973L1.17467 19.0949C1.28018 19.4316 1.41712 19.6695 1.63712 19.9053C1.97835 20.2644 2.38916 20.4687 2.8808 20.5249C3.02222 20.5428 5.62855 20.5473 11.1465 20.5428C18.9071 20.5361 19.2124 20.5338 19.3628 20.4934C19.7377 20.3947 19.9914 20.2555 20.2541 20.0108C20.5414 19.7414 20.7075 19.4765 20.8265 19.0949L20.8894 18.8973V11.8371V4.7769L20.8265 4.57934C20.7075 4.19771 20.5481 3.94179 20.2675 3.6769C19.9218 3.35139 19.5671 3.19424 19.0553 3.13812C18.8914 3.12016 18.5345 3.16281 18.3437 3.22118C17.5939 3.45241 17.0416 4.11914 16.9563 4.89139L16.9383 5.04628H11.0006H5.06284L5.04488 4.89139C4.99773 4.46261 4.80692 4.05628 4.50386 3.73751C4.27937 3.50179 3.89549 3.27955 3.56773 3.19649C3.39488 3.15159 3.04243 3.12241 2.89651 3.14036ZM3.45324 3.74649C3.80794 3.83853 4.16039 4.12139 4.331 4.4469C4.51957 4.81057 4.50161 4.12812 4.50835 11.0222C4.51059 14.3963 4.50835 17.1575 4.49937 17.1575C4.49263 17.1575 4.441 17.1171 4.38488 17.0677C4.15814 16.8702 3.891 16.7265 3.57671 16.6367C3.341 16.5693 2.87631 16.5649 2.62712 16.6277C2.32406 16.7018 1.95814 16.8971 1.74488 17.0991C1.7112 17.1306 1.67753 17.1575 1.6708 17.1575C1.66631 17.1575 1.66182 14.4165 1.66182 11.0671C1.66182 4.28751 1.65059 4.82404 1.8212 4.47383C1.89304 4.32792 1.9559 4.24485 2.0861 4.11465C2.45427 3.74873 2.95039 3.61628 3.45324 3.74649ZM19.3224 3.75771C19.6951 3.8722 20.0139 4.1371 20.18 4.47608C20.3506 4.82404 20.3394 4.28975 20.3394 11.0671C20.3394 14.4165 20.3349 17.1575 20.3304 17.1575C20.3237 17.1575 20.2855 17.1261 20.2451 17.0879C20.0677 16.9218 19.7692 16.7512 19.5088 16.6681C18.8667 16.4593 18.1326 16.6142 17.6163 17.0677C17.5602 17.1171 17.5086 17.1575 17.5018 17.1575C17.4928 17.1575 17.4906 14.3963 17.4928 11.0222C17.4996 4.12363 17.4816 4.81281 17.6724 4.44465C17.9755 3.86098 18.6894 3.56465 19.3224 3.75771ZM16.9316 12.2232L16.9383 18.83L16.999 19.0477C17.0753 19.3238 17.2279 19.6224 17.4008 19.8267L17.5332 19.9861H11.0118C7.42447 19.9861 4.49039 19.9816 4.49039 19.9749C4.49039 19.9681 4.54651 19.8963 4.61386 19.8132C4.75529 19.6381 4.94386 19.2744 4.99549 19.0791C5.01345 19.0051 5.03814 18.8636 5.05161 18.7649C5.06508 18.6481 5.07406 16.3291 5.07406 12.102V5.61873H11.0006H16.9271L16.9316 12.2232ZM3.37916 17.1687C4.11549 17.3236 4.61161 18.0577 4.48141 18.7963C4.32876 19.6583 3.44202 20.1814 2.62039 19.8985C2.40937 19.8244 2.24549 19.7189 2.07712 19.5506C1.64386 19.1128 1.54284 18.4842 1.81447 17.9208C1.92222 17.6985 2.21182 17.4022 2.42508 17.2967C2.72814 17.1463 3.06039 17.1014 3.37916 17.1687ZM19.2461 17.18C19.5334 17.2518 19.6973 17.3461 19.9128 17.5616C20.1283 17.7771 20.2406 17.9747 20.3034 18.2508C20.4673 18.9759 20.0363 19.6987 19.3067 19.921C19.0934 19.9861 18.759 19.9906 18.5547 19.9322C17.9867 19.7638 17.5939 19.3149 17.5108 18.7334C17.4479 18.3069 17.5983 17.8759 17.9261 17.5481C18.2718 17.2024 18.7814 17.061 19.2461 17.18Z" fill="#003253"/>
<path d="M2.50839 4.67324C2.47248 4.69794 2.42982 4.74059 2.41411 4.76977C2.38941 4.81018 2.38492 5.36916 2.38268 7.52202C2.38268 10.4875 2.3737 10.3147 2.51737 10.3888C2.66554 10.4651 2.8339 10.4112 2.91023 10.2653C2.96186 10.1665 2.96186 4.88651 2.91023 4.78773C2.83166 4.63508 2.64533 4.58345 2.50839 4.67324Z" fill="#003253"/>
<path d="M18.335 4.67835C18.2026 4.78386 18.2093 4.61325 18.2093 7.5159C18.2093 10.4073 18.2026 10.2726 18.3328 10.3737C18.4068 10.432 18.5393 10.4388 18.6358 10.3894C18.7795 10.3153 18.7705 10.4881 18.7705 7.52713C18.7705 4.56611 18.7795 4.73897 18.6358 4.66488C18.5415 4.6155 18.4068 4.62223 18.335 4.67835Z" fill="#003253"/>
<path d="M10.9525 6.53064C10.8246 6.59798 10.8223 6.61819 10.8223 7.53186V8.37145L10.4362 8.68574C10.223 8.85859 9.45295 9.48492 8.72336 10.0753C7.99601 10.6657 7.10928 11.3841 6.75683 11.6715C6.3101 12.0351 6.10581 12.2147 6.08561 12.2619C6.04071 12.3696 6.06989 12.4886 6.16418 12.5717L6.24275 12.6457H7.07336H7.90397V14.6661C7.90397 16.8729 7.89724 16.7674 8.03193 16.8572C8.09255 16.8976 8.16214 16.8998 9.45969 16.9066L10.8223 16.9133V17.7147C10.8223 18.5947 10.8201 18.5812 10.957 18.6508C11.1052 18.7272 11.3027 18.6553 11.3544 18.5049C11.3746 18.4443 11.3813 17.0525 11.3813 12.5896C11.3836 6.90329 11.3813 6.75064 11.3409 6.6586C11.2713 6.50819 11.0985 6.44982 10.9525 6.53064ZM10.8223 10.6051C10.8223 11.75 10.8156 12.0666 10.7954 12.0733C10.7797 12.08 9.95357 12.0823 8.95908 12.08L7.15193 12.0733L8.64479 10.861C9.46642 10.1966 10.2836 9.53206 10.4609 9.38615C10.6405 9.24247 10.7932 9.12798 10.8044 9.13472C10.8134 9.14145 10.8223 9.8037 10.8223 10.6051ZM10.8111 13.0386V13.4202L10.1085 13.4315L9.40357 13.4427L9.32724 13.5257L9.25091 13.611V14.3833C9.25091 15.1398 9.25091 15.1555 9.3003 15.2161C9.39234 15.3329 9.43948 15.3396 10.1579 15.3396H10.8201L10.8156 15.838L10.8111 16.3386L9.63928 16.3453L8.4652 16.3498V14.4978V12.6457L9.63928 12.6502L10.8111 12.657V13.0386ZM10.8111 14.3855V14.7672L10.3127 14.7739L9.81214 14.7784V14.3855V13.9927L10.3127 13.9972L10.8111 14.0039V14.3855Z" fill="#003253"/>
<path d="M12.007 9.09209C11.879 9.13924 11.8049 9.31434 11.8588 9.44454C11.8947 9.52985 11.9755 9.59944 13.2304 10.6164C13.6884 10.9868 14.2788 11.465 14.5437 11.6805L15.0264 12.0733L14.4629 12.0845C13.969 12.0935 13.8949 12.1003 13.8388 12.1362C13.7086 12.2215 13.7131 12.1519 13.7131 14.3407V16.3498H12.8353H11.9576L11.8813 16.4262C11.8139 16.4935 11.8049 16.516 11.8049 16.6147C11.8049 16.7517 11.8768 16.8527 12.0025 16.8886C12.0586 16.9066 12.4155 16.9111 13.0845 16.9066C14.0229 16.8998 14.088 16.8976 14.1464 16.8572C14.2811 16.7674 14.2743 16.8729 14.2743 14.6684V12.648L15.1162 12.6413L15.958 12.6345L16.0276 12.565C16.1129 12.4796 16.1376 12.3472 16.0837 12.2484C16.0657 12.2103 15.9513 12.098 15.83 12.0015C14.9702 11.3056 14.6874 11.0766 14.1755 10.659C13.8568 10.3986 13.3113 9.95638 12.9633 9.67352C12.6176 9.39066 12.3033 9.14148 12.2651 9.11903C12.2 9.07862 12.0788 9.06515 12.007 9.09209Z" fill="#003253"/>
</svg>
