<svg width="25" height="27" viewBox="0 0 25 27" fill="none" xmlns="http://www.w3.org/2000/svg">
<path d="M5.92667 3.93433H3.34316C2.65797 3.93433 2.00084 4.20652 1.51634 4.69102C1.03183 5.17552 0.759644 5.83265 0.759644 6.51784V22.0189C0.759644 22.7041 1.03183 23.3612 1.51634 23.8457C2.00084 24.3302 2.65797 24.6024 3.34316 24.6024H10.7023M18.8442 15.5601V20.7272H24.0113M18.8442 11.6849V6.51784C18.8442 5.83265 18.572 5.17552 18.0875 4.69102C17.603 4.20652 16.9459 3.93433 16.2607 3.93433H13.6772" stroke="url(#paint0_linear_2583_23719)" stroke-width="1.10722" stroke-linecap="round" stroke-linejoin="round"/>
<path d="M5.9281 11.6846H11.0951M5.9281 16.8517H9.80337M5.9281 3.9341C5.9281 3.24891 6.20029 2.59178 6.68479 2.10728C7.1693 1.62278 7.82642 1.35059 8.51161 1.35059H11.0951C11.7803 1.35059 12.4374 1.62278 12.9219 2.10728C13.4064 2.59178 13.6786 3.24891 13.6786 3.9341C13.6786 4.61929 13.4064 5.27641 12.9219 5.76092C12.4374 6.24542 11.7803 6.51761 11.0951 6.51761H8.51161C7.82642 6.51761 7.1693 6.24542 6.68479 5.76092C6.20029 5.27641 5.9281 4.61929 5.9281 3.9341ZM13.6786 20.7269C13.6786 22.0973 14.223 23.4116 15.192 24.3806C16.161 25.3496 17.4753 25.894 18.8457 25.894C20.216 25.894 21.5303 25.3496 22.4993 24.3806C23.4683 23.4116 24.0127 22.0973 24.0127 20.7269C24.0127 19.3565 23.4683 18.0423 22.4993 17.0733C21.5303 16.1043 20.216 15.5599 18.8457 15.5599C17.4753 15.5599 16.161 16.1043 15.192 17.0733C14.223 18.0423 13.6786 19.3565 13.6786 20.7269Z" stroke="url(#paint1_linear_2583_23719)" stroke-width="1.10722" stroke-linecap="round" stroke-linejoin="round"/>
<defs>
<linearGradient id="paint0_linear_2583_23719" x1="12.3854" y1="3.93433" x2="12.3854" y2="24.6024" gradientUnits="userSpaceOnUse">
<stop stop-color="#FFC267"/>
<stop offset="1" stop-color="#99753E"/>
</linearGradient>
<linearGradient id="paint1_linear_2583_23719" x1="14.9704" y1="1.35059" x2="14.9704" y2="25.8939" gradientUnits="userSpaceOnUse">
<stop stop-color="#FFC267"/>
<stop offset="1" stop-color="#99753E"/>
</linearGradient>
</defs>
</svg>
