<svg width="27" height="26" viewBox="0 0 27 26" fill="none" xmlns="http://www.w3.org/2000/svg">
<path d="M17.6228 16.0439C21.8302 16.0439 25.2419 12.6466 25.2419 8.45615C25.2419 4.26687 21.8302 0.869629 17.6228 0.869629C13.4154 0.869629 10.0074 4.26687 10.0074 8.45615C10.0074 10.3971 10.8922 11.8088 10.8922 11.8088L1.67942 20.983C1.26591 21.3953 0.68725 22.4658 1.67942 23.4544L2.74271 24.5129C3.15622 24.8661 4.1954 25.3604 5.04531 24.5129L6.28703 23.2784C7.52633 24.5129 8.94406 23.8076 9.47571 23.1012C10.3606 21.8667 9.29849 20.631 9.29849 20.631L9.65292 20.2778C11.3527 21.9728 12.8416 20.9842 13.3733 20.2778C14.2593 19.0433 13.3733 17.8076 13.3733 17.8076C13.0188 17.1024 12.31 17.1024 13.196 16.2199L14.2593 15.1614C15.1092 15.8667 16.8573 16.0439 17.6252 16.0439H17.6228Z" stroke="url(#paint0_linear_2583_23727)" stroke-width="1.66634" stroke-linejoin="round"/>
<path d="M20.2772 8.45745C20.2756 9.16065 19.9948 9.83443 19.4966 10.3307C18.9983 10.8269 18.3234 11.1049 17.6202 11.1036C16.917 11.1049 16.2421 10.8269 15.7438 10.3307C15.2456 9.83443 14.9648 9.16065 14.9632 8.45745C14.9638 8.10916 15.033 7.7644 15.1669 7.44286C15.3008 7.12132 15.4967 6.8293 15.7434 6.58347C15.9901 6.33763 16.2828 6.1428 16.6049 6.0101C16.9269 5.8774 17.2719 5.80943 17.6202 5.81006C17.9685 5.80943 18.3135 5.8774 18.6355 6.0101C18.9575 6.1428 19.2503 6.33763 19.497 6.58347C19.7437 6.8293 19.9396 7.12132 20.0735 7.44286C20.2074 7.7644 20.2766 8.10916 20.2772 8.45745Z" stroke="url(#paint1_linear_2583_23727)" stroke-width="1.66634"/>
<defs>
<linearGradient id="paint0_linear_2583_23727" x1="13.1867" y1="0.869629" x2="13.1867" y2="24.9808" gradientUnits="userSpaceOnUse">
<stop stop-color="#FFC267"/>
<stop offset="1" stop-color="#99753E"/>
</linearGradient>
<linearGradient id="paint1_linear_2583_23727" x1="17.6202" y1="5.81006" x2="17.6202" y2="11.1036" gradientUnits="userSpaceOnUse">
<stop stop-color="#FFC267"/>
<stop offset="1" stop-color="#99753E"/>
</linearGradient>
</defs>
</svg>
