<svg width="12" height="13" viewBox="0 0 12 13" fill="none" xmlns="http://www.w3.org/2000/svg">
<mask id="path-1-inside-1_3676_15016" fill="white">
<path d="M11.1514 1.07903C11.1514 1.55181 11.0845 2.01122 10.9507 2.45725C10.8169 2.90327 10.614 3.32477 10.3419 3.72173C10.2036 3.92244 10.0587 4.10531 9.90703 4.27034C9.75538 4.43537 9.59481 4.58479 9.42532 4.7186C9.25583 4.85241 9.07296 4.97952 8.87671 5.09995C8.68046 5.22038 8.47529 5.32966 8.26119 5.42778C8.09616 5.50361 7.96682 5.60619 7.87315 5.73554C7.77948 5.86489 7.73042 6.02546 7.72596 6.21725C7.72596 6.40458 7.77279 6.56292 7.86646 6.69227C7.96013 6.82161 8.0917 6.92643 8.26119 7.00671C8.47975 7.1093 8.68492 7.21858 8.87671 7.33454C9.0685 7.45051 9.24914 7.5754 9.41863 7.7092C9.58812 7.84301 9.75092 7.99466 9.90703 8.16415C10.0631 8.33364 10.2081 8.51651 10.3419 8.71276C10.6095 9.10527 10.8102 9.52453 10.944 9.97056C11.0778 10.4166 11.147 10.8782 11.1514 11.3555H12.0078V12.2118H0.875V11.3555H1.73137C1.73137 10.8827 1.79827 10.4233 1.93208 9.97725C2.06589 9.53122 2.26883 9.10973 2.54091 8.71276C2.68364 8.50313 2.83082 8.31803 2.98247 8.15746C3.13412 7.99689 3.29246 7.84747 3.45749 7.7092C3.62252 7.57094 3.80316 7.44828 3.99941 7.34123C4.19566 7.23419 4.40307 7.12491 4.62162 7.0134C4.78219 6.93758 4.91154 6.83276 5.00966 6.69896C5.10779 6.56515 5.15685 6.40458 5.15685 6.21725C5.15685 6.02992 5.11002 5.87158 5.01635 5.74223C4.92269 5.61288 4.79111 5.50807 4.62162 5.42778C4.40307 5.3252 4.19789 5.21592 4.0061 5.09995C3.81431 4.98398 3.63367 4.8591 3.46418 4.72529C3.29469 4.59148 3.13189 4.43983 2.97578 4.27034C2.81967 4.10085 2.67472 3.91798 2.54091 3.72173C2.27329 3.32923 2.07258 2.90996 1.93877 2.46394C1.80496 2.01791 1.73583 1.55627 1.73137 1.07903H0.875V0.222656H12.0078V1.07903H11.1514ZM6.86959 6.21725C6.86959 5.85151 6.96549 5.53483 7.15728 5.26721C7.34907 4.9996 7.60553 4.78773 7.92667 4.63162C8.05602 4.56918 8.18091 4.50897 8.30134 4.45098C8.42176 4.393 8.53996 4.31941 8.65593 4.2302C8.91462 4.05179 9.14432 3.84662 9.34504 3.61468C9.54575 3.38275 9.71747 3.13075 9.8602 2.85867C10.0029 2.58659 10.11 2.30114 10.1813 2.0023C10.2527 1.70346 10.2906 1.3957 10.2951 1.07903H2.58774C2.58774 1.39124 2.62342 1.69677 2.69479 1.99561C2.76615 2.29445 2.8732 2.5799 3.01593 2.85198C3.15865 3.12406 3.33037 3.37606 3.53109 3.60799C3.7318 3.83993 3.96373 4.04733 4.22689 4.2302C4.34285 4.31495 4.46105 4.38631 4.58148 4.44429C4.7019 4.50228 4.82679 4.56472 4.95614 4.63162C5.27728 4.78773 5.53374 4.9996 5.72553 5.26721C5.91733 5.53483 6.01322 5.85151 6.01322 6.21725C6.01322 6.58299 5.91733 6.89967 5.72553 7.16728C5.53374 7.4349 5.27728 7.64676 4.95614 7.80287C4.82679 7.86531 4.7019 7.92553 4.58148 7.98351C4.46105 8.04149 4.34285 8.11509 4.22689 8.20429C3.96819 8.3827 3.73849 8.58788 3.53778 8.81981C3.33706 9.05174 3.16534 9.30375 3.02262 9.57582C2.87989 9.8479 2.77284 10.1334 2.70148 10.4322C2.63011 10.731 2.5922 11.0388 2.58774 11.3555H10.2951C10.2951 11.0432 10.2594 10.7377 10.188 10.4389C10.1167 10.14 10.0096 9.85459 9.86689 9.58251C9.72416 9.31044 9.55244 9.05843 9.35173 8.8265C9.15101 8.59457 8.91908 8.38716 8.65593 8.20429C8.53996 8.11955 8.42176 8.04818 8.30134 7.9902C8.18091 7.93222 8.05602 7.86977 7.92667 7.80287C7.60553 7.64676 7.34907 7.4349 7.15728 7.16728C6.96549 6.89967 6.86959 6.58299 6.86959 6.21725Z"/>
</mask>
<path d="M11.1514 1.07903C11.1514 1.55181 11.0845 2.01122 10.9507 2.45725C10.8169 2.90327 10.614 3.32477 10.3419 3.72173C10.2036 3.92244 10.0587 4.10531 9.90703 4.27034C9.75538 4.43537 9.59481 4.58479 9.42532 4.7186C9.25583 4.85241 9.07296 4.97952 8.87671 5.09995C8.68046 5.22038 8.47529 5.32966 8.26119 5.42778C8.09616 5.50361 7.96682 5.60619 7.87315 5.73554C7.77948 5.86489 7.73042 6.02546 7.72596 6.21725C7.72596 6.40458 7.77279 6.56292 7.86646 6.69227C7.96013 6.82161 8.0917 6.92643 8.26119 7.00671C8.47975 7.1093 8.68492 7.21858 8.87671 7.33454C9.0685 7.45051 9.24914 7.5754 9.41863 7.7092C9.58812 7.84301 9.75092 7.99466 9.90703 8.16415C10.0631 8.33364 10.2081 8.51651 10.3419 8.71276C10.6095 9.10527 10.8102 9.52453 10.944 9.97056C11.0778 10.4166 11.147 10.8782 11.1514 11.3555H12.0078V12.2118H0.875V11.3555H1.73137C1.73137 10.8827 1.79827 10.4233 1.93208 9.97725C2.06589 9.53122 2.26883 9.10973 2.54091 8.71276C2.68364 8.50313 2.83082 8.31803 2.98247 8.15746C3.13412 7.99689 3.29246 7.84747 3.45749 7.7092C3.62252 7.57094 3.80316 7.44828 3.99941 7.34123C4.19566 7.23419 4.40307 7.12491 4.62162 7.0134C4.78219 6.93758 4.91154 6.83276 5.00966 6.69896C5.10779 6.56515 5.15685 6.40458 5.15685 6.21725C5.15685 6.02992 5.11002 5.87158 5.01635 5.74223C4.92269 5.61288 4.79111 5.50807 4.62162 5.42778C4.40307 5.3252 4.19789 5.21592 4.0061 5.09995C3.81431 4.98398 3.63367 4.8591 3.46418 4.72529C3.29469 4.59148 3.13189 4.43983 2.97578 4.27034C2.81967 4.10085 2.67472 3.91798 2.54091 3.72173C2.27329 3.32923 2.07258 2.90996 1.93877 2.46394C1.80496 2.01791 1.73583 1.55627 1.73137 1.07903H0.875V0.222656H12.0078V1.07903H11.1514ZM6.86959 6.21725C6.86959 5.85151 6.96549 5.53483 7.15728 5.26721C7.34907 4.9996 7.60553 4.78773 7.92667 4.63162C8.05602 4.56918 8.18091 4.50897 8.30134 4.45098C8.42176 4.393 8.53996 4.31941 8.65593 4.2302C8.91462 4.05179 9.14432 3.84662 9.34504 3.61468C9.54575 3.38275 9.71747 3.13075 9.8602 2.85867C10.0029 2.58659 10.11 2.30114 10.1813 2.0023C10.2527 1.70346 10.2906 1.3957 10.2951 1.07903H2.58774C2.58774 1.39124 2.62342 1.69677 2.69479 1.99561C2.76615 2.29445 2.8732 2.5799 3.01593 2.85198C3.15865 3.12406 3.33037 3.37606 3.53109 3.60799C3.7318 3.83993 3.96373 4.04733 4.22689 4.2302C4.34285 4.31495 4.46105 4.38631 4.58148 4.44429C4.7019 4.50228 4.82679 4.56472 4.95614 4.63162C5.27728 4.78773 5.53374 4.9996 5.72553 5.26721C5.91733 5.53483 6.01322 5.85151 6.01322 6.21725C6.01322 6.58299 5.91733 6.89967 5.72553 7.16728C5.53374 7.4349 5.27728 7.64676 4.95614 7.80287C4.82679 7.86531 4.7019 7.92553 4.58148 7.98351C4.46105 8.04149 4.34285 8.11509 4.22689 8.20429C3.96819 8.3827 3.73849 8.58788 3.53778 8.81981C3.33706 9.05174 3.16534 9.30375 3.02262 9.57582C2.87989 9.8479 2.77284 10.1334 2.70148 10.4322C2.63011 10.731 2.5922 11.0388 2.58774 11.3555H10.2951C10.2951 11.0432 10.2594 10.7377 10.188 10.4389C10.1167 10.14 10.0096 9.85459 9.86689 9.58251C9.72416 9.31044 9.55244 9.05843 9.35173 8.8265C9.15101 8.59457 8.91908 8.38716 8.65593 8.20429C8.53996 8.11955 8.42176 8.04818 8.30134 7.9902C8.18091 7.93222 8.05602 7.86977 7.92667 7.80287C7.60553 7.64676 7.34907 7.4349 7.15728 7.16728C6.96549 6.89967 6.86959 6.58299 6.86959 6.21725Z" fill="#B462D4"/>
<path d="M11.1514 1.07903V0.0790264H10.1514V1.07903H11.1514ZM10.3419 3.72173L11.1654 4.28904L11.1668 4.28708L10.3419 3.72173ZM8.26119 5.42778L7.84454 4.51872L7.84369 4.5191L8.26119 5.42778ZM7.72596 6.21725L6.72623 6.194L6.72596 6.20562V6.21725H7.72596ZM8.26119 7.00671L7.8331 7.91046L7.83629 7.91195L8.26119 7.00671ZM11.1514 11.3555L10.1515 11.3648L10.1607 12.3555H11.1514V11.3555ZM12.0078 11.3555H13.0078V10.3555H12.0078V11.3555ZM12.0078 12.2118V13.2118H13.0078V12.2118H12.0078ZM0.875 12.2118H-0.125V13.2118H0.875V12.2118ZM0.875 11.3555V10.3555H-0.125V11.3555H0.875ZM1.73137 11.3555V12.3555H2.73137V11.3555H1.73137ZM2.54091 8.71276L3.36576 9.27811L3.36751 9.27555L2.54091 8.71276ZM4.62162 7.0134L4.19461 6.10916L4.18078 6.11569L4.16715 6.12264L4.62162 7.0134ZM4.62162 5.42778L5.04971 4.52404L5.04653 4.52254L4.62162 5.42778ZM1.73137 1.07903L2.73133 1.06968L2.72207 0.0790264H1.73137V1.07903ZM0.875 1.07903H-0.125V2.07903H0.875V1.07903ZM0.875 0.222656V-0.777344H-0.125V0.222656H0.875ZM12.0078 0.222656H13.0078V-0.777344H12.0078V0.222656ZM12.0078 1.07903V2.07903H13.0078V1.07903H12.0078ZM7.92667 4.63162L7.49192 3.73107L7.48948 3.73226L7.92667 4.63162ZM8.65593 4.2302L8.08819 3.40699L8.06681 3.42174L8.04622 3.43758L8.65593 4.2302ZM10.2951 1.07903L11.295 1.09311L11.3093 0.0790264H10.2951V1.07903ZM2.58774 1.07903V0.0790264H1.58774V1.07903H2.58774ZM4.22689 4.2302L4.8169 3.42281L4.80731 3.4158L4.79754 3.40901L4.22689 4.2302ZM4.95614 4.63162L4.49672 5.51984L4.50776 5.52556L4.51895 5.53099L4.95614 4.63162ZM4.95614 7.80287L5.39089 8.70343L5.39333 8.70224L4.95614 7.80287ZM4.22689 8.20429L4.79462 9.02751L4.81601 9.01276L4.8366 8.99692L4.22689 8.20429ZM2.58774 11.3555L1.58784 11.3414L1.57356 12.3555H2.58774V11.3555ZM10.2951 11.3555V12.3555H11.2951V11.3555H10.2951ZM8.65593 8.20429L8.06591 9.01168L8.07551 9.0187L8.08527 9.02548L8.65593 8.20429ZM7.92667 7.80287L8.3861 6.91465L8.37505 6.90894L8.36387 6.9035L7.92667 7.80287ZM11.1514 1.07903H10.1514C10.1514 1.456 10.0983 1.81852 9.9929 2.1699L10.9507 2.45725L11.9086 2.74459C12.0708 2.20392 12.1514 1.64763 12.1514 1.07903H11.1514ZM10.9507 2.45725L9.9929 2.1699C9.88978 2.51365 9.73268 2.84178 9.51705 3.15638L10.3419 3.72173L11.1668 4.28708C11.4953 3.80776 11.7441 3.29289 11.9086 2.74459L10.9507 2.45725ZM10.3419 3.72173L9.5184 3.15443C9.40433 3.32001 9.28818 3.46588 9.1707 3.59372L9.90703 4.27034L10.6434 4.94697C10.8292 4.74475 11.0029 4.52488 11.1654 4.28904L10.3419 3.72173ZM9.90703 4.27034L9.1707 3.59372C9.05365 3.7211 8.93191 3.83406 8.80568 3.93372L9.42532 4.7186L10.045 5.50348C10.2577 5.33553 10.4571 5.14965 10.6434 4.94697L9.90703 4.27034ZM9.42532 4.7186L8.80568 3.93372C8.669 4.04162 8.51863 4.14642 8.35369 4.24763L8.87671 5.09995L9.39973 5.95227C9.62729 5.81263 9.84267 5.66319 10.045 5.50348L9.42532 4.7186ZM8.87671 5.09995L8.35369 4.24763C8.19249 4.34655 8.0229 4.43697 7.84454 4.51872L8.26119 5.42778L8.67785 6.33685C8.92767 6.22234 9.16842 6.09421 9.39973 5.95227L8.87671 5.09995ZM8.26119 5.42778L7.84369 4.5191C7.5441 4.65676 7.27098 4.86211 7.06321 5.14903L7.87315 5.73554L8.68309 6.32205C8.67911 6.32754 8.67495 6.33247 8.67092 6.33666C8.66692 6.34082 8.66369 6.34359 8.6618 6.34509C8.65787 6.34821 8.66173 6.34425 8.67869 6.33646L8.26119 5.42778ZM7.87315 5.73554L7.06321 5.14903C6.82842 5.47326 6.73444 5.84109 6.72623 6.194L7.72596 6.21725L8.72569 6.2405C8.7261 6.22309 8.72807 6.22683 8.72246 6.2452C8.71642 6.26495 8.70423 6.29286 8.68309 6.32205L7.87315 5.73554ZM7.72596 6.21725H6.72596C6.72596 6.57763 6.81895 6.95071 7.05652 7.27877L7.86646 6.69227L8.6764 6.10576C8.69828 6.13597 8.7124 6.1671 8.72002 6.19287C8.72722 6.2172 8.72596 6.22757 8.72596 6.21725H7.72596ZM7.86646 6.69227L7.05652 7.27877C7.2647 7.56626 7.53827 7.77079 7.83311 7.91045L8.26119 7.00671L8.68928 6.10298C8.66616 6.09202 8.65773 6.08514 8.65847 6.08573C8.65882 6.08601 8.66107 6.08784 8.66452 6.09143C8.668 6.09505 8.67212 6.09984 8.6764 6.10576L7.86646 6.69227ZM8.26119 7.00671L7.83629 7.91195C8.02556 8.00079 8.19964 8.09374 8.35929 8.19027L8.87671 7.33454L9.39413 6.47881C9.1702 6.34341 8.93393 6.21781 8.6861 6.10148L8.26119 7.00671ZM8.87671 7.33454L8.35929 8.19027C8.51691 8.28558 8.66327 8.38694 8.79899 8.49409L9.41863 7.7092L10.0383 6.92432C9.83501 6.76385 9.6201 6.61544 9.39413 6.47881L8.87671 7.33454ZM9.41863 7.7092L8.79899 8.49409C8.92441 8.59311 9.04875 8.70837 9.17148 8.84163L9.90703 8.16415L10.6426 7.48668C10.4531 7.28095 10.2518 7.09292 10.0383 6.92432L9.41863 7.7092ZM9.90703 8.16415L9.17148 8.84163C9.29363 8.97424 9.40844 9.11882 9.51568 9.2761L10.3419 8.71276L11.1681 8.14943C11.0078 7.91421 10.8326 7.69304 10.6426 7.48668L9.90703 8.16415ZM10.3419 8.71276L9.51568 9.2761C9.72672 9.58563 9.88246 9.91206 9.98621 10.2579L10.944 9.97056L11.9019 9.68321C11.738 9.137 11.4923 8.62491 11.1681 8.14943L10.3419 8.71276ZM10.944 9.97056L9.98621 10.2579C10.0923 10.6115 10.1479 10.9794 10.1515 11.3648L11.1514 11.3555L12.1514 11.3461C12.1461 10.7771 12.0634 10.2217 11.9019 9.68321L10.944 9.97056ZM11.1514 11.3555V12.3555H12.0078V11.3555V10.3555H11.1514V11.3555ZM12.0078 11.3555H11.0078V12.2118H12.0078H13.0078V11.3555H12.0078ZM12.0078 12.2118V11.2118H0.875V12.2118V13.2118H12.0078V12.2118ZM0.875 12.2118H1.875V11.3555H0.875H-0.125V12.2118H0.875ZM0.875 11.3555V12.3555H1.73137V11.3555V10.3555H0.875V11.3555ZM1.73137 11.3555H2.73137C2.73137 10.9785 2.7845 10.616 2.88991 10.2646L1.93208 9.97725L0.974256 9.6899C0.812052 10.2306 0.73137 10.7869 0.73137 11.3555H1.73137ZM1.93208 9.97725L2.88991 10.2646C2.99303 9.92084 3.15013 9.59272 3.36576 9.27811L2.54091 8.71276L1.71606 8.14742C1.38753 8.62674 1.13875 9.1416 0.974256 9.6899L1.93208 9.97725ZM2.54091 8.71276L3.36751 9.27555C3.48466 9.10348 3.59914 8.96092 3.70949 8.84408L2.98247 8.15746L2.25546 7.47084C2.06251 7.67514 1.88261 7.90278 1.71431 8.14997L2.54091 8.71276ZM2.98247 8.15746L3.70949 8.84408C3.83514 8.71104 3.96523 8.5884 4.09971 8.47573L3.45749 7.7092L2.81527 6.94268C2.61969 7.10655 2.43311 7.28274 2.25546 7.47084L2.98247 8.15746ZM3.45749 7.7092L4.09971 8.47573C4.2122 8.38148 4.3378 8.29575 4.47827 8.21913L3.99941 7.34123L3.52056 6.46334C3.26853 6.60081 3.03284 6.76039 2.81527 6.94268L3.45749 7.7092ZM3.99941 7.34123L4.47827 8.21913C4.66572 8.11688 4.86494 8.01189 5.07609 7.90417L4.62162 7.0134L4.16715 6.12264C3.94119 6.23793 3.72561 6.35149 3.52056 6.46334L3.99941 7.34123ZM4.62162 7.0134L5.04863 7.91765C5.34886 7.77588 5.61262 7.56775 5.81607 7.29032L5.00966 6.69896L4.20326 6.10759C4.20394 6.10666 4.20502 6.10533 4.2064 6.10388C4.20778 6.10244 4.20891 6.10145 4.20947 6.10099C4.21097 6.09978 4.20731 6.10316 4.19461 6.10916L4.62162 7.0134ZM5.00966 6.69896L5.81607 7.29032C6.05593 6.96324 6.15685 6.58861 6.15685 6.21725H5.15685H4.15685C4.15685 6.2232 4.15616 6.21062 4.1637 6.18596C4.1716 6.16011 4.18509 6.13236 4.20326 6.10759L5.00966 6.69896ZM5.15685 6.21725H6.15685C6.15685 5.85687 6.06386 5.48379 5.82629 5.15572L5.01635 5.74223L4.20641 6.32874C4.18453 6.29852 4.17041 6.26739 4.16279 6.24162C4.1556 6.2173 4.15685 6.20693 4.15685 6.21725H5.15685ZM5.01635 5.74223L5.82629 5.15572C5.61811 4.86823 5.34455 4.6637 5.04971 4.52404L4.62162 5.42778L4.19353 6.33152C4.21665 6.34247 4.22508 6.34935 4.22434 6.34877C4.22399 6.34849 4.22175 6.34665 4.21829 6.34306C4.21482 6.33945 4.21069 6.33465 4.20641 6.32874L5.01635 5.74223ZM4.62162 5.42778L5.04653 4.52254C4.85725 4.4337 4.68317 4.34075 4.52352 4.24422L4.0061 5.09995L3.48868 5.95568C3.71261 6.09108 3.94888 6.21669 4.19671 6.33302L4.62162 5.42778ZM4.0061 5.09995L4.52352 4.24422C4.36591 4.14892 4.21954 4.04755 4.08383 3.94041L3.46418 4.72529L2.84454 5.51017C3.0478 5.67065 3.26272 5.81905 3.48868 5.95568L4.0061 5.09995ZM3.46418 4.72529L4.08383 3.94041C3.9584 3.84138 3.83407 3.72612 3.71133 3.59287L2.97578 4.27034L2.24024 4.94782C2.42972 5.15354 2.63099 5.34158 2.84454 5.51017L3.46418 4.72529ZM2.97578 4.27034L3.71133 3.59287C3.58918 3.46025 3.47437 3.31568 3.36713 3.15839L2.54091 3.72173L1.71468 4.28507C1.87506 4.52029 2.05017 4.74146 2.24024 4.94782L2.97578 4.27034ZM2.54091 3.72173L3.36713 3.15839C3.15609 2.84887 3.00035 2.52243 2.8966 2.17659L1.93877 2.46394L0.980946 2.75129C1.14481 3.2975 1.39049 3.80959 1.71468 4.28507L2.54091 3.72173ZM1.93877 2.46394L2.8966 2.17659C2.79053 1.82302 2.73493 1.45511 2.73133 1.06968L1.73137 1.07903L0.731414 1.08837C0.736732 1.65744 0.8194 2.2128 0.980946 2.75129L1.93877 2.46394ZM1.73137 1.07903V0.0790264H0.875V1.07903V2.07903H1.73137V1.07903ZM0.875 1.07903H1.875V0.222656H0.875H-0.125V1.07903H0.875ZM0.875 0.222656V1.22266H12.0078V0.222656V-0.777344H0.875V0.222656ZM12.0078 0.222656H11.0078V1.07903H12.0078H13.0078V0.222656H12.0078ZM12.0078 1.07903V0.0790264H11.1514V1.07903V2.07903H12.0078V1.07903ZM6.86959 6.21725H7.86959C7.86959 6.03622 7.91343 5.9288 7.9701 5.84973L7.15728 5.26721L6.34446 4.68469C6.01754 5.14086 5.86959 5.6668 5.86959 6.21725H6.86959ZM7.15728 5.26721L7.9701 5.84973C8.05692 5.72859 8.17937 5.62068 8.36387 5.53099L7.92667 4.63162L7.48948 3.73226C7.0317 3.95479 6.64122 4.2706 6.34446 4.68469L7.15728 5.26721ZM7.92667 4.63162L8.36142 5.53218C8.49048 5.46987 8.61506 5.40981 8.73515 5.35199L8.30134 4.45098L7.86752 3.54998C7.74676 3.60813 7.62156 3.66849 7.49192 3.73107L7.92667 4.63162ZM8.30134 4.45098L8.73515 5.35199C8.92333 5.26138 9.10004 5.15021 9.26564 5.02282L8.65593 4.2302L8.04622 3.43758C7.97988 3.4886 7.92019 3.52462 7.86752 3.54998L8.30134 4.45098ZM8.65593 4.2302L9.22366 5.05341C9.55034 4.82812 9.84373 4.56659 10.1012 4.26906L9.34504 3.61468L8.58887 2.96031C8.44492 3.12665 8.2789 3.27546 8.08819 3.40699L8.65593 4.2302ZM9.34504 3.61468L10.1012 4.26906C10.3523 3.97893 10.5674 3.66322 10.7457 3.32322L9.8602 2.85867L8.97465 2.39412C8.86755 2.59828 8.73922 2.78657 8.58887 2.96031L9.34504 3.61468ZM9.8602 2.85867L10.7457 3.32322C10.927 2.97763 11.0633 2.61415 11.154 2.23458L10.1813 2.0023L9.20869 1.77003C9.1566 1.98812 9.07882 2.19556 8.97465 2.39412L9.8602 2.85867ZM10.1813 2.0023L11.154 2.23458C11.2429 1.86206 11.2895 1.48103 11.295 1.09311L10.2951 1.07903L9.29517 1.06494C9.29171 1.31038 9.26245 1.54487 9.20869 1.77003L10.1813 2.0023ZM10.2951 1.07903V0.0790264H2.58774V1.07903V2.07903H10.2951V1.07903ZM2.58774 1.07903H1.58774C1.58774 1.4682 1.63231 1.85173 1.72214 2.22788L2.69479 1.99561L3.66744 1.76334C3.61454 1.54182 3.58774 1.31429 3.58774 1.07903H2.58774ZM2.69479 1.99561L1.72214 2.22788C1.81278 2.60746 1.94909 2.97094 2.13038 3.31653L3.01593 2.85198L3.90147 2.38743C3.79731 2.18886 3.71952 1.98143 3.66744 1.76334L2.69479 1.99561ZM3.01593 2.85198L2.13038 3.31653C2.30874 3.65653 2.52384 3.97224 2.77492 4.26237L3.53109 3.60799L4.28725 2.95362C4.1369 2.77988 4.00857 2.59159 3.90147 2.38743L3.01593 2.85198ZM3.53109 3.60799L2.77492 4.26237C3.03266 4.5602 3.32759 4.82301 3.65623 5.05139L4.22689 4.2302L4.79754 3.40901C4.59987 3.27165 4.43094 3.11965 4.28725 2.95362L3.53109 3.60799ZM4.22689 4.2302L3.63687 5.03759C3.79833 5.15558 3.96853 5.25905 4.14766 5.3453L4.58148 4.44429L5.01529 3.54329C4.95357 3.51357 4.88738 3.47431 4.8169 3.42281L4.22689 4.2302ZM4.58148 4.44429L4.14766 5.3453C4.25877 5.39879 4.3751 5.45694 4.49672 5.51984L4.95614 4.63162L5.41556 3.74341C5.27848 3.6725 5.14504 3.60576 5.01529 3.54329L4.58148 4.44429ZM4.95614 4.63162L4.51895 5.53099C4.70344 5.62068 4.8259 5.72859 4.91272 5.84973L5.72553 5.26721L6.53835 4.68469C6.24159 4.2706 5.85111 3.95479 5.39333 3.73226L4.95614 4.63162ZM5.72553 5.26721L4.91272 5.84973C4.96938 5.9288 5.01322 6.03622 5.01322 6.21725H6.01322H7.01322C7.01322 5.6668 6.86527 5.14086 6.53835 4.68469L5.72553 5.26721ZM6.01322 6.21725H5.01322C5.01322 6.39828 4.96938 6.5057 4.91272 6.58476L5.72553 7.16728L6.53835 7.7498C6.86527 7.29364 7.01322 6.7677 7.01322 6.21725H6.01322ZM5.72553 7.16728L4.91272 6.58476C4.8259 6.70591 4.70344 6.81382 4.51895 6.9035L4.95614 7.80287L5.39333 8.70224C5.85111 8.47971 6.24159 8.16389 6.53835 7.7498L5.72553 7.16728ZM4.95614 7.80287L4.52139 6.90232C4.39233 6.96462 4.26775 7.02469 4.14766 7.08251L4.58148 7.98351L5.01529 8.88451C5.13605 8.82637 5.26125 8.766 5.39089 8.70342L4.95614 7.80287ZM4.58148 7.98351L4.14766 7.08251C3.95948 7.17312 3.78278 7.28428 3.61718 7.41167L4.22689 8.20429L4.8366 8.99692C4.90293 8.94589 4.96262 8.90987 5.01529 8.88451L4.58148 7.98351ZM4.22689 8.20429L3.65915 7.38108C3.33247 7.60638 3.03908 7.86791 2.78161 8.16543L3.53778 8.81981L4.29394 9.47419C4.43789 9.30784 4.60391 9.15903 4.79462 9.02751L4.22689 8.20429ZM3.53778 8.81981L2.78161 8.16543C2.53054 8.45556 2.31543 8.77128 2.13707 9.11127L3.02262 9.57582L3.90816 10.0404C4.01526 9.83622 4.14359 9.64793 4.29394 9.47419L3.53778 8.81981ZM3.02262 9.57582L2.13707 9.11127C1.95578 9.45686 1.81947 9.82034 1.72883 10.1999L2.70148 10.4322L3.67413 10.6645C3.72621 10.4464 3.804 10.2389 3.90816 10.0404L3.02262 9.57582ZM2.70148 10.4322L1.72883 10.1999C1.63987 10.5724 1.5933 10.9535 1.58784 11.3414L2.58774 11.3555L3.58764 11.3696C3.5911 11.1241 3.62036 10.8896 3.67413 10.6645L2.70148 10.4322ZM2.58774 11.3555V12.3555H10.2951V11.3555V10.3555H2.58774V11.3555ZM10.2951 11.3555H11.2951C11.2951 10.9663 11.2505 10.5828 11.1607 10.2066L10.188 10.4389L9.21538 10.6712C9.26828 10.8927 9.29507 11.1202 9.29507 11.3555H10.2951ZM10.188 10.4389L11.1607 10.2066C11.07 9.82703 10.9337 9.46355 10.7524 9.11797L9.86689 9.58251L8.98134 10.0471C9.08551 10.2456 9.16329 10.4531 9.21538 10.6712L10.188 10.4389ZM9.86689 9.58251L10.7524 9.11797C10.5741 8.77797 10.359 8.46225 10.1079 8.17212L9.35173 8.8265L8.59556 9.48088C8.74591 9.65462 8.87424 9.84291 8.98134 10.0471L9.86689 9.58251ZM9.35173 8.8265L10.1079 8.17212C9.85016 7.87429 9.55523 7.61148 9.22658 7.3831L8.65593 8.20429L8.08527 9.02548C8.28294 9.16285 8.45187 9.31484 8.59556 9.48088L9.35173 8.8265ZM8.65593 8.20429L9.24594 7.3969C9.08448 7.27891 8.91428 7.17545 8.73515 7.0892L8.30134 7.9902L7.86752 8.8912C7.92925 8.92092 7.99544 8.96018 8.06591 9.01168L8.65593 8.20429ZM8.30134 7.9902L8.73515 7.0892C8.62404 7.0357 8.50771 6.97756 8.3861 6.91465L7.92667 7.80287L7.46725 8.69109C7.60433 8.76199 7.73778 8.82873 7.86752 8.8912L8.30134 7.9902ZM7.92667 7.80287L8.36387 6.9035C8.17937 6.81382 8.05692 6.70591 7.9701 6.58476L7.15728 7.16728L6.34446 7.7498C6.64122 8.16389 7.0317 8.47971 7.48948 8.70224L7.92667 7.80287ZM7.15728 7.16728L7.9701 6.58476C7.91343 6.5057 7.86959 6.39828 7.86959 6.21725H6.86959H5.86959C5.86959 6.7677 6.01754 7.29364 6.34446 7.7498L7.15728 7.16728Z" fill="#B462D4" mask="url(#path-1-inside-1_3676_15016)"/>
<path d="M11.1514 1.07903V0.0790264H10.1514V1.07903H11.1514ZM10.3419 3.72173L11.1654 4.28904L11.1668 4.28708L10.3419 3.72173ZM8.26119 5.42778L7.84454 4.51872L7.84369 4.5191L8.26119 5.42778ZM7.72596 6.21725L6.72623 6.194L6.72596 6.20562V6.21725H7.72596ZM8.26119 7.00671L7.8331 7.91046L7.83629 7.91195L8.26119 7.00671ZM11.1514 11.3555L10.1515 11.3648L10.1607 12.3555H11.1514V11.3555ZM12.0078 11.3555H13.0078V10.3555H12.0078V11.3555ZM12.0078 12.2118V13.2118H13.0078V12.2118H12.0078ZM0.875 12.2118H-0.125V13.2118H0.875V12.2118ZM0.875 11.3555V10.3555H-0.125V11.3555H0.875ZM1.73137 11.3555V12.3555H2.73137V11.3555H1.73137ZM2.54091 8.71276L3.36576 9.27811L3.36751 9.27555L2.54091 8.71276ZM4.62162 7.0134L4.19461 6.10916L4.18078 6.11569L4.16715 6.12264L4.62162 7.0134ZM4.62162 5.42778L5.04971 4.52404L5.04653 4.52254L4.62162 5.42778ZM1.73137 1.07903L2.73133 1.06968L2.72207 0.0790264H1.73137V1.07903ZM0.875 1.07903H-0.125V2.07903H0.875V1.07903ZM0.875 0.222656V-0.777344H-0.125V0.222656H0.875ZM12.0078 0.222656H13.0078V-0.777344H12.0078V0.222656ZM12.0078 1.07903V2.07903H13.0078V1.07903H12.0078ZM7.92667 4.63162L7.49192 3.73107L7.48948 3.73226L7.92667 4.63162ZM8.65593 4.2302L8.08819 3.40699L8.06681 3.42174L8.04622 3.43758L8.65593 4.2302ZM10.2951 1.07903L11.295 1.09311L11.3093 0.0790264H10.2951V1.07903ZM2.58774 1.07903V0.0790264H1.58774V1.07903H2.58774ZM4.22689 4.2302L4.8169 3.42281L4.80731 3.4158L4.79754 3.40901L4.22689 4.2302ZM4.95614 4.63162L4.49672 5.51984L4.50776 5.52556L4.51895 5.53099L4.95614 4.63162ZM4.95614 7.80287L5.39089 8.70343L5.39333 8.70224L4.95614 7.80287ZM4.22689 8.20429L4.79462 9.02751L4.81601 9.01276L4.8366 8.99692L4.22689 8.20429ZM2.58774 11.3555L1.58784 11.3414L1.57356 12.3555H2.58774V11.3555ZM10.2951 11.3555V12.3555H11.2951V11.3555H10.2951ZM8.65593 8.20429L8.06591 9.01168L8.07551 9.0187L8.08527 9.02548L8.65593 8.20429ZM7.92667 7.80287L8.3861 6.91465L8.37505 6.90894L8.36387 6.9035L7.92667 7.80287ZM11.1514 1.07903H10.1514C10.1514 1.456 10.0983 1.81852 9.9929 2.1699L10.9507 2.45725L11.9086 2.74459C12.0708 2.20392 12.1514 1.64763 12.1514 1.07903H11.1514ZM10.9507 2.45725L9.9929 2.1699C9.88978 2.51365 9.73268 2.84178 9.51705 3.15638L10.3419 3.72173L11.1668 4.28708C11.4953 3.80776 11.7441 3.29289 11.9086 2.74459L10.9507 2.45725ZM10.3419 3.72173L9.5184 3.15443C9.40433 3.32001 9.28818 3.46588 9.1707 3.59372L9.90703 4.27034L10.6434 4.94697C10.8292 4.74475 11.0029 4.52488 11.1654 4.28904L10.3419 3.72173ZM9.90703 4.27034L9.1707 3.59372C9.05365 3.7211 8.93191 3.83406 8.80568 3.93372L9.42532 4.7186L10.045 5.50348C10.2577 5.33553 10.4571 5.14965 10.6434 4.94697L9.90703 4.27034ZM9.42532 4.7186L8.80568 3.93372C8.669 4.04162 8.51863 4.14642 8.35369 4.24763L8.87671 5.09995L9.39973 5.95227C9.62729 5.81263 9.84267 5.66319 10.045 5.50348L9.42532 4.7186ZM8.87671 5.09995L8.35369 4.24763C8.19249 4.34655 8.0229 4.43697 7.84454 4.51872L8.26119 5.42778L8.67785 6.33685C8.92767 6.22234 9.16842 6.09421 9.39973 5.95227L8.87671 5.09995ZM8.26119 5.42778L7.84369 4.5191C7.5441 4.65676 7.27098 4.86211 7.06321 5.14903L7.87315 5.73554L8.68309 6.32205C8.67911 6.32754 8.67495 6.33247 8.67092 6.33666C8.66692 6.34082 8.66369 6.34359 8.6618 6.34509C8.65787 6.34821 8.66173 6.34425 8.67869 6.33646L8.26119 5.42778ZM7.87315 5.73554L7.06321 5.14903C6.82842 5.47326 6.73444 5.84109 6.72623 6.194L7.72596 6.21725L8.72569 6.2405C8.7261 6.22309 8.72807 6.22683 8.72246 6.2452C8.71642 6.26495 8.70423 6.29286 8.68309 6.32205L7.87315 5.73554ZM7.72596 6.21725H6.72596C6.72596 6.57763 6.81895 6.95071 7.05652 7.27877L7.86646 6.69227L8.6764 6.10576C8.69828 6.13597 8.7124 6.1671 8.72002 6.19287C8.72722 6.2172 8.72596 6.22757 8.72596 6.21725H7.72596ZM7.86646 6.69227L7.05652 7.27877C7.2647 7.56626 7.53827 7.77079 7.83311 7.91045L8.26119 7.00671L8.68928 6.10298C8.66616 6.09202 8.65773 6.08514 8.65847 6.08573C8.65882 6.08601 8.66107 6.08784 8.66452 6.09143C8.668 6.09505 8.67212 6.09984 8.6764 6.10576L7.86646 6.69227ZM8.26119 7.00671L7.83629 7.91195C8.02556 8.00079 8.19964 8.09374 8.35929 8.19027L8.87671 7.33454L9.39413 6.47881C9.1702 6.34341 8.93393 6.21781 8.6861 6.10148L8.26119 7.00671ZM8.87671 7.33454L8.35929 8.19027C8.51691 8.28558 8.66327 8.38694 8.79899 8.49409L9.41863 7.7092L10.0383 6.92432C9.83501 6.76385 9.6201 6.61544 9.39413 6.47881L8.87671 7.33454ZM9.41863 7.7092L8.79899 8.49409C8.92441 8.59311 9.04875 8.70837 9.17148 8.84163L9.90703 8.16415L10.6426 7.48668C10.4531 7.28095 10.2518 7.09292 10.0383 6.92432L9.41863 7.7092ZM9.90703 8.16415L9.17148 8.84163C9.29363 8.97424 9.40844 9.11882 9.51568 9.2761L10.3419 8.71276L11.1681 8.14943C11.0078 7.91421 10.8326 7.69304 10.6426 7.48668L9.90703 8.16415ZM10.3419 8.71276L9.51568 9.2761C9.72672 9.58563 9.88246 9.91206 9.98621 10.2579L10.944 9.97056L11.9019 9.68321C11.738 9.137 11.4923 8.62491 11.1681 8.14943L10.3419 8.71276ZM10.944 9.97056L9.98621 10.2579C10.0923 10.6115 10.1479 10.9794 10.1515 11.3648L11.1514 11.3555L12.1514 11.3461C12.1461 10.7771 12.0634 10.2217 11.9019 9.68321L10.944 9.97056ZM11.1514 11.3555V12.3555H12.0078V11.3555V10.3555H11.1514V11.3555ZM12.0078 11.3555H11.0078V12.2118H12.0078H13.0078V11.3555H12.0078ZM12.0078 12.2118V11.2118H0.875V12.2118V13.2118H12.0078V12.2118ZM0.875 12.2118H1.875V11.3555H0.875H-0.125V12.2118H0.875ZM0.875 11.3555V12.3555H1.73137V11.3555V10.3555H0.875V11.3555ZM1.73137 11.3555H2.73137C2.73137 10.9785 2.7845 10.616 2.88991 10.2646L1.93208 9.97725L0.974256 9.6899C0.812052 10.2306 0.73137 10.7869 0.73137 11.3555H1.73137ZM1.93208 9.97725L2.88991 10.2646C2.99303 9.92084 3.15013 9.59272 3.36576 9.27811L2.54091 8.71276L1.71606 8.14742C1.38753 8.62674 1.13875 9.1416 0.974256 9.6899L1.93208 9.97725ZM2.54091 8.71276L3.36751 9.27555C3.48466 9.10348 3.59914 8.96092 3.70949 8.84408L2.98247 8.15746L2.25546 7.47084C2.06251 7.67514 1.88261 7.90278 1.71431 8.14997L2.54091 8.71276ZM2.98247 8.15746L3.70949 8.84408C3.83514 8.71104 3.96523 8.5884 4.09971 8.47573L3.45749 7.7092L2.81527 6.94268C2.61969 7.10655 2.43311 7.28274 2.25546 7.47084L2.98247 8.15746ZM3.45749 7.7092L4.09971 8.47573C4.2122 8.38148 4.3378 8.29575 4.47827 8.21913L3.99941 7.34123L3.52056 6.46334C3.26853 6.60081 3.03284 6.76039 2.81527 6.94268L3.45749 7.7092ZM3.99941 7.34123L4.47827 8.21913C4.66572 8.11688 4.86494 8.01189 5.07609 7.90417L4.62162 7.0134L4.16715 6.12264C3.94119 6.23793 3.72561 6.35149 3.52056 6.46334L3.99941 7.34123ZM4.62162 7.0134L5.04863 7.91765C5.34886 7.77588 5.61262 7.56775 5.81607 7.29032L5.00966 6.69896L4.20326 6.10759C4.20394 6.10666 4.20502 6.10533 4.2064 6.10388C4.20778 6.10244 4.20891 6.10145 4.20947 6.10099C4.21097 6.09978 4.20731 6.10316 4.19461 6.10916L4.62162 7.0134ZM5.00966 6.69896L5.81607 7.29032C6.05593 6.96324 6.15685 6.58861 6.15685 6.21725H5.15685H4.15685C4.15685 6.2232 4.15616 6.21062 4.1637 6.18596C4.1716 6.16011 4.18509 6.13236 4.20326 6.10759L5.00966 6.69896ZM5.15685 6.21725H6.15685C6.15685 5.85687 6.06386 5.48379 5.82629 5.15572L5.01635 5.74223L4.20641 6.32874C4.18453 6.29852 4.17041 6.26739 4.16279 6.24162C4.1556 6.2173 4.15685 6.20693 4.15685 6.21725H5.15685ZM5.01635 5.74223L5.82629 5.15572C5.61811 4.86823 5.34455 4.6637 5.04971 4.52404L4.62162 5.42778L4.19353 6.33152C4.21665 6.34247 4.22508 6.34935 4.22434 6.34877C4.22399 6.34849 4.22175 6.34665 4.21829 6.34306C4.21482 6.33945 4.21069 6.33465 4.20641 6.32874L5.01635 5.74223ZM4.62162 5.42778L5.04653 4.52254C4.85725 4.4337 4.68317 4.34075 4.52352 4.24422L4.0061 5.09995L3.48868 5.95568C3.71261 6.09108 3.94888 6.21669 4.19671 6.33302L4.62162 5.42778ZM4.0061 5.09995L4.52352 4.24422C4.36591 4.14892 4.21954 4.04755 4.08383 3.94041L3.46418 4.72529L2.84454 5.51017C3.0478 5.67065 3.26272 5.81905 3.48868 5.95568L4.0061 5.09995ZM3.46418 4.72529L4.08383 3.94041C3.9584 3.84138 3.83407 3.72612 3.71133 3.59287L2.97578 4.27034L2.24024 4.94782C2.42972 5.15354 2.63099 5.34158 2.84454 5.51017L3.46418 4.72529ZM2.97578 4.27034L3.71133 3.59287C3.58918 3.46025 3.47437 3.31568 3.36713 3.15839L2.54091 3.72173L1.71468 4.28507C1.87506 4.52029 2.05017 4.74146 2.24024 4.94782L2.97578 4.27034ZM2.54091 3.72173L3.36713 3.15839C3.15609 2.84887 3.00035 2.52243 2.8966 2.17659L1.93877 2.46394L0.980946 2.75129C1.14481 3.2975 1.39049 3.80959 1.71468 4.28507L2.54091 3.72173ZM1.93877 2.46394L2.8966 2.17659C2.79053 1.82302 2.73493 1.45511 2.73133 1.06968L1.73137 1.07903L0.731414 1.08837C0.736732 1.65744 0.8194 2.2128 0.980946 2.75129L1.93877 2.46394ZM1.73137 1.07903V0.0790264H0.875V1.07903V2.07903H1.73137V1.07903ZM0.875 1.07903H1.875V0.222656H0.875H-0.125V1.07903H0.875ZM0.875 0.222656V1.22266H12.0078V0.222656V-0.777344H0.875V0.222656ZM12.0078 0.222656H11.0078V1.07903H12.0078H13.0078V0.222656H12.0078ZM12.0078 1.07903V0.0790264H11.1514V1.07903V2.07903H12.0078V1.07903ZM6.86959 6.21725H7.86959C7.86959 6.03622 7.91343 5.9288 7.9701 5.84973L7.15728 5.26721L6.34446 4.68469C6.01754 5.14086 5.86959 5.6668 5.86959 6.21725H6.86959ZM7.15728 5.26721L7.9701 5.84973C8.05692 5.72859 8.17937 5.62068 8.36387 5.53099L7.92667 4.63162L7.48948 3.73226C7.0317 3.95479 6.64122 4.2706 6.34446 4.68469L7.15728 5.26721ZM7.92667 4.63162L8.36142 5.53218C8.49048 5.46987 8.61506 5.40981 8.73515 5.35199L8.30134 4.45098L7.86752 3.54998C7.74676 3.60813 7.62156 3.66849 7.49192 3.73107L7.92667 4.63162ZM8.30134 4.45098L8.73515 5.35199C8.92333 5.26138 9.10004 5.15021 9.26564 5.02282L8.65593 4.2302L8.04622 3.43758C7.97988 3.4886 7.92019 3.52462 7.86752 3.54998L8.30134 4.45098ZM8.65593 4.2302L9.22366 5.05341C9.55034 4.82812 9.84373 4.56659 10.1012 4.26906L9.34504 3.61468L8.58887 2.96031C8.44492 3.12665 8.2789 3.27546 8.08819 3.40699L8.65593 4.2302ZM9.34504 3.61468L10.1012 4.26906C10.3523 3.97893 10.5674 3.66322 10.7457 3.32322L9.8602 2.85867L8.97465 2.39412C8.86755 2.59828 8.73922 2.78657 8.58887 2.96031L9.34504 3.61468ZM9.8602 2.85867L10.7457 3.32322C10.927 2.97763 11.0633 2.61415 11.154 2.23458L10.1813 2.0023L9.20869 1.77003C9.1566 1.98812 9.07882 2.19556 8.97465 2.39412L9.8602 2.85867ZM10.1813 2.0023L11.154 2.23458C11.2429 1.86206 11.2895 1.48103 11.295 1.09311L10.2951 1.07903L9.29517 1.06494C9.29171 1.31038 9.26245 1.54487 9.20869 1.77003L10.1813 2.0023ZM10.2951 1.07903V0.0790264H2.58774V1.07903V2.07903H10.2951V1.07903ZM2.58774 1.07903H1.58774C1.58774 1.4682 1.63231 1.85173 1.72214 2.22788L2.69479 1.99561L3.66744 1.76334C3.61454 1.54182 3.58774 1.31429 3.58774 1.07903H2.58774ZM2.69479 1.99561L1.72214 2.22788C1.81278 2.60746 1.94909 2.97094 2.13038 3.31653L3.01593 2.85198L3.90147 2.38743C3.79731 2.18886 3.71952 1.98143 3.66744 1.76334L2.69479 1.99561ZM3.01593 2.85198L2.13038 3.31653C2.30874 3.65653 2.52384 3.97224 2.77492 4.26237L3.53109 3.60799L4.28725 2.95362C4.1369 2.77988 4.00857 2.59159 3.90147 2.38743L3.01593 2.85198ZM3.53109 3.60799L2.77492 4.26237C3.03266 4.5602 3.32759 4.82301 3.65623 5.05139L4.22689 4.2302L4.79754 3.40901C4.59987 3.27165 4.43094 3.11965 4.28725 2.95362L3.53109 3.60799ZM4.22689 4.2302L3.63687 5.03759C3.79833 5.15558 3.96853 5.25905 4.14766 5.3453L4.58148 4.44429L5.01529 3.54329C4.95357 3.51357 4.88738 3.47431 4.8169 3.42281L4.22689 4.2302ZM4.58148 4.44429L4.14766 5.3453C4.25877 5.39879 4.3751 5.45694 4.49672 5.51984L4.95614 4.63162L5.41556 3.74341C5.27848 3.6725 5.14504 3.60576 5.01529 3.54329L4.58148 4.44429ZM4.95614 4.63162L4.51895 5.53099C4.70344 5.62068 4.8259 5.72859 4.91272 5.84973L5.72553 5.26721L6.53835 4.68469C6.24159 4.2706 5.85111 3.95479 5.39333 3.73226L4.95614 4.63162ZM5.72553 5.26721L4.91272 5.84973C4.96938 5.9288 5.01322 6.03622 5.01322 6.21725H6.01322H7.01322C7.01322 5.6668 6.86527 5.14086 6.53835 4.68469L5.72553 5.26721ZM6.01322 6.21725H5.01322C5.01322 6.39828 4.96938 6.5057 4.91272 6.58476L5.72553 7.16728L6.53835 7.7498C6.86527 7.29364 7.01322 6.7677 7.01322 6.21725H6.01322ZM5.72553 7.16728L4.91272 6.58476C4.8259 6.70591 4.70344 6.81382 4.51895 6.9035L4.95614 7.80287L5.39333 8.70224C5.85111 8.47971 6.24159 8.16389 6.53835 7.7498L5.72553 7.16728ZM4.95614 7.80287L4.52139 6.90232C4.39233 6.96462 4.26775 7.02469 4.14766 7.08251L4.58148 7.98351L5.01529 8.88451C5.13605 8.82637 5.26125 8.766 5.39089 8.70342L4.95614 7.80287ZM4.58148 7.98351L4.14766 7.08251C3.95948 7.17312 3.78278 7.28428 3.61718 7.41167L4.22689 8.20429L4.8366 8.99692C4.90293 8.94589 4.96262 8.90987 5.01529 8.88451L4.58148 7.98351ZM4.22689 8.20429L3.65915 7.38108C3.33247 7.60638 3.03908 7.86791 2.78161 8.16543L3.53778 8.81981L4.29394 9.47419C4.43789 9.30784 4.60391 9.15903 4.79462 9.02751L4.22689 8.20429ZM3.53778 8.81981L2.78161 8.16543C2.53054 8.45556 2.31543 8.77128 2.13707 9.11127L3.02262 9.57582L3.90816 10.0404C4.01526 9.83622 4.14359 9.64793 4.29394 9.47419L3.53778 8.81981ZM3.02262 9.57582L2.13707 9.11127C1.95578 9.45686 1.81947 9.82034 1.72883 10.1999L2.70148 10.4322L3.67413 10.6645C3.72621 10.4464 3.804 10.2389 3.90816 10.0404L3.02262 9.57582ZM2.70148 10.4322L1.72883 10.1999C1.63987 10.5724 1.5933 10.9535 1.58784 11.3414L2.58774 11.3555L3.58764 11.3696C3.5911 11.1241 3.62036 10.8896 3.67413 10.6645L2.70148 10.4322ZM2.58774 11.3555V12.3555H10.2951V11.3555V10.3555H2.58774V11.3555ZM10.2951 11.3555H11.2951C11.2951 10.9663 11.2505 10.5828 11.1607 10.2066L10.188 10.4389L9.21538 10.6712C9.26828 10.8927 9.29507 11.1202 9.29507 11.3555H10.2951ZM10.188 10.4389L11.1607 10.2066C11.07 9.82703 10.9337 9.46355 10.7524 9.11797L9.86689 9.58251L8.98134 10.0471C9.08551 10.2456 9.16329 10.4531 9.21538 10.6712L10.188 10.4389ZM9.86689 9.58251L10.7524 9.11797C10.5741 8.77797 10.359 8.46225 10.1079 8.17212L9.35173 8.8265L8.59556 9.48088C8.74591 9.65462 8.87424 9.84291 8.98134 10.0471L9.86689 9.58251ZM9.35173 8.8265L10.1079 8.17212C9.85016 7.87429 9.55523 7.61148 9.22658 7.3831L8.65593 8.20429L8.08527 9.02548C8.28294 9.16285 8.45187 9.31484 8.59556 9.48088L9.35173 8.8265ZM8.65593 8.20429L9.24594 7.3969C9.08448 7.27891 8.91428 7.17545 8.73515 7.0892L8.30134 7.9902L7.86752 8.8912C7.92925 8.92092 7.99544 8.96018 8.06591 9.01168L8.65593 8.20429ZM8.30134 7.9902L8.73515 7.0892C8.62404 7.0357 8.50771 6.97756 8.3861 6.91465L7.92667 7.80287L7.46725 8.69109C7.60433 8.76199 7.73778 8.82873 7.86752 8.8912L8.30134 7.9902ZM7.92667 7.80287L8.36387 6.9035C8.17937 6.81382 8.05692 6.70591 7.9701 6.58476L7.15728 7.16728L6.34446 7.7498C6.64122 8.16389 7.0317 8.47971 7.48948 8.70224L7.92667 7.80287ZM7.15728 7.16728L7.9701 6.58476C7.91343 6.5057 7.86959 6.39828 7.86959 6.21725H6.86959H5.86959C5.86959 6.7677 6.01754 7.29364 6.34446 7.7498L7.15728 7.16728Z" fill="black" fill-opacity="0.2" mask="url(#path-1-inside-1_3676_15016)"/>
</svg>
