<svg width="345" height="52" viewBox="0 0 345 52" fill="none" xmlns="http://www.w3.org/2000/svg">
<path d="M5.80587 1.01369C3.73529 2.00585 1.96666 3.94702 1.06078 6.0176C0.629412 7.13917 0.5 11.3235 0.5 25.8607C0.5 42.8568 0.586274 44.4528 1.31961 46.0489C2.22549 47.9901 3.95097 49.8881 5.89215 50.9234C7.09999 51.6136 19.3941 51.6567 172.402 51.6567C332.872 51.6567 337.66 51.6136 339.127 50.8371C341.241 49.7156 342.535 48.4646 343.57 46.4803C344.476 44.7979 344.519 44.194 344.648 27.2842C344.821 7.31172 344.735 6.3627 342.103 3.42937C338.954 -0.194149 344.433 0.0646744 275.5 0.194084L214.245 0.323498L211.656 1.57447C208.206 3.25682 204.366 7.22544 201.692 11.7548C199.19 16.0686 193.496 22.0215 189.786 24.2215C173.308 33.8842 153.033 28.4489 143.284 11.7548C140.868 7.57054 136.986 3.55878 133.708 1.79016L130.99 0.323498L69.3038 0.194084L7.61763 0.107811L5.80587 1.01369Z" fill="#FFF1DC"/>
</svg>
