<svg width="15" height="17" viewBox="0 0 15 17" fill="none" xmlns="http://www.w3.org/2000/svg">
<path fill-rule="evenodd" clip-rule="evenodd" d="M1.4209 15.1368H13.6025C13.8333 15.1368 14.0546 15.2285 14.2178 15.3917C14.381 15.5549 14.4727 15.7762 14.4727 16.007C14.4727 16.2377 14.381 16.459 14.2178 16.6222C14.0546 16.7854 13.8333 16.8771 13.6025 16.8771H1.4209C1.19013 16.8771 0.968811 16.7854 0.805633 16.6222C0.642454 16.459 0.550781 16.2377 0.550781 16.007C0.550781 15.7762 0.642454 15.5549 0.805633 15.3917C0.968811 15.2285 1.19013 15.1368 1.4209 15.1368ZM8.38184 10.0684L11.2036 7.24749L12.434 8.47783L7.51172 13.4001L2.58947 8.47783L3.81981 7.24749L6.6416 10.0684V0.344849H8.38184V10.0684Z" fill="#173F63"/>
</svg>
