<svg width="15" height="12" viewBox="0 0 15 12" fill="none" xmlns="http://www.w3.org/2000/svg">
<path d="M14.0307 3.84801C14.1001 3.52507 14.0385 3.18778 13.8594 2.91023C13.6803 2.63268 13.3984 2.43757 13.0755 2.36775L6.57703 0.965504C6.41697 0.930995 6.25168 0.928351 6.09059 0.957723C5.92951 0.987094 5.77578 1.04791 5.6382 1.13669C5.50061 1.22547 5.38186 1.34048 5.28873 1.47515C5.19559 1.60982 5.12989 1.76152 5.09538 1.92159C5.06087 2.08165 5.05823 2.24694 5.0876 2.40803C5.11697 2.56912 5.17778 2.72284 5.26657 2.86042C5.35535 2.99801 5.47036 3.11676 5.60503 3.2099C5.7397 3.30303 5.8914 3.36873 6.05147 3.40324L9.60812 4.17004L1.554 9.36722C1.27623 9.54647 1.08103 9.82871 1.01136 10.1519C0.94169 10.475 1.00325 10.8126 1.18249 11.0904C1.36173 11.3682 1.64398 11.5634 1.96714 11.6331C2.2903 11.7027 2.6279 11.6412 2.90568 11.4619L10.9598 6.26474L10.193 9.8214C10.1234 10.1446 10.185 10.4822 10.3644 10.76C10.5437 11.0377 10.826 11.2329 11.1492 11.3025C11.4724 11.3721 11.81 11.3104 12.0878 11.1311C12.3655 10.9518 12.5607 10.6695 12.6303 10.3463L14.0307 3.84801Z" fill="url(#paint0_linear_3040_2348)"/>
<defs>
<linearGradient id="paint0_linear_3040_2348" x1="10.7454" y1="11.9973" x2="4.29608" y2="2.00273" gradientUnits="userSpaceOnUse">
<stop stop-color="#FFC267"/>
<stop offset="1" stop-color="#99753E"/>
</linearGradient>
</defs>
</svg>
